<?xml version="1.0" encoding="UTF-8" standalone="no"?>
<!DOCTYPE svg PUBLIC "-//W3C//DTD SVG 1.1//EN" "http://www.w3.org/Graphics/SVG/1.1/DTD/svg11.dtd">
<svg width="100%" height="100%" viewBox="0 0 2000 2000" version="1.1" xmlns="http://www.w3.org/2000/svg" xmlns:xlink="http://www.w3.org/1999/xlink" xml:space="preserve" xmlns:serif="http://www.serif.com/" style="fill-rule:evenodd;clip-rule:evenodd;stroke-linejoin:round;stroke-miterlimit:2;">
    <g id="Discord" transform="matrix(1.511109,0,0,1.511109,226.540837,398.978406)">
        <path d="M761.5,793.999L758.5,793.999C757.106,786.988 740.525,774.296 706.147,706.686C701.633,697.807 710.662,701.71 761.326,676.155C789.712,661.837 790.975,660.718 789.44,658.553C788.551,657.299 786.91,659.325 774.366,646.625C767.364,639.537 761.795,650.356 706.371,669.171C563.559,717.652 455.053,702.996 376.531,686.398C358.711,682.631 305.74,665.994 273.544,652.396C259.55,646.486 258.43,639.048 246.632,648.658C245.973,649.195 239.902,654.14 238.51,655.512C236.262,657.728 230.399,658.575 236.714,662.09C306.591,700.986 309.18,695.647 319.045,701.848C320.627,702.843 297.434,745.222 276.43,776.455C265.676,792.445 264.166,792.673 262.457,792.932C256.244,792.217 256.527,791.542 243.613,787.195C217.628,778.449 218.234,777.424 192.331,767.963C169.796,759.732 116.769,732.182 110.318,728.83C71.641,708.736 5.862,663.279 5.318,660.561C2.057,644.286 1.438,611.758 1.357,607.502C-0.679,500.578 7.471,458.793 13.306,419.472C24.776,342.181 64.894,226.114 103.242,157.359C144.863,82.738 146.548,83.786 150.161,77.301C159.72,60.141 165.848,64.497 171.432,60.394C173.033,59.218 248.585,25.445 325.436,9.141C351.824,3.544 366.01,-2.239 370.433,4.535C382.939,23.689 380.26,24.972 381.346,26.617C389.974,39.688 391.904,57.219 398.453,56.21C501.286,40.371 597.058,51.143 626.445,56.758C629.461,57.335 640.435,27.699 653.883,2.709C657.484,-3.984 762.858,24.324 807.334,41.863C860.426,62.798 859.713,64.08 864.324,65.872C870.104,68.118 903.642,126.986 903.832,127.318C1032.742,351.987 1026.593,547.661 1019.59,650.509C1018.786,662.323 1017.318,662.133 1010.183,667.1C957.08,704.068 957.354,704.332 900.629,735.757C847.663,765.099 763.432,793.207 761.5,793.999L747.317,363.64C715.159,325.118 642.67,311.215 602.708,383.607C559.408,462.046 631.101,566.713 708.808,535.933C796.461,501.214 776.706,390.209 748.567,365.425C748.15,364.83 747.734,364.235 747.317,363.64L761.5,793.999L285.143,517.866C318.428,550.604 382.602,551.406 415.561,498.534C481.06,393.462 358.669,270.833 274.698,365.669C262.808,379.098 221.28,453.787 285.143,517.866L761.5,793.999Z" style="fill-opacity:1;"/>
    </g>
</svg>
