<?xml version="1.0" encoding="UTF-8" standalone="no"?>
<!DOCTYPE svg PUBLIC "-//W3C//DTD SVG 1.1//EN" "http://www.w3.org/Graphics/SVG/1.1/DTD/svg11.dtd">
<svg width="100%" height="100%" viewBox="0 0 2000 2000" version="1.1" xmlns="http://www.w3.org/2000/svg" xmlns:xlink="http://www.w3.org/1999/xlink" xml:space="preserve" xmlns:serif="http://www.serif.com/" style="fill-rule:evenodd;clip-rule:evenodd;stroke-linejoin:round;stroke-miterlimit:2;">
    <g transform="matrix(1,0,0,1,719,738)">
        <g transform="matrix(5.080526,0,0,5.080526,-719.581828,-733.08313)">
            <path d="M113.507,375.04C107.952,374.755 87.362,374.477 69.583,367.289C58.768,362.918 52.361,358.029 52.205,357.925C35.257,346.63 25.536,329.96 22.493,323.503C16.135,310.015 13.16,296.207 12.269,275.511C12.231,274.631 11.928,267.587 11.952,264.496C12.028,254.736 12.075,248.703 12.001,142.497C11.979,109.874 10.01,76.103 31.898,47.808C48.343,26.549 68.923,19.444 71.503,18.508C91.426,11.276 108.759,11.069 154.5,11.132C254.518,11.268 254.514,10.756 279.48,11.817C288.223,12.189 290.294,12.706 291.462,12.818C310.694,14.663 328.71,22.481 340.669,32.282C356.424,45.192 363.223,57.785 367.702,68.412C377.152,90.836 375.631,121.33 375.915,126.479C376.096,129.741 376.02,129.724 376.037,220.501C376.047,275.632 376.453,293.036 369.5,313.5C368.454,316.578 362.683,333.566 347.915,347.932C347.508,348.328 344.682,351.078 342.686,352.734C320.525,371.114 298.547,373.387 282.512,374.672C267.454,375.879 130.073,375.328 113.507,375.04Z" style="fill-opacity:0;stroke:rgb(255,12,78);stroke-width:4.92px;"/>
        </g>
        <g transform="matrix(1,0,0,1,64.054015,11.537813)">
            <g transform="matrix(-4.340282,-0,0,-4.664781,1133.768491,1249.049997)">
                <path d="M174.135,52.155C175.991,49.995 175.941,50.146 177.811,47.877C181.653,43.213 178.621,51.228 178.517,51.505C157.764,106.369 261.05,158.153 270.24,163.942C333.124,203.557 326.865,257.425 318.819,268.76C303.784,289.941 300.055,286.307 299.079,288.303C297.53,291.471 291.898,293.272 291.177,293.503C289.828,261.644 284.771,242.097 243.34,193.629C208.356,152.703 180.148,127.093 170.417,103.539C157.976,73.424 176.67,58.859 174.135,52.155Z" style="fill:rgb(73,18,115);fill-opacity:0;stroke:rgb(255,12,78);stroke-width:5.55px;"/>
            </g>
            <g transform="matrix(4.572255,0,-0,4.572255,-774.986423,-743.830426)">
                <path d="M141.109,121.447C146.158,132.504 139.378,145.314 183.624,187.355C209.865,212.289 293.39,272.648 285.865,323.5C285.684,324.723 286.273,324.432 286.778,325.584C278.518,348.758 277.107,355.597 252.622,380.776C249.746,383.734 251.735,375.957 251.833,375.522C252.276,375.173 270.025,354.539 239.982,310.174C180.237,221.948 134.452,202.591 141.109,121.447Z" style="fill:rgb(253,178,144);fill-opacity:0;stroke:rgb(255,12,78);stroke-width:5.47px;"/>
            </g>
            <g transform="matrix(4.572255,0,-0,4.572255,-774.986423,-743.830426)">
                <path d="M174.135,52.155C175.991,49.995 175.941,50.146 177.811,47.877C181.653,43.213 178.621,51.228 178.517,51.505C157.764,106.369 261.05,158.153 270.24,163.942C333.124,203.557 326.865,257.425 318.819,268.76C303.784,289.941 300.055,286.307 299.079,288.303C297.53,291.471 291.898,293.272 291.177,293.503C289.828,261.644 284.771,242.097 243.34,193.629C208.356,152.703 180.148,127.093 170.417,103.539C157.976,73.424 176.67,58.859 174.135,52.155Z" style="fill:rgb(73,18,115);fill-opacity:0;stroke:rgb(255,12,78);stroke-width:5.47px;"/>
            </g>
            <g transform="matrix(4.572255,0,-0,4.572255,-774.986423,-743.830426)">
                <path d="M174.135,52.155C176.67,58.859 157.976,73.424 170.417,103.539C180.148,127.093 208.356,152.703 243.34,193.629C284.771,242.097 289.828,261.644 291.177,293.503C290.598,309.814 290.294,309.604 286.778,325.584C286.273,324.432 285.684,324.723 285.865,323.5C293.39,272.648 209.865,212.289 183.624,187.355C139.378,145.314 146.158,132.504 141.109,121.447C146.618,88.592 154.561,74.66 174.135,52.155Z" style="fill:rgb(250,102,100);fill-opacity:0;stroke:rgb(255,12,78);stroke-width:5.47px;"/>
            </g>
        </g>
    </g>
</svg>
