<?xml version="1.0" encoding="UTF-8" standalone="no"?>
<!DOCTYPE svg PUBLIC "-//W3C//DTD SVG 1.1//EN" "http://www.w3.org/Graphics/SVG/1.1/DTD/svg11.dtd">
<svg width="100%" height="100%" viewBox="0 0 2000 2000" version="1.1" xmlns="http://www.w3.org/2000/svg" xmlns:xlink="http://www.w3.org/1999/xlink" xml:space="preserve" xmlns:serif="http://www.serif.com/" style="fill-rule:evenodd;clip-rule:evenodd;stroke-linejoin:round;stroke-miterlimit:2;">
    <g>
        <g transform="matrix(5.080526,0,0,5.080526,-0.581828,4.91687)">
            <path d="M113.507,375.04C107.952,374.755 87.362,374.477 69.583,367.289C58.768,362.918 52.361,358.029 52.205,357.925C35.257,346.63 25.536,329.96 22.493,323.503C16.135,310.015 13.16,296.207 12.269,275.511C12.231,274.631 11.928,267.587 11.952,264.496C12.028,254.736 12.075,248.703 12.001,142.497C11.979,109.874 10.01,76.103 31.898,47.808C48.343,26.549 68.923,19.444 71.503,18.508C91.426,11.276 108.759,11.069 154.5,11.132C254.518,11.268 254.514,10.756 279.48,11.817C288.223,12.189 290.294,12.706 291.462,12.818C310.694,14.663 328.71,22.481 340.669,32.282C356.424,45.192 363.223,57.785 367.702,68.412C377.152,90.836 375.631,121.33 375.915,126.479C376.096,129.741 376.02,129.724 376.037,220.501C376.047,275.632 376.453,293.036 369.5,313.5C368.454,316.578 362.683,333.566 347.915,347.932C347.508,348.328 344.682,351.078 342.686,352.734C320.525,371.114 298.547,373.387 282.512,374.672C267.454,375.879 130.073,375.328 113.507,375.04Z" style="fill-opacity:0;stroke:rgb(254,153,0);stroke-width:4.92px;"/>
        </g>
        <g transform="matrix(2.20355,0,0,2.20355,-55.795403,-47.450665)">
            <path d="M422.5,256.034C469.858,256.034 470.722,255.562 471.452,257.523C474.53,265.789 618.037,663.737 627.403,689.536C627.693,690.336 631.049,699.58 629.669,699.924C629.051,700.079 541.337,699.835 501.503,700.034C498.844,700.047 498.474,699.294 497.854,697.386C477.945,636.094 478.782,633.771 473.5,633.715C460.577,633.579 313.895,632.036 311.958,634.761C309.49,638.232 293.585,699.942 288.514,699.963C278.522,700.004 164.583,700.475 163.623,700.005C162.854,699.63 162.66,698.822 287.948,361.662C291.043,353.334 326.01,259.233 326.691,257.589C327.454,255.75 328.286,256.034 422.5,256.034ZM418.5,522.89C425.182,522.887 441.87,524.205 440.686,520.449C437.132,509.163 397.863,384.493 395.344,379.661C394.566,378.17 393.961,380.493 353.596,505.532C348.289,521.971 349.054,522.89 350.466,522.897C355.908,522.927 355.869,522.89 418.5,522.89ZM655.5,699.966C650.098,699.765 647.621,702.237 647.607,697.498C647.524,669.826 646.574,353.878 647.758,351.591C649.629,347.979 755.168,350.234 764.506,350.433C766.816,350.483 766.561,352.303 766.561,678.5C766.561,683.488 767.655,699.909 764.557,699.953C763.503,699.968 729.502,699.966 655.5,699.966ZM710.512,232.037C714.052,232.393 745.632,231.499 763.266,259.645C787.437,298.227 751.975,356.132 686.602,340.129C628.546,325.918 621.157,233.109 710.512,232.037Z" style="fill:rgb(254,153,0);fill-opacity:0;stroke:rgb(254,153,0);stroke-width:11.35px;"/>
        </g>
    </g>
</svg>
