<?xml version="1.0" encoding="UTF-8" standalone="no"?><!DOCTYPE svg PUBLIC "-//W3C//DTD SVG 1.1//EN" "http://www.w3.org/Graphics/SVG/1.1/DTD/svg11.dtd"><svg width="100%" height="100%" viewBox="0 0 480 480" version="1.1" xmlns="http://www.w3.org/2000/svg" xmlns:xlink="http://www.w3.org/1999/xlink" xml:space="preserve" xmlns:serif="http://www.serif.com/" style="fill-rule:evenodd;clip-rule:evenodd;stroke-linejoin:round;stroke-miterlimit:2;"><g><path d="M138.263,458.477c-6.774,-0.348 -31.879,-0.687 -53.558,-9.451c-13.187,-5.331 -20.999,-11.292 -21.189,-11.419c-20.666,-13.772 -32.519,-34.099 -36.229,-41.971c-7.752,-16.447 -11.379,-33.283 -12.466,-58.518c-0.046,-1.074 -0.416,-9.662 -0.387,-13.432c0.093,-11.9 0.151,-19.257 0.06,-148.756c-0.028,-39.778 -2.427,-80.956 24.261,-115.457c20.051,-25.921 45.145,-34.584 48.291,-35.726c24.293,-8.818 45.427,-9.07 101.201,-8.994c121.954,0.166 121.949,-0.458 152.391,0.836c10.66,0.453 13.186,1.084 14.61,1.221c23.45,2.249 45.417,11.782 59.999,23.732c19.21,15.742 27.501,31.097 32.961,44.054c11.523,27.343 9.668,64.525 10.015,70.803c0.22,3.977 0.127,3.956 0.148,114.643c0.013,67.222 0.507,88.443 -7.97,113.396c-1.275,3.753 -8.313,24.467 -26.319,41.984c-0.496,0.483 -3.943,3.836 -6.377,5.854c-27.022,22.411 -53.819,25.183 -73.371,26.75c-18.361,1.472 -185.873,0.8 -206.072,0.449Z" style="fill-opacity:0;stroke:#f615d4;stroke-width:6px;"/><g><path d="M393.179,94.782c-0.648,-15.074 0.099,-16.297 1.021,-15.468c10.937,9.845 2.167,115.109 -46.022,148.211c-100.046,55.373 -134.483,19.947 -207.411,72.767c-0.405,0.293 -4.877,3.532 -4.491,4.344c0.39,0.819 1.897,0.657 2.287,1.476c-16.492,12.23 -30.687,19.957 -48.499,63.383c-0.206,0.503 0.67,2.993 0.759,3.244c-0.549,1.63 -6.212,18.45 -6.604,20.464c-4.458,22.901 -1.893,-12.617 -1.813,-13.721c2.542,-2.974 2.473,-2.959 2.985,-6.791c0.092,-0.686 0.849,-6.346 1.896,-8.44c8.551,-17.102 4.389,-96.392 139.677,-137.386c47.742,-14.467 164.726,-24.472 166.216,-132.083Z" style="fill:none;stroke:#f615d4;stroke-width:6px;"/><path d="M393.179,94.782c-1.489,107.611 -118.473,117.616 -166.216,132.083c-135.288,40.994 -131.126,120.284 -139.677,137.386c-1.047,2.094 -1.804,7.754 -1.896,8.44c-0.512,3.832 -0.443,3.818 -2.985,6.791c2.726,-26.091 6.566,-84.181 65.367,-131.102c45.086,-35.977 77.463,-31.455 142.354,-56.504c7.409,-3.228 60.968,-26.568 83.667,-56.609c2.165,-2.865 15.504,-20.519 19.386,-40.486Z" style="fill:none;stroke:#f615d4;stroke-width:6px;"/><path d="M348.178,227.525c-0.579,2.146 -2.255,3.978 -2.522,4.27c-28.049,30.662 -83.605,50.815 -91.59,53.711c-1.876,-0.095 -68.615,4.511 -71.427,4.893c-22.329,3.032 -40.841,13.827 -44.075,15.712c-0.39,-0.819 -1.897,-0.657 -2.287,-1.476c-0.386,-0.811 4.086,-4.051 4.491,-4.344c72.928,-52.82 107.365,-17.393 207.411,-72.767Z" style="fill:none;stroke:#f615d4;stroke-width:6px;"/><path d="M254.065,285.507c-81.488,32.471 -123.543,6.356 -163.242,87.233c-0.089,-0.251 -0.965,-2.741 -0.759,-3.244c17.811,-43.427 32.007,-51.154 48.499,-63.383c3.234,-1.886 21.746,-12.68 44.075,-15.712c2.812,-0.382 69.551,-4.988 71.427,-4.893Z" style="fill:none;stroke:#f615d4;stroke-width:6px;"/></g></g></svg>