<?xml version="1.0" encoding="UTF-8" standalone="no"?>
<!DOCTYPE svg PUBLIC "-//W3C//DTD SVG 1.1//EN" "http://www.w3.org/Graphics/SVG/1.1/DTD/svg11.dtd">
<svg width="100%" height="100%" viewBox="0 0 2000 2000" version="1.1" xmlns="http://www.w3.org/2000/svg" xmlns:xlink="http://www.w3.org/1999/xlink" xml:space="preserve" xmlns:serif="http://www.serif.com/" style="fill-rule:evenodd;clip-rule:evenodd;stroke-linejoin:round;stroke-miterlimit:2;">
    <g id="VGen" transform="matrix(6.501985,0,0,6.501985,-354.835402,-598.6665)">
        <path d="M354.956,213.504C352.219,248.215 302.002,226.796 321.588,201.569C329.663,191.17 353.071,190.432 354.956,213.504ZM80.496,239.956C49.363,233.701 66.112,209.323 67.742,207.755C91.4,184.99 118.122,236.874 80.496,239.956ZM214.499,334.034C205.414,333.528 170.893,331.605 123.975,265.163C114.22,251.348 131.573,223.017 152.918,250.176C206.833,318.775 226.061,300.501 221.984,296.049C219.643,293.492 183.822,263.637 204.97,226.772C230.634,182.036 295.462,207.167 300.727,253.484C302.392,268.133 263.445,308.08 263.261,308.258C235.962,334.739 219.791,333.344 214.499,334.034ZM265.064,254.424C263.712,234.584 244.106,232.091 236.586,238.611C219.82,253.147 242.874,270.291 247.864,275.059C250.119,277.215 262.859,260.517 265.064,254.424Z" style="fill:rgb(12,9,13);"/>
    </g>
</svg>
