<?xml version="1.0" encoding="UTF-8" standalone="no"?>
<!DOCTYPE svg PUBLIC "-//W3C//DTD SVG 1.1//EN" "http://www.w3.org/Graphics/SVG/1.1/DTD/svg11.dtd">
<svg width="100%" height="100%" viewBox="0 0 2000 2000" version="1.1" xmlns="http://www.w3.org/2000/svg" xmlns:xlink="http://www.w3.org/1999/xlink" xml:space="preserve" xmlns:serif="http://www.serif.com/" style="fill-rule:evenodd;clip-rule:evenodd;stroke-linejoin:round;stroke-miterlimit:2;">
    <g transform="matrix(5.080526,0,0,5.080526,-0.581828,4.91687)">
        <path d="M113.507,375.04C107.952,374.755 87.362,374.477 69.583,367.289C58.768,362.918 52.361,358.029 52.205,357.925C35.257,346.63 25.536,329.96 22.493,323.503C16.135,310.015 13.16,296.207 12.269,275.511C12.231,274.631 11.928,267.587 11.952,264.496C12.028,254.736 12.075,248.703 12.001,142.497C11.979,109.874 10.01,76.103 31.898,47.808C48.343,26.549 68.923,19.444 71.503,18.508C91.426,11.276 108.759,11.069 154.5,11.132C254.518,11.268 254.514,10.756 279.48,11.817C288.223,12.189 290.294,12.706 291.462,12.818C310.694,14.663 328.71,22.481 340.669,32.282C356.424,45.192 363.223,57.785 367.702,68.412C377.152,90.836 375.631,121.33 375.915,126.479C376.096,129.741 376.02,129.724 376.037,220.501C376.047,275.632 376.453,293.036 369.5,313.5C368.454,316.578 362.683,333.566 347.915,347.932C347.508,348.328 344.682,351.078 342.686,352.734C320.525,371.114 298.547,373.387 282.512,374.672C267.454,375.879 130.073,375.328 113.507,375.04ZM100.517,79.697C100.562,150.838 100.303,152.07 101.296,151.533C107.28,148.294 154.901,108.773 230.593,98.226C286.494,90.436 306.08,115.807 277.421,134.325C228.265,166.087 60.801,174.605 78.44,277.072C87.933,332.217 170.877,355.602 235.935,275.137C268.348,235.049 280.971,198.451 283.499,198.844C284.356,198.977 289.642,200.824 289.331,201.603C274.639,238.382 234.471,293.318 228.207,320.808C227.99,321.76 228.818,321.667 300.977,321.662C302.754,321.662 304.558,322.155 304.579,320.357C305.078,277.786 304.638,178.961 304.584,166.666C304.564,162.206 302.207,164.605 297.757,164.593C292.158,164.577 287.239,164.023 286.355,165.793C284.568,169.369 235.85,281.142 177.182,271.198C155.385,267.503 134.006,234.413 194.606,201.026C248.695,171.227 325.736,150.923 307.033,98.999C290.028,51.79 181.656,51.309 101.26,77.363C100.186,77.711 100.691,78.044 100.517,79.697Z" style="fill:rgb(144,217,94);fill-opacity:0;stroke:rgb(144,217,94);stroke-width:4.92px;"/>
    </g>
</svg>
