<?xml version="1.0" encoding="UTF-8" standalone="no"?>
<!DOCTYPE svg PUBLIC "-//W3C//DTD SVG 1.1//EN" "http://www.w3.org/Graphics/SVG/1.1/DTD/svg11.dtd">
<svg width="100%" height="100%" viewBox="0 0 2000 2000" version="1.1" xmlns="http://www.w3.org/2000/svg" xmlns:xlink="http://www.w3.org/1999/xlink" xml:space="preserve" xmlns:serif="http://www.serif.com/" style="fill-rule:evenodd;clip-rule:evenodd;stroke-linejoin:round;stroke-miterlimit:2;">
    <g id="Arrows">
        <g id="Arrow-Up" serif:id="Arrow Up" transform="matrix(0,-1.221274,-1.221274,-0,2040.530839,2209.869257)">
            <g transform="matrix(0,-5.203811,-5.203811,-0,1906.678286,2361.549892)">
                <path d="M17.961,174.5C18.472,168.947 18.164,168.845 18.512,168.512C19.331,167.726 332.115,167.926 357.459,168.36C370.632,168.586 336.28,166.121 297.944,120.135C270.082,86.714 257.875,36.326 256.545,24.496C255.994,19.597 270.234,19.795 271.487,19.812C273.928,19.846 277.404,48.336 288.971,73.283C334.256,170.948 426.235,167.575 444.477,167.766C446.265,167.785 446.409,169.825 446.214,183.473C446.174,186.311 428.793,183.33 405.446,188.228C290.075,212.43 277.403,310.902 272.966,331.696C272.611,333.362 258.712,330.755 257.492,330.526C255.407,330.135 258.041,317.547 258.272,316.443C281.872,203.659 373.902,183.6 358.494,184.537C335.989,185.905 47.531,184.95 20.491,184.861C16.73,184.848 18.468,182.89 17.961,174.5Z"/>
            </g>
        </g>
    </g>
</svg>
