<?xml version="1.0" encoding="UTF-8" standalone="no"?>
<!DOCTYPE svg PUBLIC "-//W3C//DTD SVG 1.1//EN" "http://www.w3.org/Graphics/SVG/1.1/DTD/svg11.dtd">
<svg width="100%" height="100%" viewBox="0 0 2000 2000" version="1.1" xmlns="http://www.w3.org/2000/svg" xmlns:xlink="http://www.w3.org/1999/xlink" xml:space="preserve" xmlns:serif="http://www.serif.com/" style="fill-rule:evenodd;clip-rule:evenodd;stroke-linejoin:round;stroke-miterlimit:2;">
    <g id="Artstation" transform="matrix(4.13037,0,0,4.13037,40.831951,154.049287)">
        <path d="M406.506,392.496C302.401,208.952 180.617,2.189 183.622,1.976C195.858,1.111 256.194,1.998 262.504,2.091C290.528,2.503 294.891,9.095 332.786,76.36C345.044,98.12 455.941,291.658 457.793,295.358C472.883,325.497 446.698,351.401 420.791,399.644C417.788,405.236 416.267,409.076 413.217,403.654C410.32,398.505 410.216,398.707 407.383,393.588L406.506,392.496ZM49.859,395.137C48.344,393.421 48.329,393.725 46.855,392.144C44.131,389.221 2.174,316.082 2.219,315.453C2.295,314.371 3.188,314.341 272.5,314.364C283.527,314.365 285.968,311.037 291.131,320.696C294.938,327.82 340.491,406.161 340.54,406.492C340.783,408.125 339.441,407.914 201.5,407.914C67.751,407.914 64.919,410.089 49.859,395.137ZM249.117,247.677C248.609,247.817 248.89,248.936 248.382,249.076C242.53,250.691 242.405,248.951 172.5,248.951C42.786,248.951 39.224,249.304 40.831,246.662C58.477,217.662 75.262,187.51 78.157,182.31C107.733,129.181 108.65,129.947 111.129,125.298C119.933,108.788 138.399,78.712 142.846,69.687C144.926,65.464 145.927,69.6 148.777,74.353C152.179,80.028 247.635,245.999 249.117,247.677Z" style="fill-opacity:1;"/>
    </g>
</svg>
