<?xml version="1.0" encoding="UTF-8" standalone="no"?>
<!DOCTYPE svg PUBLIC "-//W3C//DTD SVG 1.1//EN" "http://www.w3.org/Graphics/SVG/1.1/DTD/svg11.dtd">
<svg width="100%" height="100%" viewBox="0 0 145 176" version="1.1" xmlns="http://www.w3.org/2000/svg" xmlns:xlink="http://www.w3.org/1999/xlink" xml:space="preserve" xmlns:serif="http://www.serif.com/" style="fill-rule:evenodd;clip-rule:evenodd;stroke-linejoin:round;stroke-miterlimit:2;">
    <g transform="matrix(1,0,0,1,-2363,-1215.262324)">
        <g transform="matrix(0.54564,0,0,0.54564,2940.482751,1033.419864)">
            <g transform="matrix(0.71795,0,0,1,-285.984354,0)">
                <g transform="matrix(135.170319,0,0,135.170319,-776.081347,643.260045)">
                </g>
                <text x="-1013.949px" y="643.26px" style="font-family:'TimesNewRomanPSMT', 'Times New Roman', serif;font-size:135.17px;">©25</text>
            </g>
        </g>
        <g transform="matrix(1,0,0,1,1505,1197)">
            <g transform="matrix(0.7,0,0,1.144444,259.8,-3.466667)">
                <rect x="866" y="24" width="10" height="90"/>
            </g>
            <g transform="matrix(0.4,0,0,0.988889,530.6,0.266667)">
                <rect x="866" y="24" width="10" height="90"/>
            </g>
            <g transform="matrix(0.6,0,0,0.988889,368.4,0.266667)">
                <rect x="866" y="24" width="10" height="90"/>
            </g>
            <g transform="matrix(1.1,0,0,0.988889,-48.6,0.266667)">
                <rect x="866" y="24" width="10" height="90"/>
            </g>
            <g transform="matrix(0.4,0,0,0.988889,577.6,0.266667)">
                <rect x="866" y="24" width="10" height="90"/>
            </g>
            <g transform="matrix(0.7,0,0,0.988889,324.8,0.266667)">
                <rect x="866" y="24" width="10" height="90"/>
            </g>
            <g transform="matrix(0.7,0,0,0.988889,344.8,0.266667)">
                <rect x="866" y="24" width="10" height="90"/>
            </g>
            <g transform="matrix(0.2,0,0,0.988889,787.8,0.266667)">
                <rect x="866" y="24" width="10" height="90"/>
            </g>
            <g transform="matrix(0.2,0,0,0.988889,797.8,0.266667)">
                <rect x="866" y="24" width="10" height="90"/>
            </g>
            <g transform="matrix(-0.2,0,0,0.988889,1158.2,0.266667)">
                <rect x="866" y="24" width="10" height="90"/>
            </g>
            <g transform="matrix(-0.5,0,0,1.144444,1428,-3.466667)">
                <rect x="866" y="24" width="10" height="90"/>
            </g>
            <g transform="matrix(0.3,0,0,0.988889,638.2,0.266667)">
                <rect x="866" y="24" width="10" height="90"/>
            </g>
        </g>
    </g>
</svg>
