<?xml version="1.0" encoding="UTF-8" standalone="no"?><!DOCTYPE svg PUBLIC "-//W3C//DTD SVG 1.1//EN" "http://www.w3.org/Graphics/SVG/1.1/DTD/svg11.dtd"><svg width="100%" height="100%" viewBox="0 0 2000 2000" version="1.1" xmlns="http://www.w3.org/2000/svg" xmlns:xlink="http://www.w3.org/1999/xlink" xml:space="preserve" xmlns:serif="http://www.serif.com/" style="fill-rule:evenodd;clip-rule:evenodd;stroke-linejoin:round;stroke-miterlimit:2;"><g><path d="M189.829,724.761c3.238,-4.052 5.533,-4.936 1.258,-7.895c-45.832,-31.703 -103.617,-98 -124.281,-143.272c-18.776,-41.139 -24.626,-40.372 -20.768,-66.504c1.165,-7.899 10.784,-73.061 17.47,-98.27c6.545,-24.676 76.876,-97.137 99.995,-98.091c4.07,-0.167 18.844,-0.777 50.326,-7.855c89.36,-20.091 95.122,-3.51 97.404,-11.013c3.556,-11.698 -61.944,-2.738 -81.314,-2.148c-2.507,4.615 -3.371,3.932 -8.192,2.602c-4.269,2.292 -3.415,3.345 -7.873,4.227l-8.188,1.939c-2.865,1.111 -2.604,4.177 -4.392,1.702c-0.482,-0.669 1.73,-1.473 1.246,-2.142c2.907,-4.998 6.75,-5.725 17.1,-5.517c0.767,-0.293 5.826,-2.224 9.287,-4.377c5.942,-2.841 10.549,-5.044 81.304,-13.02c92.442,-10.422 97.026,-10.856 172.153,44.058c88.01,64.332 104.76,141.687 107.509,143.228c4.492,2.519 -0.098,4.984 3.273,8.797c4.297,4.86 7.837,3.415 6.027,9.751c-7.288,25.51 8.186,22.705 19.822,26.888c5.275,1.896 -15.149,6.682 -7.572,11.463c9.219,5.82 21.154,0.508 21.835,0.84c18.326,8.884 -45.718,2.226 -183.712,102.436c-14.352,10.42 -7.082,-17.126 -6.555,-24.985c2.533,-37.762 5.559,-37.471 4.104,-40.372c-9.671,-19.274 -1.264,-20.933 -7.401,-56.132c-2.72,-15.597 -7.684,-76.587 -15.206,-90.256c-7.869,-14.296 -20.132,-39.06 -20.672,-39.578c-9.912,-9.492 1.505,12.622 0.442,17.263c-0.221,0.966 -2.286,9.98 -4.261,11.64c-12.439,10.449 4.062,14.27 -1.754,40.633c-7.248,32.858 4.199,33.696 -3.11,66.476c-2.377,10.665 -3.007,66.777 -6.053,82.337c-16.27,83.118 -20.15,86.294 -26.014,91.094c-0.643,0.526 -7.122,17.803 9.185,4.868c2.097,-1.663 4.958,1.479 -0.575,5.794c-28.117,21.94 -27.03,22.81 -52.656,47.678c-70.442,68.36 -67.724,71.643 -71.038,72.139c-18.898,2.823 -20.415,3.785 -41.653,40.088c-0.474,0.804 -26.046,44.171 -9.05,7.357c3.958,-8.574 4.024,-8.464 4.323,-9.723c-10.169,3.261 -9.942,3.062 -19.85,6.364c-9.336,3.11 -8.056,-1.937 -12.883,-5.621c-21.974,-16.775 -53.894,-7.495 -75.514,-3.968c-18.022,7.998 -19.631,6.258 -31.058,22.623c-1.746,2.499 -35.564,17.486 -32.129,4.329c17.813,-68.236 66.504,-83.084 75.231,-85.746c7.363,-2.244 9.587,-5.089 3.387,-9.786c-38.837,-29.415 -90.401,-111.539 -83.723,-141.305c6.079,-27.089 6.346,-29.879 7.678,-27.977c4.898,6.993 1.057,8.741 7.029,15.053c3.277,3.463 4.719,1.758 44.118,40.044c1.039,1.006 2.616,1.31 8.719,7.622c1.577,1.631 -0.93,11.27 6.314,8.705c13.084,-4.633 21.164,19.79 36.478,20.085c6.18,0.121 18.016,9.812 51.996,20.955c-7.821,7.935 2.051,4.605 2.437,4.474Zm81.644,8.855c22.287,-14.736 23.121,-13.542 24.115,-15.616c4.984,-10.39 -47.281,22.761 -24.115,15.616Zm-67.567,94.302c-4.787,-1.115 -7.986,-4.157 -6.836,0.667c1.155,4.858 4.725,10.8 5.251,11.678c1.444,2.405 18.739,-4.689 1.585,-12.345Zm30.229,-75.195c-0.695,0.428 -44.191,32.937 -4.582,9.125c14.75,-8.867 11.343,-12.427 10.065,-12.608c-0.514,-0.072 -0.406,0.259 -5.482,3.484Zm-2.367,-56.743c0.442,-0.271 27.29,-21.572 1.989,-6.169c-0.444,0.269 -27.39,20.696 -1.989,6.169Zm93.133,-123.522c-10.862,13.088 23.284,-6.489 13.339,-6.694c-1.193,-0.024 -1.057,-0.022 -13.339,6.694Zm-234.382,268.351c-5.071,-5.31 -31.83,10.372 -10.571,4.57c5.721,-1.561 5.742,-0.846 10.571,-4.57Zm80.846,-213.884c8.651,-3.94 8.651,-4.492 8.649,-5.304c-0.012,-4.968 -25.337,4.677 -8.649,5.304Zm13.918,34.441c2.704,-3.216 5.115,-3.532 2.17,-5.187c-1.519,-0.854 -7.043,1.856 -7.612,2.136c-21.831,10.712 4.966,3.202 5.442,3.052Zm115.277,-117.407c-3.988,8.231 15.778,-2.334 7.714,-3.176c-0.663,-0.068 -0.571,0.237 -7.714,3.176Zm-189.295,13.442c-9.528,-12.524 -9.798,1.266 -9.814,2.069c-0.016,0.802 0.605,3.807 9.814,-2.069Zm124.43,71.948l5.249,-3.994c2.29,-4.382 -14.241,-0.623 -5.249,3.994Zm0.233,-113.996c1.276,-3.811 1.448,-3.54 1.276,-3.811c-1.027,-1.601 -10.487,2.859 -1.276,3.811Zm-115.934,68.62c-0.48,0.159 -5.498,1.838 -5.876,2.292c-2.17,2.606 -0.094,2.485 3.034,2.973c0.293,-0.378 0.159,-0.394 2.843,-5.265Zm164.034,-163.181c-4.621,5.229 2.608,3.68 2.66,2.089c0.008,-0.271 0,0 -2.66,-2.089Zm25.496,290.62c0.169,-2.959 0.327,-2.782 0.169,-2.959c-1.215,-1.366 -5.82,2.833 -0.169,2.959Zm622.454,-350.898c0.08,29.465 -0.733,30.767 -3.124,30.299c-6.268,-1.221 -19.426,-21.711 -20.795,-23.84c-20.421,-31.798 -55.913,-43.881 -61.739,-45.864c-20.083,-6.836 -13.9,-39.407 -41.838,-32.023c-13.633,3.604 14.221,18.76 12.415,37.198c-0.151,1.545 115.798,138.655 99.957,138.756c-52.116,0.327 -152.059,21.962 -161.067,14.464c-16.857,-14.032 -98.432,-38.455 -135.748,-71.378c-75.38,-66.504 -85.499,-117.879 -102.4,-130.692c-2.64,-2.001 -0.492,-2.871 -13.504,-39.132c-18.287,-50.971 -14.125,-54.231 -21.182,-56.668c-0.177,-0.062 -26.926,-2.728 -6.475,-12.701c14.782,-7.208 1.521,-12.383 -1.051,-57.522c-0.263,-4.633 -3.228,-33.119 -3.528,-35.998c-0.687,-6.613 -4.008,-6.196 -1.631,-12.387c4.576,-11.917 4.972,-16.562 -7.68,-17.12c-4.474,-0.199 8.209,-21.17 30.213,-12.506c80.3,31.621 97.719,-1.866 199.058,55.893c33.598,19.149 64.304,8.638 46.668,26.56c-2.497,2.539 61.769,49.523 77.638,54.581c6.39,2.035 18.954,2.596 15.875,11.111c-0.91,2.521 88.468,71.882 105.556,120.553c1.45,4.132 -1.248,3.727 -4.398,54.575c-8.14,-3.813 -12.668,0.864 -8.269,1.694c3.626,0.685 3.124,0.952 7.049,2.148Zm-399.41,-97.197c1.006,3.447 4.769,12.697 12.807,30.815c0.739,1.378 52.297,92.894 13.12,14.523c-0.46,-0.918 -21.249,-41.346 -25.469,-46.443c0.189,-0.621 0.352,-1.412 0.48,-2.399c-3.244,-4.132 -1.76,-7.465 -4.406,-7.526c-4.271,-0.094 0.922,15.374 3.467,11.029Zm360.698,0.4l-6.292,-6.248c-19.043,-6.531 12.341,22.197 14.953,25.632c57.534,75.623 -7.65,-18.02 -8.661,-19.384Zm-66.95,-63.495c-6.415,18.054 9.052,13.86 16.327,19.408c60.676,46.288 -14.782,-18.091 -16.327,-19.408Zm-340.466,-149.076c3.011,18.709 26.763,2.182 22.633,0.812c-12.791,-4.245 -15.762,-12.829 -22.633,-0.812Zm167.908,195.083c-0.701,0.269 -47.027,19.264 -6.288,6.981c0.719,-0.217 25.893,-7.807 6.288,-6.981Zm170.686,-48.442c-11.204,-5.84 -10.892,-6.192 -11.943,-6.465c-9.197,-2.387 -1.29,13.856 11.943,6.465Zm50.009,44.86c-7.917,-0.398 -5.77,2.75 -5.336,2.977c0.432,0.227 23.153,10.32 5.336,-2.977Zm-376.312,-158.727c-9.721,-3.867 -8.355,1.661 -7.853,2.071c3.208,2.616 3.289,0.536 7.853,-2.071Zm266.302,75.591c6.439,0.139 3.21,-2.722 2.943,-2.921c-2.555,-1.915 -2.312,-0.181 -2.943,2.921Zm15.756,12.046c1.513,-1.884 1.513,-1.692 1.513,-1.884c0,-1.933 -5.159,-0.269 -1.513,1.884Zm331.365,164.613c-26.05,23.537 -53.344,20.445 -111.926,79.018c-13.613,13.609 -13.89,26.667 -28.266,13.353c-19.78,-18.32 -22.842,-19.639 -17.353,-45.999c18.579,-89.233 20.214,-128.356 92.578,-191.698c114.962,-100.628 315.754,-148.553 360.495,-153.134c19.338,-1.979 18.713,-4.13 38.098,-6.161c3.19,-0.335 22.458,6.352 13.681,10.573c-1.465,0.703 -5.193,2.495 -6.766,19.127c-0.623,6.579 1.153,6.732 -2.479,12.156c-2.821,4.211 0.414,5.155 -12.879,62.036c-2.59,11.083 35.436,13.679 20.608,20.335c-14.149,6.35 -29.186,7.451 -32.844,17.715c-28.089,78.831 -46.405,85.603 -29.634,89.34c34.208,7.62 -37.455,8.496 -33.694,51.519c0.269,3.102 -4.747,-0.06 -25.365,29.519c-45.503,65.287 -69.226,75.607 -77.342,79.138c-132.749,57.749 -234.564,52.048 -227.384,43.835c79.922,-91.411 80.482,-91.584 90.493,-94.682c-10.4,-10.479 12.512,-20.485 23.613,-28.593c8.582,-6.266 -1.782,-14.274 -27.583,-4.57c2.656,-6.654 40.261,-42.58 8.036,-15.035c-1.133,0.968 -0.996,0.998 -14.085,12.206Zm287.315,-287.966c-35.864,8.974 -36.288,5.928 -72.137,15.334c-71.159,18.671 -351.061,146.522 -130.614,54c182.272,-76.499 186.952,-54.545 188.666,-53.888c14.181,5.43 25.723,-13.259 46.354,-6.523c5.961,1.947 11.2,-14.752 0.092,-13.205c-10.734,1.495 -29.771,3.948 -32.362,4.281Zm8.15,78.481c14.653,-0.386 17.303,-1.055 18.952,-15.389c0.424,-3.684 -2.794,-3.311 -44.564,12.783c-7.371,2.839 6.814,3.847 25.612,2.606Zm-283.119,244.189c1.579,-0.942 105.638,-64.672 15.756,-16.743c-2.965,1.581 -19.549,7.005 -15.756,16.743Zm59.877,-66.695l0.39,1.941c11.78,0.131 53.882,-26.363 25.811,-16.469c-14.368,5.065 -13.803,5.452 -26.201,14.529Zm-13.171,104.419l1.577,1.686c11.965,1.563 49.581,-23.047 34.07,-18.862c-3.056,0.826 -31.782,8.576 -35.647,17.176Zm43.401,-46.395c1.139,-0.448 11.819,-4.647 14.071,-5.955c13.058,-7.59 -7.252,-2.782 -17.604,2.837c-6.607,3.586 3.158,3.134 3.534,3.118Zm-44.677,52.508c-7.063,-2.123 -7.417,-4.237 -10.832,-1.203c-19.521,17.335 10.061,1.613 10.832,1.203Zm-132.689,-157.853c-13.384,-2.021 -14.647,10.965 -9.171,7.578c7.415,-4.586 6.599,-5.255 9.171,-7.578Zm388.333,-167.229c13.386,-0.261 2.72,-7.672 2.387,-7.558c-6.133,2.097 -8.403,5.069 -2.387,7.558Zm-181.928,154.755c3.548,2.166 4.082,2.447 6.865,-0.713c13.173,-14.955 -6.431,0.374 -6.865,0.713Zm96.614,-11.497c-4.102,9.96 4.301,2.644 4.251,1.004c-0.102,-3.24 -1.316,-1.951 -4.251,-1.004Zm-199.912,161.762c-3.419,-1.471 -4.018,-3.335 -6.021,-0.02c-0.251,0.414 -0.571,5.036 6.021,0.02Zm194.552,166.463c-36.83,11.708 -34.389,20.823 -53.902,19.37c-10.899,-0.812 -31.259,3.15 -33.939,3.672c-8.524,1.657 -18.042,10.003 -54.555,4.06c-33.704,-5.486 -52.492,-0.954 -38.714,-11.355c6.652,-5.022 -5.478,-5.46 -11.23,-1.201c-22.014,16.303 -39.018,-7.015 -62.992,6.997c-10.866,6.352 -24.827,-2.409 -43.791,12.644c-6.615,5.251 -200.26,12.247 -64.099,11.298c98.866,-0.687 104.696,-11.507 120.484,-19.153c3.048,-1.477 124.02,8.225 100.546,12.267c-58.615,10.089 -118.498,47.702 -130.608,49.008c-3.94,0.424 -10.404,5.852 -12.196,-4.918c-1.41,-8.468 -52.606,-21.456 -76.88,-0.727c-4.605,3.932 -32.884,18.727 -7.313,13.285c23.812,-5.069 25.369,-21.498 49.876,-8.056c15.045,8.253 25.968,9.056 14.053,21.329c-30.777,31.705 -29.984,37.065 -74.016,40.655c-44.036,3.588 -55.531,1.898 -60.307,1.197c-11.676,-1.718 2.971,15.342 5.85,15.437c70.43,2.318 163.279,-18.5 150.552,-5.042c-2.282,2.415 -35.098,37.119 -17.757,37.559c18.559,0.472 55.509,-57.984 63.493,-43.032c0.785,1.471 -5.02,8.767 0.558,10.356c31.643,9.018 96.353,-21.212 75.81,17.012c-5.229,9.731 -26.914,44.9 -5.507,39.956c5.052,-1.167 26.476,-43.522 28.475,-47.473c4.078,-8.064 38.706,-3.341 35.261,3.59c-40.299,81.075 -68.607,111.838 -76.322,120.219c-18.95,20.592 -36.173,31.737 -19.264,27.103c17.936,-4.916 90.009,-82.829 90.849,-62.633c0.125,2.967 -47.618,24.634 -6.515,23.328c7.757,-0.247 16.224,-4.235 9.96,0.779c-7.73,6.184 -51.27,32.481 -44.392,34.638c24.557,7.702 219.616,-107.392 199.9,-78.385c-5.372,7.903 -61.317,108.668 -62.408,112.328c-4.042,13.568 5.543,17.858 14.284,6.38c47.55,-62.43 39.936,-79.827 57.249,-87.405c42.316,-18.52 48.096,-26.078 59.439,-10.766c10.659,14.384 14.32,13.325 13.683,31.34c-2.859,80.971 43.787,60.799 41.483,74.281c-2.688,15.72 -35.645,128.936 18.316,117.29c14.211,-3.066 3.094,-11.296 20.383,-68.947c5.225,-17.424 -5.685,-10.503 -6.36,-9.852c-15.616,15.073 31.092,-196.919 -14.026,-207.976c-29.098,-7.132 -26.385,15.808 -34.299,12.697c-38.558,-15.164 -38.015,-15.503 -78.538,-25.445c-7.242,-1.778 0.46,-10.647 6.26,-9.36c31.741,7.055 69.162,17.906 65.636,8.96c-11.507,-29.2 -55.125,-23.416 -31.496,-30.217c32.473,-9.344 50.939,-39.62 68.802,-24.784c140.122,116.368 202.349,216.148 215.954,237.962c63.816,102.33 81.495,123.932 99.531,202.455c4.659,20.282 68.545,121.153 142.41,182.495c12.518,10.394 -3.829,15.981 -20.192,25.052c-90.186,49.983 -104.021,33.919 -106.589,51.758c-17.552,121.963 -68.069,166.887 -109.287,252.79c-30.341,63.232 -81.716,96.769 -148.531,180.695c-40.579,50.969 -85.171,125.684 -91.935,137.018c-6.509,10.907 -9.159,2.543 -16.393,-9.844c-63.696,-109.08 -22.918,-135.937 -35.884,-129.163c-11.676,6.099 -4.257,16.572 -78.09,57.012c-52.032,28.501 -80.368,21.689 -120.744,29.154c-0.878,0.161 -5.496,-0.93 2.839,-10.804c3.664,-4.341 46.31,-54.862 30.777,-64.007c-8.243,-4.852 7.437,-19.304 -1.384,-19.42c-64.955,-0.852 -234.227,70.747 -325.574,73.995c-163.87,5.83 -274.056,-61.63 -315.352,-67.563c-35.562,-5.109 -95.373,-20.903 -62.876,0.924c6.19,4.157 5.509,4.719 17.233,12.255c13.458,8.651 33.551,11.107 17.454,10.655c-65.184,-1.83 -66.349,2.17 -96.154,-12.178c-3.936,-1.894 -42.712,-11.547 -46.021,-9.062c-4.221,3.168 -12.59,18.561 -37.151,34.701c-17.357,11.405 -19.24,7.807 -35.856,20.586c-15.945,12.261 -17.757,6.286 -38.029,5.392c-10.949,-0.482 12.771,-15.117 19.378,-37.409c15.778,-53.249 14.888,-55.298 10.575,-57.002c-26.681,-10.533 -41.461,9.745 -45.489,13.494c-24.011,22.331 -22.789,24.953 -66.918,38.963c-1.814,0.575 -26.066,8.273 -23.754,-1.175c4.605,-18.816 0.187,-20.851 13.337,-34.735c17.13,-18.083 -8.715,-68.465 -11.441,-73.781c-18.691,-36.438 -25.662,-30.665 -53.715,-64.702c-31.862,-38.658 -115.185,-161.246 -139.419,-216.4c-53.167,-121.001 -63.179,-183.981 -44.589,-275.511c18.189,-89.553 156.334,-275.734 167.582,-280.674c49.048,-21.544 28.049,-45.521 168.231,-175.564c54.577,-50.629 203.368,-183.921 394.032,-219.525c6.732,-1.256 7.755,2.565 12.717,-2.453c0.014,-0.014 229.052,-35.735 338.805,-17.888c90.981,14.796 92.279,10.983 176.757,47.606c4.351,1.886 3.568,3.17 52.03,28.388c2.071,0.866 1.818,1.023 1.949,3.2Zm-132.279,1163.061c-12.558,7.811 10.39,12.325 7.208,8.323c-3.702,-4.657 -5.655,-2.873 -7.208,-8.323Zm-682.915,1.456c10.792,2.804 16.714,4.006 18.177,4.303c3.293,0.669 84.155,17.098 40.042,12.644c-7.037,-0.711 -30.882,-3.118 -88.345,-3.556c-24.212,-0.183 32.075,10.802 32.392,11.535c4.647,10.676 13.072,5.711 14.896,8.799c5.472,9.265 -75.639,-5.685 -32.997,4.613c145.014,35.024 307.919,-73.734 325.578,-200.053c23.428,-167.606 -58.163,-352.694 -275.633,-352.403c-142.239,0.193 -224.429,113.507 -244.856,191.722c-18.991,72.712 -15.72,90.794 8.484,168.484c12.707,40.788 67.671,102.436 88.157,116.017c3.184,2.109 59.314,-8.791 53.494,-10.935c-16.335,-6.019 -16.847,-4.096 -31.804,-12.538c-16.178,-9.131 -23.485,4.014 -28.278,2.557c-23.997,-7.284 -0.392,-13.026 2.166,-14.497c36.002,-20.702 36.474,7.357 100.377,16.59c22.45,3.244 -1.864,-6.764 -9.076,-15.415c-114.156,-136.906 -19.348,-360.266 137.671,-361.648c116.185,-1.023 150.797,68.298 157.116,80.948c5.342,10.7 25.048,50.163 12.506,148.983c-14.645,115.392 -87.246,165.262 -91.268,164.669c-14.177,-2.083 -41.242,26.448 -72.34,29.849c-43.837,4.797 -46.214,7.405 -82.578,-17.488c-13.197,-9.034 -13.516,2.282 -62.052,15.72c-23.043,6.38 4.918,6.009 28.173,11.097Zm64.238,2.983c-4.11,3.901 -3.692,-2.222 -2.003,-2.222c0.239,0 0,0 2.003,2.222Zm624.836,-5.926l0.579,4.94c18.81,9.456 20.678,13.307 37.82,1.428c64.16,-44.454 75.56,-35.026 71.764,-40.41c-1.294,-1.836 -33.043,1.242 -35.906,1.519c-17.257,1.673 -27.752,14.039 -64.3,0.408c-5.661,-2.111 -7.037,3.267 -35.898,-8.771c-71.687,-29.901 -75.936,-74.893 -103.732,-116.503c-20.302,-30.393 -20.025,-156.143 26.781,-206.65c23.258,-25.096 19.82,-30.297 70.713,-51.887c20.264,-8.598 112.242,-21.95 170.889,13.816c88.548,53.998 102.96,179.322 47.126,266.704c-21.928,34.315 -41.808,72.141 -77.168,87.463c-1.943,0.842 -3.052,4.801 1.818,3.375c0.806,-0.237 80.858,-35.556 47.96,-13.942c-45.786,30.082 61.588,-31.227 104.666,-34.18c1.965,-0.135 35.852,-2.457 23.444,7.517c-36.924,29.68 -34.007,32.529 -98.356,82.246c-0.556,0.43 -16.449,12.711 -3.568,8.054c0.808,-0.291 53.727,-14.533 10.28,3.04c-64.991,26.285 -71.685,18.42 -68.696,13.681c0.022,-0.036 101.452,-85.272 110.273,-92.687c33.501,-28.153 -219.025,92.315 -194.301,94.631c3.917,0.368 47.522,-28.423 106.293,-46.585c1.322,-0.41 33.24,0.078 2.377,17.15c-42.105,23.292 -44.428,26.331 -40.86,28.061c9.04,4.384 -15.543,12.048 -5.744,12.007c46.837,-0.193 104.529,-25.797 113.075,-29.59c12.924,-5.736 24.979,-5.571 49.42,-21.628c61.261,-40.243 115.227,-84.235 128.38,-184.238c16.771,-127.512 -22.697,-169.35 -58.47,-220.433c-1.29,-1.844 -83.108,-74.875 -174.053,-92.339c-77.682,-14.916 -104.365,3.783 -160.364,20.489c-84.763,25.287 -167.843,122.375 -164.026,233.986c0.1,2.933 3.542,2.294 6.005,36.193c0.072,0.972 0.362,0.639 1.933,12.028c1.904,13.814 4.705,14.529 -2.652,26.323c-1.292,2.069 9.984,52.192 33.618,88.444c1.828,2.804 4.064,5.322 5.989,8.062c2.127,3.031 -1.84,8.142 6.656,15.499c32.794,28.396 32.469,45.34 83.888,69.12c4.12,1.904 53.98,-20.425 51.148,-6.087c-0.378,1.911 -22.769,9.097 -24.798,9.747Zm-906.223,-926.764c-1.021,1.107 -20.453,10.979 -48.428,70.655c-25.391,54.163 -27.557,53.008 -36.33,84.442c-2.224,7.967 -2.819,7.646 -30.691,98.742c-17.303,56.554 -11.312,112.551 -10.268,122.315c2.363,22.1 6.666,39.516 21.683,26.735c15.75,-13.406 -23.842,52.094 4.373,176.148c3.453,15.184 4.709,29.069 12.512,15.626c5.742,-9.89 -3.168,-114.878 -3.544,-192.332c-0.428,-88.576 65.022,-215.749 48.325,-148.772c-10.659,42.768 -13.954,41.38 -28.983,82.632c-1.621,4.45 8.928,4.446 24.063,-38.067c28.523,-80.109 60.857,-59.74 71.022,-69.062c0.565,-0.518 34.932,-38.443 2.835,-9.157c-12.281,11.206 -23.041,-4.685 -48.066,22.185c-6.684,7.176 -19.155,32.38 -12.309,9.607c0.528,-1.762 13.408,-44.609 -11.829,-19.72c-34.279,33.805 -47.206,149.793 -46.529,108.073c0.104,-6.31 3.088,-5.957 9.133,-78.361c11.184,-133.987 17.548,-133.115 41.376,-188.646c32.499,-75.745 -26.835,72.262 -0.631,59.513c33.415,-16.258 34.64,-98.48 45.641,-132.01l-3.357,-0.544Zm-12.741,35.281c1.209,22.779 -55.148,171.032 -19.465,49.569c10.455,-35.588 11.204,-43.212 19.465,-49.569Zm-88.86,477.54c0.004,-5.95 0.028,-49.183 1.183,-74.363c4.08,-89.061 -0.765,33.18 7.417,108.567c11.085,102.123 -8.196,-31.412 -8.6,-34.204Zm-6.167,-111.388c-35.986,-66.052 32.9,-252.219 15.25,-185.992c-11.658,43.739 -0.133,123.255 -15.25,185.992Zm1104.345,409.648c16.861,-2.419 18.034,-1.688 27.217,-15.523c0.115,-0.171 13.205,-16.911 9.008,-33.642c-1.107,-4.414 -3.192,-12.721 -56.315,-8.018c-21.893,1.939 -31.064,32.344 -31.237,34.202c-2.706,28.863 18.404,27.245 51.327,22.98Zm-598.728,-48.028c-33.182,8.741 -59.541,-0.275 -70.95,48.882c-2.634,11.355 -0.723,38.767 26.657,31.908c2.819,-0.705 78.439,-4.229 66.564,-55.821c-1.989,-8.638 -13.213,-23.886 -22.271,-24.969Zm-399.692,-625.985c-7.636,3.116 -31.524,1.059 -37.461,60.355c-1.274,12.709 20.009,8.158 30.825,-10.418c60.174,-103.328 59.398,-103.895 150.609,-207.148c26.345,-29.825 30.488,-30.319 29.787,-27.169c-14.055,63.179 -77.69,157.226 -86.23,169.846c-3.735,5.519 -53.151,78.552 -37.479,74.391c15.111,-4.014 16.869,-7.363 84.565,-118.007c6.74,-11.015 61.522,-94.029 44.587,-56.116c-3.785,8.476 -36.543,94.211 -34.614,104.308c6.173,32.318 57.699,-42.525 61.219,-47.636c46.63,-67.734 106.331,-133.008 110.974,-120.824c2.373,6.232 1.567,47.608 56.108,8.761c8.022,-5.713 25.516,-31.733 94.941,-50.067c4.512,-1.191 89.175,-23.547 54.535,-20.768c-4.769,0.382 -64.58,18.565 -70.17,20.264c-105.044,31.936 -96.357,67.949 -110.05,56.815c-9.788,-7.957 2.77,-34.447 -28.875,-23.595c-69.184,23.728 -165.461,206.538 -147.123,154.729c3.427,-9.681 4.496,-9.223 44.175,-120.529c6.384,-17.912 -17.568,-7.359 -30.809,10.933c-26.381,36.438 31.81,-61.032 3.439,-54.175c-13.663,3.305 -34.98,8.458 -126.359,122.114c-29.098,36.193 -27.014,37.105 -51.905,76.597c-3.946,6.595 -25.825,48.096 -21.134,29.513c4.167,-16.501 16.07,-26.562 16.447,-32.173Zm217.382,795.57c-47.347,-2.931 -46.742,-6.7 -50.844,-6.636c-26.339,0.416 53.522,20.493 50.844,6.636Zm681.527,-642.81c-0.398,-6.35 -3.835,-61.335 -12.693,-78.52c-1.822,-3.536 -28.587,-39.898 -30.765,-41.579c-22.669,-17.488 -18.962,-21.468 -42.463,-37.605c-78.319,-53.783 -116.74,-118.749 -134.611,-142.959c-8.305,-11.248 -5.736,22.956 -123.323,100.7c-47.337,31.297 -46.768,41.463 -61.299,52.811c-66.07,51.592 -49.209,91.067 -58.527,122.821c-15.746,53.671 -13.261,61.044 -17.172,58.109c-59.378,-44.572 -48.693,-118.958 -49.187,-124.06c-0.225,-2.334 -3.174,-1.786 -19.569,21.817c-28.155,40.539 -44.824,124.665 -45.943,136.771c-1.846,19.971 7.248,16.064 48.647,35.259c5.159,2.395 63.005,29.218 64.045,30.886c20.57,32.997 103.81,65.365 140.972,202.889c3.97,14.689 27.872,-12.701 149.998,3.009c11.184,1.438 7.614,-12.753 10.175,-22.93c18.96,-75.307 54.37,-101.538 75.944,-124.918c125.037,-135.485 302.495,-86.081 264.978,-113.477c-20.491,-14.963 -33.276,-39.086 -70.088,-74.64c-13.653,-13.189 -28.28,47.879 -91.568,74.912c-8.02,3.427 -23.394,13.633 -18.756,5.008c20.933,-38.921 16.301,-40.273 21.204,-84.303Zm-152.644,52.307c-1.555,14.123 -7.499,1.738 -11.019,1.814c-0.261,0.004 -0.135,-0.024 -34.809,45.818c-9.912,13.102 0.49,26.93 -15.435,23.103c-8.283,-1.991 -20.142,50.043 -37.386,29.039c-12.682,-15.445 -8.315,-20.118 -26.446,-28.011c-1.446,-0.631 11.756,-7.614 -8.245,-17.906c-0.687,-0.354 -1.834,-12.763 -10.033,-16.206c-4.38,-1.84 -22.591,0.35 -10.909,-8.192c10.808,-7.903 -39.01,-36.081 -43.024,-38.349c-20.218,-11.435 19.075,-42.871 21.787,-61.409c0.484,-3.311 21.474,-9.378 19.31,-20.011c-1.205,-5.922 9.231,-6.409 16.086,-14.675c32.179,-38.815 24.137,-53.221 48.592,-50.812c10.4,1.025 5.454,10.519 26.408,16.879c5.957,1.808 -7.833,14.372 17.496,24.949c3.176,1.326 -6.097,8.213 25.136,34.907c37.346,31.918 36.689,37.8 26.036,55.077c-1.019,1.651 -0.113,1.766 -3.546,23.985Zm-91.839,-142.133c-5.764,-1.513 -4.59,1.346 -4.448,1.7c1.037,2.527 10.79,6.268 4.448,-1.7Zm76.806,95.851c12.138,4.193 -1.535,-10.637 -2.537,-6.489l2.537,6.489Zm-34.068,65.793c7.489,-3.419 -0.796,-5.085 -1.84,-3.381c-0.161,0.263 0,0 1.84,3.381Zm20.077,-84.291c8.184,-4.146 -11.419,-12.096 -6.451,-5.444c0.404,0.542 0.476,0.404 6.451,5.444Zm-278.255,34.616c4.142,18.476 6.037,17.47 10.569,36.099c0.888,3.646 -23.063,-11.244 -20.885,-23.993c0.378,-2.204 8.697,-50.879 9.512,-26.291c0.245,7.385 0.396,7.003 0.804,14.185Zm619.356,505.603c0.635,-0.731 34.293,-39.506 4.478,-11.232c-0.729,0.691 -0.492,0.749 -7.763,9.884l-2.324,5.922c3.019,3.624 2.658,-0.143 5.609,-4.574Zm-799.775,177.978c0.416,0.147 61.44,9.364 66.783,10.171c47.831,7.224 184.646,91.029 375.683,56.588c18.06,-3.256 16.23,-9.498 222.963,-53.922c27.954,-6.007 103.36,-7.749 54.215,-14.93c-65.301,-9.547 -102.139,-39.462 -126.21,-45.677c-1.963,-0.506 -0.297,-2.182 -20.174,-15.326c-34.403,-22.753 -83.024,-92.532 -93.129,-120.093c-47.009,-128.201 -17.548,-140.228 -31.788,-146.247c-9.641,-4.074 -57.562,-24.328 -130.407,-10.808c-22.874,4.245 -13.838,13.213 -13.84,36.31c-0.008,114.45 -40.952,171.805 -120.697,241.104c-68.786,59.78 -171.184,58.832 -186.852,58.687c-19.529,-0.181 -19.985,1.722 -19.316,3.138c1.298,2.74 2.154,1.308 22.767,1.006Zm473.482,-40.739c-19.595,66.729 -107.123,78.616 -132.86,55.581c-22.765,-20.375 -20.728,-26.193 -38.288,-40.052c-6.646,-5.245 -31.119,-49.804 7.357,-34.998c2.469,0.95 15.718,15.081 64.531,20.156c6.461,0.671 5.557,-3.887 20.059,-3.403c17.956,0.603 40.247,-35.116 42.696,-39.044c1.724,-2.758 19.121,2.78 19.702,5.535c3.851,18.261 16.512,13.476 16.803,36.225Zm-137.649,34.375c-14.153,-13.058 -14.113,-13.343 -15.756,-13.615c-10.627,-1.75 35.603,39.305 15.756,13.615Zm382.296,-39.839c-5.675,2.385 -7.19,7.108 -2.258,5.732c1.593,-0.446 22.187,-6.198 17.183,-11.483c-1.575,-1.663 -1.776,-0.44 -14.924,5.752Zm-710.313,-591.337c0.731,4.229 20.445,19.643 18.251,0.167c-4.49,-39.88 31.078,-46.929 20.369,-51.562c-0.707,-0.305 -31.902,22.43 -38.62,51.395Zm-53.972,538.162c-14.468,-10.858 -64.234,-0.022 -69.682,1.165c-0.958,0.209 -27.245,2.728 -17.48,8.341c12.162,6.991 21.064,24.375 87.162,-9.506Zm107.921,-300.986c-1.231,-19.418 2.298,-20.037 -5.643,-37.838c-9.088,-20.371 -62.45,-6.68 -72.868,2.571c-42.302,37.561 -45.404,43.417 -45.328,81.493c0.102,51.867 18.85,47.481 58.768,40.92c65.439,-10.752 63.364,-63.015 65.072,-87.146Zm645.022,-14.03c-3.956,-19.947 -2.754,-20.308 -14.364,-36.792c-14.878,-21.128 -21.024,-7.728 -53.044,-12.536c-18.382,-2.76 -60.162,25.907 -75.388,46.073c-29.957,39.677 -27.786,102.506 7.403,114.851c13.143,4.613 153.628,-26.171 135.393,-111.597Zm-201.903,-824.125c9.482,-5.225 -1.487,-3.345 -1.782,-3.295c-103.84,13.141 -112.437,23.326 -117.268,24.841c-161.053,50.517 44.751,-6.324 48.536,-7.369c12.948,-3.576 43.771,7.397 26.974,-3.921c-3.755,-2.531 34.441,-9.326 43.54,-10.256Zm-124.912,72.003c0.327,0.012 18.723,-2.188 2.356,-3.343c-45.597,-7.288 -45.651,-7.009 -80.571,-2.748c-26.016,3.174 5.537,6.184 6.24,6.25c36.195,3.453 36.29,7.706 71.974,-0.159Zm-136.54,-63.959c27.087,-11.222 28.935,-9.171 28.969,-11.668c0.123,-9.209 -56.1,8.321 -59.961,22.343c-1.627,5.91 22.751,17.058 11.013,3.837c-1.312,-1.477 -1.422,-3.307 19.979,-14.513Zm5.876,341.567c-74.887,72.495 76.541,-56.576 58.553,-52.046c-3.692,0.93 -53.966,47.775 -58.553,52.046Zm126.865,-229.536c-19.571,6.607 -24.431,18.587 -13.982,17.241c7.184,-0.926 39.932,-22.906 13.982,-17.241Zm-44.13,177.119c5.261,-2.985 21.592,-18.494 23.384,-20.198c49.77,-47.264 -24.598,8.227 -23.384,20.198Zm-127.586,-237.443c12.6,3.779 50.268,-13.801 27.127,-9.434c-27.133,5.121 -27.129,7.136 -27.127,9.434Zm442.506,-71c-15.937,-8.466 -39.598,2.525 -23.531,2.658c11.262,0.094 10.846,0.153 21.861,0.307l1.669,-2.965Zm321.841,353.99c-13.651,-1.348 -47.431,-50.314 -47.07,-53.024c7.076,-52.998 22.366,-47.319 23.448,-56.19c3.522,-28.856 27.412,-25.216 31.217,0.068c4.896,32.539 -1.85,107.207 -1.904,108.17c0.036,1.324 0.418,15.698 -1.276,17.331c0.271,24.045 -3.652,105.683 -3.837,109.52c-2.861,59.533 -5.346,-11.097 -5.304,-12.158c2.875,-53.084 2.724,-52.988 3.566,-62.265c1.816,-19.985 3.1,-31.777 3.974,-37.473c-1.294,-4.373 -2.658,-12.982 -2.815,-13.978Zm-309.285,-245.925c-16.771,-0.781 -16.809,-2.865 -16.072,-3.964c0.683,-1.017 46.883,-32.406 50.983,-35.191c5.428,-3.688 6.358,-6.551 53.755,6.672c4.414,1.231 -2.845,0.633 -42.933,37.911c-1.714,1.593 -17.126,1.621 -17.753,0.822c-7.325,-9.311 -9.125,-8.912 -19.75,-3.929c-5.207,4.832 -8.833,4.454 -8.231,-2.32Zm277.086,-99.047l2.067,0.221c17.626,-1.091 -16.272,-7.439 -22.179,-9.201c-12.186,-3.632 -17.616,-2.081 -14.906,-14.593c11.208,-51.74 17.446,-61.572 68.812,-85.119c16.152,-7.405 -6.264,-7.971 -5.571,-13.211c0.715,-5.412 45.583,-33.668 36.006,-37.804c-18.306,-7.905 -18.089,1.027 -67.734,28.491c-30.048,16.622 -73.634,74.942 -81.909,100.023c-7.011,21.249 -1.376,27.746 -23.157,33.67c-15.107,4.11 11.959,-0.426 11.738,4.128c-0.261,5.422 -0.255,16.051 -5.3,13.548c-7.459,-3.702 -6.266,-5.424 -92.062,-48.598c-13.01,-6.547 14.105,-15.991 1.477,-23.179c-4.98,-2.835 20.413,-65.166 31.599,-73.154c7.421,-5.298 -1.647,-11.704 63.911,-94.38c16.618,-20.957 70.154,-64.678 85.32,-64.425c112.897,1.892 144.861,4.241 196.7,29.349c5.358,2.596 106.058,18.685 132.261,44.277c13.731,13.412 -100.238,-38.282 -66.05,-18.241c10.645,6.24 41.88,15.947 62.07,30.522c10.678,7.708 26.299,5.073 31.317,31.48c5.846,30.761 44.47,158.353 -65.128,255.142c-10.183,8.994 -11.584,1.284 -73.959,-22.787c-40.818,-15.752 -128.438,-57.221 -176.964,-55.224c-17.259,0.711 26.177,-1.077 202.474,75.036c2.344,1.01 28.123,12.142 28.109,15.123c-0.018,3.765 4.687,28.274 46.314,-8.287c7.69,-6.754 8.11,-7.584 18.143,-4.976c21.504,5.589 66.574,-183.555 65.869,-135.29c-0.197,13.46 5.844,13.114 -0.356,74.21c-6.059,59.738 -21.458,94.702 -90.21,180.253c-16.656,20.724 -59.656,38.63 -56.765,44.414c5.362,10.732 38.56,30.259 27.822,31.281c-5.521,0.526 -8.793,1.579 -4.594,5.36c23.643,21.287 -23.3,7.305 -42.087,4.12c-52.962,-8.978 -29.672,-43.922 -232.899,-205.27c-23.434,-18.605 -29.911,-14.85 -36.225,-44.076c-0.717,-3.325 1.561,-2.682 6.682,-41.991c0.966,-7.415 4.072,-4.382 11.308,-3.23c14.151,2.252 13.816,2.859 28.055,2.389Zm-117.547,-23.143c2.555,-1.738 1.679,-2.708 -1.193,-3.341c-17.578,-3.463 -16.108,3.612 -15.081,4.337c7.976,5.639 15.256,-0.183 16.274,-0.996Zm21.53,-85.625c-0.773,-0.229 -23.581,-6.965 -9.816,2.32c4.958,3.345 4.046,4.878 -0.406,8.771c-24.214,21.186 19.967,-3.759 21.5,-4.625c4.542,-2.565 -10.268,-6.218 -11.278,-6.467Zm88.291,-94.929c-0.5,0.358 -31.727,22.88 -2.252,7.361c25.568,-13.462 57.285,-29.493 30.245,-19.605c-14.458,5.288 -13.98,5.47 -27.993,12.245Zm-50.057,34.132c10.676,-5.963 11.186,-5.782 11.244,-6.832c0.683,-12.415 -23.708,9.123 -25.355,10.577c-20.493,18.099 13.122,-3.122 14.111,-3.745Zm-72.802,247.51c-1.866,-0.753 -29.529,-11.947 -17.518,-18.04c36.022,-18.281 37.29,-21.02 47.588,-14.744c13.528,8.249 1.448,20.983 14.266,21.683c16.907,0.922 16.793,-0.655 18.217,-0.35c2.16,0.462 75.747,57.233 79.705,61.267c4.363,4.448 -10.872,7.128 -11.345,6.873c-2.356,-1.272 1.031,-14.499 -38.393,-7.694c-16.371,2.825 -65.942,-39.49 -92.52,-48.994Zm-56.096,112.615c6.692,0.715 13.376,0.625 7.351,4.004c-67.523,37.853 -120.609,86.411 -130.123,95.114c-18.806,17.203 5.213,-11.148 5.902,-11.963c10.971,-12.948 42.778,-73.789 46.214,-80.362c8.673,-16.588 13.181,-12.114 52.6,-8.721c12.703,1.095 12.339,0.775 18.056,1.929Zm-218.302,-94.804c10.814,-4.277 123.301,-48.761 138.059,-45.476c6.364,1.416 17.178,1.657 9.506,5.983c-48.544,27.362 -45.159,46.652 -77.991,41.754c-8.219,-1.225 -69.767,2.883 -69.574,-2.26Zm260.568,154.946c-28.662,5.474 -62.157,15.206 -36.683,0.372c40.962,-23.858 39.373,-25.907 80.683,-49.719c8.673,-4.998 16.54,31.179 -9.97,40.318c-16.968,5.848 -16.799,4.807 -34.03,9.03Zm17.976,-102.191c-2.383,-0.119 -28.119,1.517 -16.706,-9.89c11.76,-11.754 7.994,-26.725 14.77,-26.615c32.627,0.534 33.453,-0.548 61.626,16.003c5.882,3.457 -6.567,8.904 -7.439,9.285c-24.776,10.844 -25.094,8.729 -52.251,11.216Zm-0.245,60.748c-4.938,3.122 -4.52,2.895 -9.382,5.123c-33.109,15.186 -67.565,48.195 -92.811,51.57c-0.775,0.104 -15.804,2.113 -9.639,-1.692c8.628,-5.328 80.484,-49.689 112.159,-59.089l5.991,-3.218c3.259,-1.055 2.768,3.409 -6.318,7.307Zm20.568,-27.695c-1.079,1.073 -1.633,1.621 -16.604,9.255c-0.952,0.486 -1.031,0.225 -21.767,-2.218c-21.604,-2.545 17.199,-15.965 18.155,-15.8c8.305,1.424 19.473,6.212 20.214,6.427c2.168,1.25 4.964,0.193 2.857,1.647c-1.25,0.866 -1.456,-0.277 -2.855,0.689Zm122.516,305.018c-10.376,-36.715 2.529,-89.906 4.932,-91.188c4.185,8.988 -7.439,48.038 -1.892,85.388c0.54,3.648 -0.225,3.439 -0.317,4.821l0.816,3.132c0.036,0.936 3.056,5.077 -1.993,2.435l-1.545,-4.588Zm-293.647,-167.972c-7.069,1.778 -0.311,-2.525 -0.133,-2.64c4.639,-5.093 39.506,-27.336 42.457,-28.049c12.958,-3.142 12.909,-2.377 24.991,-7.742c0.404,0.012 0.723,0.428 1.127,0.44c6.26,0.177 -1.248,3.518 -68.443,37.991Zm-117.081,-201.501c-13.848,15.455 -17.448,11.075 -35.072,-0.434c-6.991,-4.562 5.048,-1.939 11.481,-3.915c9.293,-2.855 9.263,-1.9 18.054,1.087c8.08,-4.396 8.251,-6.654 11.762,-3.923c0.601,0.466 2.087,1.621 -6.226,7.186Zm765.529,-212.659c-0.621,-17.47 -0.846,-17.191 -5.143,-34.359c-0.715,-2.857 13.998,-0.966 9.185,33.911c-0.48,8.757 -3.234,6.917 -3.739,6.581c-0.836,-0.558 -0.35,-5.645 -0.303,-6.133Zm-708.681,242.008c-11.198,-0.466 -10.892,-1.569 -22.016,0.972c-5.894,1.346 1.193,-4.152 1.485,-4.38c9.997,-7.757 11.292,-5.482 22.269,0.448c1.246,2.055 4.122,2.208 1.71,2.823c-1.808,0.462 -1.581,-0.34 -3.447,0.137Zm102.026,108.796c-24.258,14.507 -26.944,14.35 -29.564,14.197c-10.541,-0.615 21.701,-14.036 27.981,-17.02l5.233,-0.269l-3.65,3.092Zm72.935,-199.581c-10.294,-2.234 -39.096,-18.392 -35.864,-20.455c1.81,-1.155 41.77,-18.291 46.236,-19.537c4.478,-1.248 38.749,17.1 29.959,21.441c-39.335,19.433 -39.801,18.354 -40.332,18.551Zm18.571,55.22c-8.552,35.291 -20.138,30.562 -60.945,20.732c-25.305,-6.097 -6.509,-21.466 -3.851,-21.502c6.296,-0.084 44.058,0.11 64.797,0.769Zm62.707,93.187c30.038,3.178 69.741,18.356 75.283,23.617c5.758,5.464 -8.407,17.53 -36.235,25.447c-4.729,1.346 -13.617,-14.055 -13.578,-15.407c0.048,-1.71 28.939,-10.296 29.037,-10.461c1.473,-2.435 -0.613,-6.409 -35.568,-0.39c-6.218,1.071 -6.421,-7.827 -13.95,-8.47c-9.892,-0.844 -7.007,-4.769 -4.988,-14.338Zm-171.64,49.5c2.433,-4.291 2.389,-4.759 68.073,-48.197c20.674,-13.671 21.638,-11.893 46.525,-10.621c10.292,0.524 -0.86,7.945 -114.598,58.818Zm108.877,-146.169c-49.605,-7.704 -78.05,2.451 -58.052,-13.524c26.829,-21.433 35.795,-30.821 54.595,-2.206c4.609,7.015 4.159,7.146 3.457,15.73Zm129.468,201.196c30.785,41.876 42.069,41.686 31.002,63.943c-3.078,6.192 -32.573,-13.281 -33.461,-44.474c-0.516,-18.145 -0.725,-19.617 2.459,-19.469Zm-286.783,-184.471c13.357,2.16 23.302,-0.293 15.786,10.895c-19.513,29.051 -59.346,-2.827 -57.277,-5.386c11.198,-13.858 30.321,-8.331 41.491,-5.509Zm-140.522,26.247c-37.869,4.95 -39.207,4.114 -39.978,1.01c-0.01,-0.034 35.974,-29.859 40.163,-31.743c2.136,-0.96 24.308,9.741 14.165,17.952c-0.516,0.418 -5.298,4.287 -3.664,7.449c3.978,7.708 -2.302,4.844 -10.686,5.332Zm239.064,31.982c-6.575,-0.639 -6.378,-0.502 -26.1,-1.567c-66.552,-3.596 16.518,-6.039 18.04,-6.085c22.546,-0.663 88.476,-14.288 71.796,-3.853c-28.993,18.135 -30.407,17.263 -63.736,11.505Zm122.449,60.397c14.796,-3.206 15.585,-1.151 24.107,11.073c4.394,6.304 -45.794,22.528 -45.165,20.055c5.087,-20.027 1.157,-25.142 21.058,-31.129Zm-22.428,-137.207l-0.321,1.603l-1.436,1.316c-19.551,-3.469 -25.966,1.4 -30.373,-9.221c-5.103,-12.301 -44.251,-40.92 -20.007,-27.31c4.327,2.429 2.24,5.525 52.138,33.612Zm-142.432,30.395c7.286,4.458 7.076,9.798 -1.782,9.894c-29.907,0.323 -31.295,-2.415 -30.174,-4.584c8.653,-16.749 13.428,-9.468 31.956,-5.31Zm-17.699,152.81c-1.071,0.259 -24.435,5.91 -13.779,-0.219c43.946,-25.277 50.587,-17.468 47.522,-14.92c-12.584,10.447 -30.853,14.499 -33.742,15.139Zm50.003,-11.584c-0.416,0.127 -20.296,6.119 -4.12,-3.54c3.861,-2.306 8.339,-4.98 54.428,-14.111c6.967,-1.378 -6.322,9.06 -24.097,12.461c-13.48,2.579 -13.024,2.577 -26.211,5.189Zm-162.66,-114.725c7.202,1.535 92.054,-5.057 26.134,5.059c-36.975,5.673 -40.309,4.044 -38.108,1.931c5.239,-5.028 4.462,-6.031 11.973,-6.989Zm156.696,-0.173c1.653,-0.036 112.24,0.257 20.077,4.97c-3.086,0.159 -63.597,3.252 -38.178,-5.938c1.364,-0.492 2.278,-0.824 18.101,0.968Zm170.76,-11.897c-5.728,0.113 -53.757,3.029 -24.057,-4.992c10.115,-2.73 15.879,-12.351 30.209,-2.278c9.094,6.392 -5.39,7.226 -6.151,7.27Zm19.758,106.802c7.797,-2.857 7.716,-2.941 8.419,-3.086c2.005,-0.412 2.965,0.982 -3.009,25.405c-1.274,5.211 -12.453,-11.216 -14.458,-14.069c-4.231,-6.029 1.404,-4.55 9.048,-8.251Zm-252.796,-86.712c-6.459,-0.846 -9.88,-1.537 -5.872,-6.997c2.051,-2.794 29.473,-2.676 32.047,-2.664c5.661,0.024 3.759,7.329 -2.117,7.732c-1.927,0.131 -15.605,1.067 -24.057,1.929Zm56.869,-122.931c21.787,-7.574 20.995,1.155 43.741,11.154c20.031,8.805 -43.841,-7.013 -43.741,-11.154Zm-157.051,89.977c11.688,-13.04 12.926,-10.615 13.785,-10.27c7.897,3.186 5.059,7.134 -7.927,18.165c-0.599,0.51 -22.53,9.245 -5.858,-7.895Zm359.169,5.42c-8.733,4.213 -21.343,-9.561 -5.936,-12.329c29.503,-5.302 6.865,11.75 5.936,12.329Zm-327.661,-20.122c-11.109,9.422 -15.342,-2.879 -15.113,-2.999c1.507,-0.8 14.179,-7.511 20.971,-3.867c0.637,0.342 1.985,1.696 -5.858,6.867Zm-77.622,48.944c-0.603,0.621 -42.361,41.121 -10.075,3.932c0.567,-0.653 39.436,-42.497 10.075,-3.932Zm-24.045,-324.441c0.317,-4.014 1.677,-3.146 23.667,-17.49c21.97,-14.328 -13.028,18.45 -23.667,17.49Zm228.612,298.814c-13.07,-2.977 -0.36,-5.468 0.068,-5.406c14.75,2.162 14.754,3.335 14.76,4.57c0.008,2.166 -4.87,1.696 -14.828,0.836Zm-88.458,24.672c-0.97,0 -22.39,0.03 -11.756,-2.969c0.934,-0.263 62.237,-15.374 11.756,2.969Zm-84.113,-39.283c7.763,-4.227 7.682,-5.633 9.645,-4.03c4.446,3.632 -23.165,20.971 -9.645,4.03Zm-677.834,-46.62c-0.098,0.53 -10.447,33.73 -5.294,4.14c0.09,-0.53 6.22,-32.816 5.294,-4.14Zm812.206,94.282c-0.982,-0.028 -26.803,-0.773 -11.839,-3.349c0.97,-0.167 26.554,-4.568 11.839,3.349Zm-134.871,-368.31c-15.979,0.8 6.742,-10.533 7.013,-7.469c0.348,3.909 -1.199,2.881 -7.013,7.469Zm150.946,305.552c-12.06,-3.048 0.593,-6.445 3.616,-4.524c0.392,0.247 3.267,2.073 -3.616,4.524Zm162.481,111.05c3.335,-2.457 4.108,-3.08 5.868,0.374c1.426,2.802 -10.635,11.274 -5.868,-0.374Zm-323.354,-78.927c-7.702,-2.007 1.477,-7.542 3.098,-3.463c0.139,0.346 0,0 -3.098,3.463Zm-41.414,-101.9c4.938,-12.867 8.367,-4.171 8.518,-3.449c0.607,2.923 -1.187,1.806 -8.518,3.449Zm-648.696,63.276c4.95,-2.282 4.592,-2.531 4.95,-2.282c3.479,2.419 -8.769,11.375 -4.95,2.282Zm720.223,0.886l4.116,0.398c2.481,3.678 -7.722,4.144 -4.116,-0.398Zm128.769,-64.105c-2.837,-1.808 -3.676,-3.498 -0.113,-4.185c0.329,-0.064 7.061,0.121 0.113,4.185Zm15.937,72.286c2.798,0.398 4.729,-0.828 3.471,2.021c-3.009,6.824 -3.455,-1.7 -3.471,-2.021Zm-222.878,-272.019c-0.84,7.755 -3.98,3.401 -3.978,3.003c0.002,-0.398 0,0 3.978,-3.003Zm474.447,545.328c0.223,-2.792 -1.129,-3.923 1.688,-3.929c5.88,-0.012 -1.384,3.771 -1.688,3.929Zm-120.362,-285.455c2.961,2.34 2.967,2.039 2.961,2.34c-0.052,3.029 -0.645,-0.51 -2.961,-2.34Z" style="fill:#ff026c;"/></g></svg>