<?xml version="1.0" encoding="UTF-8" standalone="no"?>
<!DOCTYPE svg PUBLIC "-//W3C//DTD SVG 1.1//EN" "http://www.w3.org/Graphics/SVG/1.1/DTD/svg11.dtd">
<svg width="100%" height="100%" viewBox="0 0 2000 2000" version="1.1" xmlns="http://www.w3.org/2000/svg" xmlns:xlink="http://www.w3.org/1999/xlink" xml:space="preserve" xmlns:serif="http://www.serif.com/" style="fill-rule:evenodd;clip-rule:evenodd;stroke-linejoin:round;stroke-miterlimit:2;">
    <g transform="matrix(2.008945,0,0,2.008945,-32.380227,-18.163294)">
        <path d="M110.61,369.808C112.222,367.791 113.364,367.351 111.236,365.878C88.422,350.097 59.658,317.096 49.372,294.561C40.026,274.083 37.114,274.465 39.034,261.457C39.614,257.525 44.402,225.089 47.73,212.541C50.988,200.258 85.997,164.189 97.505,163.714C99.531,163.631 106.885,163.327 122.556,159.804C167.037,149.803 169.905,158.057 171.041,154.322C172.811,148.499 140.207,152.959 130.565,153.253C129.317,155.55 128.887,155.21 126.487,154.548C124.362,155.689 124.787,156.213 122.568,156.652L118.492,157.617C117.066,158.17 117.196,159.696 116.306,158.464C116.066,158.131 117.167,157.731 116.926,157.398C118.373,154.91 120.286,154.548 125.438,154.652C125.82,154.506 128.338,153.545 130.061,152.473C133.019,151.059 135.312,149.962 170.532,145.992C216.547,140.804 218.829,140.588 256.225,167.923C300.034,199.946 308.372,238.451 309.74,239.218C311.976,240.472 309.691,241.699 311.369,243.597C313.508,246.016 315.27,245.297 314.369,248.451C310.741,261.149 318.444,259.753 324.236,261.835C326.862,262.779 316.695,265.161 320.467,267.541C325.056,270.438 330.997,267.794 331.336,267.959C340.458,272.381 308.579,269.067 239.889,318.949C232.745,324.136 236.364,310.424 236.626,306.512C237.887,287.715 239.393,287.86 238.669,286.416C233.855,276.822 238.04,275.996 234.985,258.475C233.631,250.711 231.16,220.352 227.416,213.548C223.499,206.432 217.395,194.105 217.126,193.847C212.192,189.122 217.875,200.13 217.346,202.44C217.236,202.921 216.208,207.408 215.225,208.234C209.033,213.435 217.247,215.337 214.352,228.46C210.744,244.816 216.442,245.233 212.804,261.55C211.621,266.859 211.307,294.79 209.791,302.535C201.692,343.909 199.761,345.49 196.842,347.879C196.522,348.141 193.297,356.741 201.414,350.302C202.458,349.474 203.882,351.038 201.128,353.186C187.132,364.107 187.673,364.54 174.917,376.919C139.853,410.947 141.206,412.581 139.556,412.828C130.149,414.233 129.394,414.712 118.822,432.783C118.586,433.183 105.857,454.77 114.317,436.445C116.287,432.177 116.32,432.232 116.469,431.605C111.407,433.228 111.52,433.129 106.588,434.773C101.941,436.321 102.578,433.809 100.175,431.975C89.237,423.625 73.348,428.244 62.586,430C53.615,433.981 52.814,433.115 47.126,441.261C46.257,442.505 29.423,449.965 31.133,443.416C40,409.45 64.237,402.059 68.581,400.734C72.246,399.617 73.353,398.201 70.267,395.863C50.935,381.221 25.268,340.342 28.592,325.525C31.618,312.041 31.751,310.652 32.414,311.599C34.852,315.08 32.94,315.95 35.913,319.092C37.544,320.816 38.262,319.967 57.874,339.025C58.391,339.526 59.176,339.677 62.214,342.819C62.999,343.631 61.751,348.429 65.357,347.152C71.87,344.846 75.892,357.003 83.515,357.15C86.591,357.21 92.483,362.034 109.397,367.581C105.504,371.531 110.418,369.873 110.61,369.808ZM151.25,374.216C162.344,366.881 162.759,367.475 163.254,366.443C165.735,361.271 139.719,377.773 151.25,374.216ZM117.617,421.157C115.234,420.602 113.642,419.088 114.214,421.489C114.789,423.907 116.566,426.865 116.828,427.302C117.547,428.499 126.156,424.968 117.617,421.157ZM132.664,383.727C132.318,383.94 110.667,400.122 130.383,388.269C137.725,383.855 136.029,382.083 135.393,381.993C135.137,381.957 135.191,382.122 132.664,383.727ZM131.486,355.482C131.706,355.347 145.07,344.744 132.476,352.411C132.255,352.545 118.842,362.713 131.486,355.482ZM177.845,293.996C172.438,300.511 189.435,290.766 184.485,290.664C183.891,290.652 183.959,290.653 177.845,293.996ZM61.176,427.574C58.652,424.931 45.332,432.737 55.914,429.849C58.762,429.072 58.772,429.428 61.176,427.574ZM101.419,321.108C105.725,319.147 105.725,318.872 105.724,318.468C105.718,315.995 93.112,320.796 101.419,321.108ZM108.347,338.252C109.693,336.651 110.893,336.494 109.427,335.67C108.671,335.245 105.921,336.594 105.638,336.733C94.771,342.065 108.11,338.327 108.347,338.252ZM165.729,279.81C163.744,283.907 173.583,278.648 169.569,278.229C169.239,278.195 169.285,278.347 165.729,279.81ZM71.503,286.501C66.76,280.267 66.626,287.131 66.618,287.531C66.61,287.93 66.919,289.426 71.503,286.501ZM133.441,322.315L136.054,320.327C137.194,318.146 128.965,320.017 133.441,322.315ZM133.557,265.571C134.192,263.674 134.278,263.809 134.192,263.674C133.681,262.877 128.972,265.097 133.557,265.571ZM75.848,299.728C75.609,299.807 73.111,300.643 72.923,300.869C71.843,302.166 72.876,302.106 74.433,302.349C74.579,302.161 74.512,302.153 75.848,299.728ZM157.5,218.501C155.2,221.104 158.798,220.333 158.824,219.541C158.828,219.406 158.824,219.541 157.5,218.501ZM170.191,363.164C170.275,361.691 170.354,361.779 170.275,361.691C169.67,361.011 167.378,363.101 170.191,363.164ZM480.032,188.496C480.072,203.163 479.667,203.811 478.477,203.578C475.357,202.97 468.807,192.771 468.126,191.711C457.961,175.883 440.294,169.868 437.394,168.881C427.397,165.478 430.475,149.265 416.568,152.941C409.782,154.735 423.647,162.279 422.748,171.457C422.673,172.226 480.389,240.476 472.504,240.526C446.562,240.689 396.813,251.458 392.329,247.726C383.938,240.741 343.332,228.584 324.757,212.196C287.235,179.092 282.198,153.519 273.785,147.141C272.471,146.145 273.54,145.712 267.063,127.662C257.96,102.29 260.032,100.667 256.519,99.454C256.431,99.423 243.116,98.096 253.296,93.132C260.654,89.544 254.053,86.968 252.773,64.499C252.642,62.193 251.166,48.013 251.017,46.58C250.675,43.288 249.022,43.496 250.205,40.414C252.483,34.482 252.68,32.17 246.382,31.892C244.155,31.793 250.468,21.354 261.421,25.667C301.392,41.407 310.063,24.738 360.507,53.489C377.231,63.021 392.516,57.789 383.737,66.71C382.494,67.974 414.484,91.361 422.383,93.879C425.564,94.892 431.818,95.171 430.285,99.41C429.832,100.665 474.322,135.191 482.828,159.418C483.55,161.475 482.207,161.273 480.639,186.584C476.587,184.686 474.333,187.014 476.523,187.427C478.328,187.768 478.078,187.901 480.032,188.496ZM281.216,140.114C281.717,141.83 283.59,146.434 287.591,155.453C287.959,156.139 313.623,201.693 294.122,162.682C293.893,162.225 283.545,142.101 281.444,139.564C281.538,139.255 281.619,138.861 281.683,138.37C280.068,136.313 280.807,134.654 279.49,134.624C277.364,134.577 279.949,142.277 281.216,140.114ZM460.762,140.313L457.63,137.203C448.151,133.952 463.773,148.252 465.073,149.962C493.712,187.605 461.265,140.992 460.762,140.313ZM427.436,108.707C424.243,117.694 431.942,115.606 435.563,118.368C465.766,141.409 428.205,109.363 427.436,108.707ZM257.961,34.501C259.46,43.814 271.283,35.587 269.227,34.905C262.86,32.792 261.381,28.519 257.961,34.501ZM341.541,131.608C341.192,131.742 318.132,141.197 338.411,135.083C338.769,134.975 351.3,131.197 341.541,131.608ZM426.504,107.495C420.927,104.588 421.082,104.413 420.559,104.277C415.981,103.089 419.917,111.174 426.504,107.495ZM451.397,129.825C447.456,129.627 448.525,131.194 448.741,131.307C448.956,131.42 460.266,136.444 451.397,129.825ZM264.079,50.815C259.24,48.89 259.92,51.642 260.17,51.846C261.767,53.148 261.807,52.113 264.079,50.815ZM396.637,88.442C399.842,88.511 398.235,87.087 398.102,86.988C396.83,86.035 396.951,86.898 396.637,88.442ZM404.48,94.438C405.233,93.5 405.233,93.596 405.233,93.5C405.233,92.538 402.665,93.366 404.48,94.438ZM569.425,176.378C556.458,188.094 542.872,186.555 513.711,215.711C506.935,222.485 506.797,228.985 499.641,222.358C489.795,213.239 488.271,212.582 491.003,199.461C500.251,155.043 501.065,135.569 537.086,104.039C594.311,53.949 694.26,30.093 716.531,27.813C726.157,26.828 725.846,25.757 735.495,24.746C737.083,24.579 746.674,27.908 742.305,30.009C741.576,30.359 739.72,31.251 738.937,39.53C738.627,42.805 739.511,42.881 737.703,45.581C736.299,47.677 737.909,48.147 731.292,76.461C730.003,81.978 748.931,83.27 741.55,86.583C734.507,89.744 727.022,90.292 725.201,95.401C711.219,134.641 702.102,138.012 710.45,139.872C727.478,143.665 691.806,144.101 693.678,165.517C693.812,167.061 691.315,165.487 681.052,180.211C658.402,212.709 646.593,217.846 642.553,219.604C576.474,248.35 525.793,245.512 529.367,241.424C569.15,195.922 569.429,195.836 574.412,194.294C569.235,189.078 580.64,184.097 586.166,180.061C590.438,176.942 585.279,172.956 572.436,177.786C573.758,174.474 592.477,156.591 576.436,170.302C575.872,170.784 575.94,170.799 569.425,176.378ZM712.443,33.036C694.591,37.503 694.38,35.987 676.535,40.669C641.114,49.963 501.786,113.604 611.519,67.549C702.249,29.47 704.579,40.398 705.432,40.725C712.491,43.428 718.236,34.125 728.506,37.478C731.473,38.447 734.081,30.135 728.552,30.905C723.209,31.649 713.733,32.87 712.443,33.036ZM716.5,72.102C723.794,71.91 725.113,71.577 725.934,64.442C726.145,62.608 724.543,62.794 703.751,70.805C700.082,72.218 707.143,72.72 716.5,72.102ZM575.571,193.653C576.357,193.184 628.155,161.461 583.414,185.319C581.938,186.106 573.683,188.806 575.571,193.653ZM605.376,160.454L605.57,161.42C611.434,161.485 632.391,148.297 618.418,153.222C611.266,155.743 611.547,155.936 605.376,160.454ZM598.82,212.431L599.605,213.27C605.561,214.048 624.285,201.798 616.564,203.881C615.043,204.292 600.744,208.15 598.82,212.431ZM620.424,189.337C620.991,189.114 626.307,187.024 627.428,186.373C633.928,182.595 623.818,184.988 618.665,187.785C615.376,189.57 620.237,189.345 620.424,189.337ZM598.185,215.474C594.669,214.417 594.493,213.365 592.793,214.875C583.076,223.504 597.801,215.678 598.185,215.474ZM532.136,136.899C525.474,135.893 524.845,142.357 527.571,140.671C531.262,138.388 530.856,138.055 532.136,136.899ZM725.438,53.657C732.101,53.527 726.792,49.838 726.626,49.895C723.573,50.939 722.443,52.418 725.438,53.657ZM634.879,130.69C636.645,131.768 636.911,131.908 638.296,130.335C644.853,122.891 635.095,130.521 634.879,130.69ZM682.971,124.967C680.929,129.925 685.112,126.283 685.087,125.467C685.036,123.854 684.432,124.496 682.971,124.967ZM583.46,205.488C581.758,204.756 581.46,203.828 580.463,205.478C580.338,205.684 580.179,207.985 583.46,205.488ZM680.303,288.349C661.97,294.177 663.185,298.714 653.472,297.991C648.047,297.587 637.912,299.559 636.578,299.819C632.335,300.644 627.597,304.798 609.422,301.84C592.645,299.109 583.293,301.365 590.151,296.188C593.462,293.688 587.424,293.47 584.561,295.59C573.603,303.705 565.139,292.098 553.205,299.073C547.796,302.235 540.847,297.874 531.407,305.367C528.114,307.981 431.723,311.463 499.5,310.991C548.713,310.649 551.615,305.263 559.474,301.457C560.991,300.722 621.208,305.551 609.523,307.563C580.346,312.585 550.538,331.308 544.51,331.958C542.549,332.169 539.331,334.871 538.439,329.51C537.737,325.295 512.253,318.83 500.17,329.148C497.878,331.105 483.801,338.47 496.53,335.761C508.383,333.238 509.158,325.06 521.357,331.751C528.846,335.859 534.283,336.259 528.352,342.368C513.032,358.15 513.427,360.818 491.509,362.605C469.589,364.391 463.867,363.55 461.49,363.201C455.678,362.346 462.969,370.838 464.402,370.885C499.46,372.039 545.678,361.676 539.343,368.375C538.207,369.577 521.872,386.852 530.504,387.071C539.742,387.306 558.135,358.208 562.109,365.651C562.5,366.383 559.61,370.015 562.387,370.806C578.138,375.295 610.349,360.247 600.123,379.274C597.52,384.118 586.726,401.624 597.382,399.163C599.897,398.582 610.561,377.499 611.556,375.532C613.586,371.518 630.823,373.869 629.108,377.319C609.048,417.676 594.957,432.989 591.117,437.161C581.684,447.411 573.111,452.959 581.528,450.652C590.456,448.205 626.332,409.422 626.75,419.475C626.812,420.952 603.047,431.737 623.507,431.087C627.368,430.964 631.583,428.979 628.465,431.475C624.617,434.553 602.944,447.643 606.368,448.717C618.592,452.551 715.687,395.26 705.873,409.699C703.199,413.633 675.351,463.791 674.808,465.613C672.796,472.367 677.567,474.502 681.918,468.789C705.587,437.713 701.797,429.053 710.415,425.281C731.479,416.062 734.356,412.3 740.002,419.922C745.308,427.082 747.13,426.555 746.813,435.522C745.39,475.827 768.609,465.786 767.462,472.497C766.124,480.322 749.719,536.678 776.579,530.881C783.653,529.355 778.119,525.258 786.725,496.561C789.326,487.888 783.895,491.333 783.559,491.657C775.786,499.16 799.036,393.636 776.577,388.132C762.093,384.582 763.443,396.001 759.504,394.452C740.311,386.904 740.581,386.735 720.41,381.786C716.805,380.901 720.639,376.486 723.526,377.127C739.326,380.639 757.953,386.04 756.198,381.587C750.47,367.052 728.758,369.931 740.52,366.546C756.684,361.895 765.876,346.824 774.768,354.209C844.517,412.134 875.492,461.802 882.264,472.66C914.03,523.597 922.83,534.35 931.808,573.437C934.127,583.533 965.928,633.744 1002.696,664.278C1008.927,669.452 1000.79,672.233 992.645,676.748C947.753,701.628 940.866,693.632 939.588,702.512C930.851,763.222 905.705,785.584 885.188,828.344C870.085,859.819 844.512,876.513 811.253,918.289C791.054,943.66 768.857,980.851 765.49,986.493C762.25,991.922 760.931,987.759 757.33,981.593C725.624,927.296 745.922,913.927 739.468,917.299C733.656,920.335 737.349,925.548 700.597,945.678C674.697,959.865 660.592,956.474 640.494,960.19C640.057,960.27 637.758,959.727 641.907,954.812C643.731,952.651 664.959,927.503 657.227,922.951C653.124,920.536 660.929,913.342 656.538,913.284C624.205,912.86 539.946,948.5 494.476,950.117C412.906,953.019 358.058,919.439 337.502,916.486C319.8,913.943 290.028,906.081 306.204,916.946C309.285,919.015 308.946,919.295 314.782,923.046C321.481,927.352 331.483,928.575 323.47,928.35C291.023,927.439 290.443,929.43 275.607,922.288C273.648,921.345 254.346,916.54 252.699,917.777C250.598,919.354 246.432,927.016 234.206,935.05C225.566,940.727 224.629,938.936 216.358,945.297C208.421,951.4 207.519,948.426 197.428,947.981C191.978,947.741 203.785,940.456 207.074,929.36C214.928,902.854 214.485,901.834 212.338,900.986C199.057,895.743 191.7,905.837 189.695,907.703C177.743,918.819 178.351,920.124 156.385,927.098C155.482,927.384 143.41,931.216 144.561,926.513C146.853,917.147 144.654,916.134 151.2,909.223C159.727,900.222 146.862,875.143 145.505,872.497C136.201,854.359 132.731,857.233 118.767,840.29C102.907,821.047 61.431,760.026 49.368,732.572C22.903,672.341 17.919,640.991 27.173,595.43C36.227,550.853 104.992,458.177 110.591,455.718C135.006,444.994 124.553,433.059 194.332,368.327C221.499,343.125 295.563,276.776 390.471,259.053C393.822,258.428 394.331,260.33 396.801,257.832C396.808,257.825 510.817,240.044 565.449,248.928C610.737,256.293 611.383,254.395 653.434,272.625C655.6,273.564 655.21,274.203 679.333,286.756C680.364,287.187 680.238,287.265 680.303,288.349ZM614.458,867.29C608.207,871.178 619.63,873.425 618.046,871.433C616.203,869.115 615.231,870.003 614.458,867.29ZM274.521,868.015C279.893,869.411 282.841,870.009 283.569,870.157C285.208,870.49 325.459,878.668 303.501,876.451C299.998,876.097 288.129,874.899 259.525,874.681C247.473,874.59 275.491,880.058 275.649,880.423C277.962,885.737 282.156,883.266 283.064,884.803C285.788,889.415 245.413,881.973 266.639,887.099C338.823,904.533 419.913,850.396 428.703,787.518C440.365,704.088 399.751,611.956 291.5,612.101C220.697,612.197 179.785,668.602 169.617,707.535C160.164,743.729 161.792,752.73 173.84,791.402C180.165,811.705 207.525,842.392 217.722,849.152C219.307,850.202 247.247,844.776 244.35,843.709C236.219,840.713 235.964,841.67 228.519,837.468C220.466,832.923 216.829,839.466 214.443,838.741C202.498,835.115 214.248,832.257 215.521,831.525C233.442,821.22 233.677,835.187 265.486,839.783C276.661,841.398 264.558,836.416 260.968,832.11C204.144,763.962 251.337,652.779 329.497,652.091C387.331,651.582 404.56,686.088 407.705,692.385C410.364,697.711 420.173,717.355 413.93,766.545C406.64,823.984 370.501,848.808 368.499,848.513C361.442,847.476 347.97,861.678 332.49,863.371C310.669,865.759 309.486,867.057 291.385,854.666C284.816,850.169 284.657,855.802 260.497,862.491C249.027,865.667 262.945,865.482 274.521,868.015ZM306.497,869.5C304.451,871.442 304.659,868.394 305.5,868.394C305.619,868.394 305.5,868.394 306.497,869.5ZM617.524,866.55L617.812,869.009C627.175,873.716 628.105,875.633 636.638,869.72C668.575,847.592 674.25,852.285 672.36,849.605C671.716,848.691 655.912,850.223 654.487,850.361C645.897,851.194 640.673,857.349 622.48,850.564C619.662,849.513 618.977,852.19 604.611,846.198C568.927,831.314 566.812,808.918 552.976,788.206C542.87,773.077 543.008,710.482 566.307,685.341C577.884,672.849 576.173,670.26 601.506,659.513C611.593,655.233 657.377,648.587 686.57,666.39C730.647,693.269 737.821,755.652 710.028,799.148C699.113,816.229 689.217,835.058 671.616,842.685C670.649,843.104 670.097,845.075 672.521,844.365C672.922,844.247 712.77,826.666 696.394,837.425C673.603,852.399 727.051,821.881 748.494,820.411C749.472,820.344 766.34,819.188 760.164,824.153C741.784,838.927 743.236,840.345 711.205,865.093C710.928,865.307 703.017,871.42 709.429,869.102C709.831,868.957 736.173,861.868 714.546,870.615C682.195,883.699 678.863,879.784 680.351,877.425C680.362,877.407 730.851,834.979 735.242,831.288C751.918,817.274 626.217,877.24 638.524,878.393C640.474,878.576 662.179,864.245 691.434,855.204C692.092,855 707.98,855.243 692.617,863.741C671.658,875.335 670.502,876.848 672.278,877.709C676.778,879.891 664.541,883.706 669.419,883.686C692.733,883.59 721.451,870.845 725.705,868.957C732.138,866.102 738.139,866.184 750.305,858.191C780.799,838.159 807.662,816.261 814.209,766.482C822.557,703.01 802.911,682.184 785.104,656.756C784.462,655.838 743.735,619.485 698.465,610.792C659.797,603.367 646.515,612.675 618.64,620.991C576.447,633.578 535.092,681.906 536.992,737.463C537.042,738.923 538.755,738.605 539.981,755.479C540.017,755.963 540.161,755.797 540.943,761.466C541.891,768.342 543.285,768.698 539.623,774.569C538.98,775.599 544.593,800.549 556.357,818.594C557.267,819.99 558.38,821.243 559.338,822.607C560.397,824.116 558.422,826.66 562.651,830.322C578.975,844.457 578.813,852.891 604.408,864.728C606.459,865.676 631.278,854.561 629.868,861.698C629.68,862.649 618.534,866.226 617.524,866.55ZM166.43,405.231C165.922,405.782 156.249,410.696 142.324,440.401C129.685,467.362 128.607,466.787 124.24,482.434C123.133,486.4 122.837,486.24 108.963,531.585C100.35,559.736 103.332,587.61 103.852,592.47C105.028,603.471 107.17,612.14 114.645,605.778C122.485,599.105 102.777,631.709 116.822,693.46C118.541,701.018 119.166,707.93 123.05,701.238C125.908,696.315 121.473,644.055 121.286,605.5C121.073,561.409 153.652,498.106 145.341,531.445C140.035,552.734 138.395,552.043 130.914,572.577C130.107,574.792 135.358,574.79 142.892,553.628C157.09,513.752 173.185,523.891 178.245,519.251C178.526,518.993 195.633,500.115 179.656,514.693C173.543,520.271 168.187,512.361 155.73,525.736C152.403,529.308 146.195,541.854 149.603,530.518C149.866,529.641 156.277,508.313 143.715,520.702C126.652,537.529 120.217,595.265 120.554,574.498C120.606,571.357 122.091,571.533 125.1,535.492C130.667,468.797 133.835,469.231 145.696,441.589C161.873,403.885 132.338,477.559 145.382,471.213C162.015,463.12 162.625,422.192 168.101,405.502L166.43,405.231ZM160.088,422.793C160.69,434.132 132.637,507.928 150.399,447.467C155.603,429.752 155.976,425.957 160.088,422.793ZM115.856,660.5C115.858,657.538 115.87,636.018 116.445,623.484C118.476,579.152 116.064,640 120.137,677.526C125.655,728.36 116.057,661.89 115.856,660.5ZM112.786,605.054C94.873,572.175 129.163,479.506 120.377,512.472C114.574,534.244 120.311,573.825 112.786,605.054ZM662.5,808.966C670.893,807.762 671.477,808.126 676.048,801.239C676.105,801.154 682.621,792.821 680.532,784.493C679.981,782.296 678.943,778.161 652.5,780.502C641.602,781.467 637.037,796.602 636.951,797.527C635.604,811.894 646.112,811.089 662.5,808.966ZM364.469,785.059C347.952,789.41 334.831,784.922 329.152,809.391C327.841,815.043 328.792,828.688 342.421,825.274C343.824,824.923 381.466,823.169 375.555,797.488C374.565,793.188 368.978,785.598 364.469,785.059ZM165.513,473.46C161.712,475.011 149.821,473.987 146.866,503.503C146.232,509.829 156.826,507.564 162.21,498.317C192.163,446.883 191.777,446.601 237.179,395.204C250.293,380.358 252.355,380.112 252.006,381.68C245.01,413.129 213.334,459.943 209.083,466.225C207.224,468.972 182.626,505.326 190.427,503.255C197.949,501.257 198.824,499.59 232.521,444.514C235.876,439.031 263.145,397.709 254.715,416.581C252.831,420.8 236.525,463.477 237.485,468.503C240.558,484.59 266.206,447.335 267.958,444.791C291.169,411.075 320.887,378.583 323.198,384.648C324.379,387.75 323.978,408.346 351.127,389.009C355.12,386.165 363.828,373.213 398.386,364.087C400.632,363.494 442.775,352.366 425.532,353.749C423.158,353.939 393.386,362.99 390.603,363.836C338.315,379.733 342.639,397.659 335.823,392.117C330.951,388.156 337.202,374.97 321.45,380.372C287.012,392.183 239.088,483.181 248.216,457.392C249.922,452.573 250.454,452.801 270.205,397.396C273.383,388.48 261.46,393.733 254.869,402.838C241.737,420.976 270.703,372.458 256.581,375.871C249.78,377.516 239.169,380.081 193.683,436.656C179.199,454.672 180.236,455.126 167.846,474.784C165.882,478.067 154.991,498.725 157.326,489.475C159.4,481.261 165.325,476.253 165.513,473.46ZM273.72,869.474C250.152,868.015 250.453,866.139 248.411,866.171C235.3,866.378 275.053,876.372 273.72,869.474ZM612.966,549.5C612.768,546.339 611.057,518.969 606.648,510.415C605.741,508.655 592.418,490.555 591.334,489.718C580.05,481.013 581.895,479.032 570.197,470.999C531.212,444.227 512.087,411.889 503.191,399.838C499.057,394.239 500.336,411.265 441.804,449.964C418.241,465.543 418.524,470.603 411.291,476.252C378.403,501.933 386.796,521.583 382.158,537.389C374.32,564.105 375.557,567.775 373.61,566.314C344.053,544.127 349.372,507.1 349.126,504.56C349.014,503.398 347.546,503.671 339.385,515.42C325.37,535.599 317.073,577.475 316.516,583.501C315.597,593.442 320.124,591.497 340.731,601.052C343.299,602.244 372.093,615.596 372.611,616.426C382.85,632.851 424.285,648.963 442.783,717.419C444.759,724.731 456.657,711.097 517.448,718.917C523.015,719.633 521.238,712.569 522.513,707.503C531.951,670.017 549.577,656.96 560.316,645.322C622.556,577.881 710.89,602.473 692.215,588.836C682.015,581.388 675.651,569.38 657.327,551.682C650.531,545.117 643.25,575.515 611.747,588.971C607.755,590.677 600.102,595.757 602.411,591.464C612.831,572.09 610.525,571.417 612.966,549.5ZM536.984,575.537C536.21,582.567 533.251,576.402 531.499,576.44C531.369,576.442 531.432,576.428 514.172,599.247C509.238,605.769 514.416,612.652 506.489,610.747C502.366,609.756 496.463,635.657 487.879,625.202C481.566,617.514 483.74,615.188 474.715,611.259C473.995,610.945 480.567,607.469 470.611,602.346C470.269,602.17 469.698,595.993 465.617,594.279C463.437,593.363 454.372,594.453 460.187,590.201C465.567,586.267 440.769,572.241 438.771,571.112C428.707,565.42 448.266,549.772 449.616,540.544C449.857,538.896 460.305,535.876 459.228,530.583C458.628,527.635 463.823,527.393 467.235,523.278C483.253,503.957 479.25,496.786 491.423,497.985C496.6,498.495 494.138,503.221 504.568,506.387C507.533,507.287 500.669,513.541 513.277,518.806C514.858,519.466 510.242,522.894 525.789,536.182C544.379,552.07 544.052,554.998 538.749,563.598C538.242,564.42 538.693,564.477 536.984,575.537ZM491.269,504.787C488.4,504.034 488.984,505.457 489.055,505.633C489.571,506.891 494.426,508.753 491.269,504.787ZM529.501,552.499C535.543,554.586 528.737,547.204 528.238,549.269L529.501,552.499ZM512.543,585.249C516.271,583.547 512.147,582.718 511.627,583.566C511.547,583.697 511.627,583.566 512.543,585.249ZM522.537,543.291C526.611,541.227 516.853,537.27 519.326,540.581C519.527,540.851 519.563,540.782 522.537,543.291ZM384.029,560.522C386.091,569.719 387.034,569.218 389.29,578.491C389.732,580.306 377.81,572.894 378.894,566.548C379.082,565.451 383.223,541.222 383.629,553.461C383.751,557.137 383.826,556.947 384.029,560.522ZM692.328,812.198C692.644,811.834 709.398,792.533 694.557,806.607C694.194,806.951 694.312,806.98 690.693,811.527L689.536,814.475C691.039,816.279 690.859,814.404 692.328,812.198ZM294.221,900.791C294.428,900.864 324.804,905.452 327.464,905.854C351.273,909.45 419.376,951.166 514.469,934.022C523.459,932.401 522.548,929.294 625.454,907.181C639.369,904.191 676.904,903.324 652.441,899.749C619.936,894.997 601.599,880.106 589.617,877.012C588.64,876.76 589.469,875.926 579.575,869.383C562.45,858.057 538.248,823.323 533.218,809.604C509.818,745.789 524.483,739.802 517.395,736.806C512.596,734.778 488.742,724.696 452.482,731.426C441.096,733.539 445.594,738.003 445.593,749.5C445.589,806.47 425.208,835.02 385.513,869.515C351.273,899.272 300.302,898.8 292.503,898.728C282.782,898.638 282.555,899.585 282.888,900.29C283.534,901.654 283.96,900.941 294.221,900.791ZM529.908,880.512C520.154,913.728 476.585,919.645 463.774,908.179C452.442,898.037 453.456,895.141 444.715,888.242C441.407,885.631 429.225,863.451 448.377,870.821C449.606,871.294 456.201,878.328 480.499,880.854C483.715,881.188 483.265,878.919 490.484,879.16C499.422,879.46 510.518,861.68 511.737,859.725C512.595,858.352 521.255,861.109 521.544,862.48C523.461,871.57 529.763,869.188 529.908,880.512ZM461.39,897.623C454.345,891.123 454.365,890.981 453.547,890.846C448.257,889.975 471.269,910.411 461.39,897.623ZM651.687,877.792C648.862,878.979 648.108,881.33 650.563,880.645C651.356,880.423 661.607,877.56 659.116,874.929C658.332,874.101 658.232,874.71 651.687,877.792ZM298.112,583.44C298.476,585.545 308.289,593.218 307.197,583.523C304.962,563.672 322.667,560.163 317.336,557.857C316.984,557.705 301.456,569.022 298.112,583.44ZM271.246,851.323C264.044,845.918 239.272,851.312 236.56,851.903C236.083,852.007 222.998,853.261 227.859,856.055C233.913,859.535 238.344,868.188 271.246,851.323ZM324.966,701.5C324.353,691.834 326.11,691.526 322.157,682.665C317.633,672.525 291.071,679.34 285.885,683.945C264.828,702.642 263.284,705.557 263.322,724.51C263.373,750.328 272.705,748.145 292.575,744.879C325.149,739.527 324.116,713.512 324.966,701.5ZM646.041,694.516C644.072,684.587 644.67,684.407 638.891,676.202C631.485,665.685 628.426,672.355 612.487,669.962C603.337,668.588 582.54,682.858 574.961,692.896C560.049,712.646 561.13,743.921 578.646,750.066C585.188,752.362 655.118,737.039 646.041,694.516ZM545.539,284.288C550.259,281.687 544.799,282.623 544.652,282.648C492.963,289.189 488.684,294.259 486.279,295.013C406.111,320.159 508.555,291.865 510.439,291.345C516.884,289.565 532.227,295.027 523.866,289.393C521.997,288.133 541.01,284.751 545.539,284.288ZM483.361,320.129C483.524,320.135 492.681,319.04 484.534,318.465C461.837,314.837 461.81,314.976 444.428,317.097C431.478,318.677 447.184,320.175 447.534,320.208C465.551,321.927 465.598,324.044 483.361,320.129ZM415.395,288.292C428.878,282.706 429.798,283.727 429.815,282.484C429.876,277.9 401.89,286.626 399.968,293.606C399.158,296.548 411.293,302.097 405.45,295.516C404.797,294.781 404.742,293.87 415.395,288.292ZM418.32,458.315C381.043,494.401 456.42,430.153 447.466,432.408C445.628,432.871 420.603,456.189 418.32,458.315ZM481.47,344.058C471.728,347.347 469.309,353.31 474.51,352.64C478.086,352.179 494.387,341.238 481.47,344.058ZM459.503,432.223C462.122,430.737 470.251,423.017 471.143,422.169C495.917,398.642 458.899,426.264 459.503,432.223ZM395.994,314.03C402.266,315.911 421.016,307.16 409.497,309.334C395.991,311.883 395.993,312.886 395.994,314.03ZM616.262,278.688C608.329,274.474 596.551,279.945 604.549,280.011C610.155,280.058 609.948,280.087 615.431,280.164L616.262,278.688ZM776.466,454.895C769.671,454.224 752.856,429.85 753.036,428.501C756.558,402.12 764.169,404.947 764.708,400.531C766.461,386.167 778.353,387.979 780.247,400.565C782.684,416.762 779.326,453.93 779.299,454.409C779.317,455.068 779.507,462.223 778.664,463.036C778.799,475.005 776.846,515.642 776.754,517.552C775.33,547.186 774.093,512.028 774.114,511.5C775.545,485.076 775.47,485.124 775.889,480.506C776.793,470.558 777.432,464.688 777.867,461.853C777.223,459.676 776.544,455.391 776.466,454.895ZM622.512,332.48C614.164,332.091 614.145,331.054 614.512,330.507C614.852,330.001 637.849,314.376 639.89,312.99C642.592,311.154 643.055,309.729 666.648,316.311C668.845,316.924 665.232,316.626 645.277,335.182C644.424,335.975 636.752,335.989 636.44,335.591C632.794,330.956 631.898,331.155 626.609,333.635C624.017,336.04 622.212,335.852 622.512,332.48ZM760.438,283.177L761.467,283.287C770.241,282.744 753.367,279.584 750.427,278.707C744.361,276.899 741.658,277.671 743.007,271.443C748.586,245.688 751.691,240.794 777.26,229.073C785.3,225.387 774.142,225.105 774.487,222.497C774.843,219.803 797.177,205.738 792.41,203.679C783.298,199.744 783.406,204.19 758.694,217.861C743.737,226.135 722.041,255.165 717.922,267.65C714.432,278.227 717.237,281.461 706.395,284.41C698.875,286.456 712.348,284.198 712.238,286.465C712.108,289.164 712.111,294.455 709.6,293.209C705.887,291.366 706.481,290.509 663.774,269.018C657.298,265.759 670.795,261.058 664.509,257.48C662.03,256.069 674.67,225.042 680.238,221.066C683.932,218.429 679.418,215.24 712.051,174.086C720.323,163.654 746.972,141.891 754.521,142.017C810.718,142.959 826.629,144.128 852.433,156.626C855.1,157.918 905.226,165.927 918.269,178.666C925.104,185.342 868.373,159.61 885.391,169.586C890.69,172.692 906.238,177.524 916.288,184.779C921.603,188.616 929.379,187.304 931.877,200.449C934.787,215.761 954.013,279.273 899.458,327.452C894.389,331.929 893.692,328.091 862.643,316.109C842.325,308.268 798.71,287.626 774.555,288.62C765.964,288.974 787.585,288.084 875.341,325.971C876.508,326.474 889.34,332.015 889.333,333.499C889.324,335.373 891.666,347.573 912.387,329.374C916.215,326.012 916.424,325.599 921.418,326.897C932.122,329.679 954.557,235.528 954.206,259.553C954.108,266.253 957.115,266.081 954.029,296.493C951.013,326.229 943.348,343.633 909.125,386.218C900.834,396.534 879.43,405.447 880.869,408.326C883.538,413.668 900.063,423.388 894.718,423.897C891.97,424.159 890.341,424.683 892.431,426.565C904.2,437.161 880.833,430.201 871.481,428.616C845.118,424.147 856.711,406.753 755.55,326.438C743.885,317.177 740.661,319.046 737.518,304.498C737.161,302.843 738.295,303.163 740.844,283.596C741.325,279.905 742.871,281.415 746.473,281.988C753.517,283.109 753.35,283.411 760.438,283.177ZM701.926,271.657C703.198,270.792 702.762,270.309 701.332,269.994C692.582,268.27 693.314,271.792 693.825,272.153C697.795,274.96 701.419,272.062 701.926,271.657ZM712.643,229.035C712.258,228.921 700.905,225.568 707.757,230.19C710.225,231.855 709.771,232.618 707.555,234.556C695.502,245.102 717.494,232.685 718.257,232.254C720.518,230.977 713.146,229.159 712.643,229.035ZM756.592,181.782C756.343,181.96 740.799,193.171 755.471,185.446C768.198,178.745 783.986,170.765 770.526,175.687C763.329,178.319 763.567,178.41 756.592,181.782ZM731.675,198.772C736.989,195.804 737.243,195.894 737.272,195.371C737.612,189.191 725.471,199.912 724.651,200.636C714.45,209.645 731.183,199.082 731.675,198.772ZM695.436,321.976C694.507,321.601 680.737,316.029 686.716,312.996C704.647,303.896 705.278,302.533 710.404,305.657C717.138,309.763 711.125,316.102 717.505,316.45C725.921,316.909 725.864,316.124 726.573,316.276C727.648,316.506 764.278,344.765 766.248,346.773C768.42,348.987 760.836,350.321 760.601,350.194C759.428,349.561 761.114,342.977 741.49,346.364C733.341,347.77 708.666,326.707 695.436,321.976ZM667.513,378.033C670.844,378.389 674.171,378.344 671.172,380.026C637.561,398.868 611.136,423.039 606.4,427.371C597.039,435.934 608.995,421.822 609.338,421.416C614.799,414.971 630.632,384.686 632.342,381.414C636.659,373.157 638.903,375.384 658.525,377.073C664.848,377.618 664.667,377.459 667.513,378.033ZM558.848,330.842C564.231,328.713 620.224,306.57 627.57,308.205C630.738,308.91 636.121,309.03 632.302,311.183C608.138,324.803 609.823,334.405 593.48,331.967C589.389,331.357 558.752,333.402 558.848,330.842ZM688.552,407.97C674.285,410.695 657.612,415.539 670.292,408.155C690.682,396.279 689.891,395.259 710.454,383.406C714.771,380.918 718.687,398.926 705.491,403.475C697.045,406.386 697.129,405.868 688.552,407.97ZM697.5,357.102C696.314,357.043 683.503,357.857 689.184,352.179C695.038,346.328 693.163,338.876 696.536,338.931C712.777,339.197 713.188,338.658 727.212,346.897C730.14,348.618 723.943,351.329 723.509,351.519C711.176,356.917 711.018,355.864 697.5,357.102ZM697.378,387.341C694.92,388.895 695.128,388.782 692.708,389.891C676.227,397.45 659.076,413.881 646.509,415.561C646.123,415.613 638.642,416.613 641.711,414.719C646.006,412.067 681.774,389.985 697.541,385.306L700.523,383.704C702.145,383.179 701.901,385.401 697.378,387.341ZM707.616,373.555C707.079,374.089 706.803,374.362 699.351,378.162C698.877,378.404 698.838,378.274 688.516,377.058C677.762,375.791 697.077,369.111 697.553,369.193C701.687,369.902 707.246,372.285 707.615,372.392C708.694,373.014 710.086,372.488 709.037,373.212C708.415,373.643 708.312,373.074 707.616,373.555ZM768.601,525.385C763.436,507.109 769.86,480.632 771.056,479.994C773.139,484.468 767.353,503.906 770.114,522.498C770.383,524.314 770.002,524.21 769.956,524.898L770.362,526.457C770.38,526.923 771.883,528.984 769.37,527.669L768.601,525.385ZM622.431,441.773C618.912,442.658 622.276,440.516 622.365,440.459C624.674,437.924 642.03,426.852 643.499,426.497C649.949,424.933 649.925,425.314 655.939,422.643C656.14,422.649 656.299,422.856 656.5,422.862C659.616,422.95 655.879,424.613 622.431,441.773ZM564.151,341.471C557.258,349.164 555.466,346.984 546.693,341.255C543.213,338.984 549.206,340.29 552.408,339.306C557.034,337.885 557.019,338.36 561.395,339.847C565.417,337.659 565.502,336.535 567.25,337.894C567.549,338.126 568.289,338.701 564.151,341.471ZM945.211,235.615C944.902,226.919 944.79,227.058 942.651,218.512C942.295,217.09 949.619,218.031 947.223,235.392C946.984,239.751 945.613,238.835 945.362,238.668C944.946,238.39 945.188,235.858 945.211,235.615ZM592.448,356.08C586.874,355.848 587.026,355.299 581.489,356.564C578.555,357.234 582.083,354.497 582.228,354.384C587.204,350.523 587.849,351.655 593.313,354.607C593.933,355.63 595.365,355.706 594.164,356.012C593.264,356.242 593.377,355.843 592.448,356.08ZM643.234,410.236C631.159,417.457 629.822,417.379 628.518,417.303C623.271,416.997 639.32,410.316 642.446,408.831L645.051,408.697L643.234,410.236ZM679.539,310.89C674.415,309.778 660.078,301.735 661.687,300.708C662.588,300.133 682.479,291.603 684.702,290.983C686.931,290.362 703.99,299.495 699.615,301.656C680.035,311.329 679.803,310.792 679.539,310.89ZM688.783,338.377C684.526,355.944 678.759,353.59 658.446,348.697C645.85,345.662 655.206,338.012 656.529,337.994C659.663,337.952 678.46,338.049 688.783,338.377ZM719.997,384.763C734.949,386.345 754.712,393.9 757.471,396.519C760.337,399.239 753.286,405.245 739.434,409.186C737.08,409.856 732.656,402.19 732.675,401.517C732.699,400.666 747.08,396.392 747.129,396.31C747.862,395.098 746.824,393.12 729.424,396.116C726.329,396.649 726.228,392.22 722.48,391.9C717.556,391.48 718.992,389.526 719.997,384.763ZM634.559,409.403C635.77,407.267 635.748,407.034 668.444,385.412C678.735,378.607 679.215,379.492 691.603,380.125C696.726,380.386 691.175,384.08 634.559,409.403ZM688.755,336.644C664.063,332.809 649.904,337.864 659.858,329.912C673.213,319.243 677.676,314.57 687.034,328.814C689.328,332.306 689.104,332.371 688.755,336.644ZM753.201,436.794C768.525,457.639 774.142,457.544 768.633,468.623C767.101,471.705 752.419,462.012 751.977,446.485C751.72,437.453 751.616,436.72 753.201,436.794ZM610.448,344.969C617.097,346.044 622.047,344.823 618.306,350.392C608.593,364.853 588.765,348.985 589.795,347.711C595.369,340.813 604.888,343.564 610.448,344.969ZM540.5,358.034C521.65,360.498 520.984,360.082 520.6,358.537C520.595,358.52 538.507,343.674 540.592,342.736C541.655,342.258 552.692,347.585 547.643,351.672C547.386,351.88 545.006,353.806 545.819,355.38C547.799,359.217 544.673,357.791 540.5,358.034ZM659.5,373.954C656.227,373.636 656.325,373.704 646.508,373.174C613.38,371.384 654.73,370.168 655.488,370.145C666.711,369.815 699.529,363.033 691.226,368.227C676.794,377.254 676.09,376.82 659.5,373.954ZM720.452,404.018C727.817,402.422 728.21,403.445 732.452,409.53C734.639,412.668 709.657,420.744 709.97,419.513C712.502,409.544 710.546,406.998 720.452,404.018ZM709.288,335.72L709.128,336.518L708.413,337.173C698.681,335.446 695.488,337.87 693.294,332.583C690.754,326.46 671.267,312.214 683.335,318.989C685.489,320.198 684.45,321.739 709.288,335.72ZM638.389,350.85C642.016,353.069 641.911,355.727 637.502,355.775C622.615,355.936 621.924,354.573 622.482,353.493C626.789,345.156 629.166,348.78 638.389,350.85ZM629.579,426.915C629.046,427.044 617.416,429.857 622.72,426.806C644.595,414.224 647.901,418.111 646.375,419.379C640.111,424.579 631.017,426.596 629.579,426.915ZM654.469,421.149C654.262,421.212 644.366,424.195 652.418,419.387C654.34,418.239 656.569,416.908 679.511,412.363C682.979,411.677 676.364,416.873 667.516,418.566C660.806,419.85 661.033,419.849 654.469,421.149ZM573.501,364.042C577.086,364.806 619.323,361.525 586.51,366.56C568.105,369.384 566.445,368.573 567.541,367.521C570.149,365.018 569.762,364.519 573.501,364.042ZM651.5,363.956C652.323,363.938 707.37,364.084 661.494,366.43C659.958,366.509 629.837,368.049 642.49,363.474C643.169,363.229 643.624,363.064 651.5,363.956ZM736.5,358.034C733.649,358.09 709.741,359.542 724.525,355.549C729.56,354.19 732.429,349.401 739.562,354.415C744.089,357.597 736.879,358.012 736.5,358.034ZM746.335,411.197C750.216,409.775 750.176,409.733 750.526,409.661C751.524,409.456 752.002,410.15 749.028,422.307C748.394,424.901 742.829,416.724 741.831,415.304C739.725,412.303 742.53,413.039 746.335,411.197ZM620.5,368.034C617.285,367.613 615.582,367.269 617.577,364.551C618.598,363.16 632.248,363.219 633.529,363.225C636.347,363.237 635.4,366.873 632.475,367.074C631.516,367.139 624.707,367.605 620.5,368.034ZM648.808,306.842C659.653,303.072 659.259,307.417 670.581,312.394C680.552,316.777 648.758,308.903 648.808,306.842ZM570.632,351.63C576.45,345.139 577.066,346.346 577.494,346.518C581.425,348.104 580.012,350.069 573.548,355.56C573.25,355.814 562.333,360.162 570.632,351.63ZM749.417,354.328C745.07,356.425 738.793,349.569 746.462,348.191C761.148,345.552 749.879,354.04 749.417,354.328ZM586.316,344.312C580.786,349.002 578.679,342.879 578.793,342.819C579.543,342.421 585.851,339.08 589.232,340.894C589.549,341.064 590.22,341.738 586.316,344.312ZM547.678,368.675C547.378,368.984 526.592,389.144 542.663,370.632C542.945,370.307 562.293,349.478 547.678,368.675ZM535.709,207.177C535.867,205.179 536.544,205.611 547.49,198.471C558.426,191.339 541.005,207.655 535.709,207.177ZM649.506,355.919C643,354.437 649.327,353.197 649.54,353.228C656.882,354.304 656.884,354.888 656.887,355.503C656.891,356.581 654.463,356.347 649.506,355.919ZM605.474,368.2C604.991,368.2 594.329,368.215 599.622,366.722C600.087,366.591 630.602,359.069 605.474,368.2ZM563.605,348.646C567.469,346.542 567.429,345.842 568.406,346.64C570.619,348.448 556.875,357.079 563.605,348.646ZM226.197,325.44C226.148,325.704 220.997,342.23 223.562,327.501C223.607,327.237 226.658,311.166 226.197,325.44ZM630.492,372.371C630.003,372.357 617.15,371.986 624.599,370.704C625.082,370.621 637.817,368.43 630.492,372.371ZM563.357,189.036C555.403,189.434 566.713,183.793 566.848,185.318C567.021,187.264 566.251,186.752 563.357,189.036ZM638.494,341.132C632.491,339.615 638.789,337.924 640.294,338.88C640.489,339.003 641.92,339.912 638.494,341.132ZM719.373,396.41C721.033,395.187 721.418,394.877 722.294,396.596C723.004,397.991 717,402.208 719.373,396.41ZM558.416,357.122C554.582,356.123 559.151,353.368 559.958,355.398C560.027,355.57 559.958,355.398 558.416,357.122ZM537.801,306.399C540.259,299.994 541.966,304.323 542.041,304.682C542.343,306.137 541.45,305.581 537.801,306.399ZM214.897,337.896C217.361,336.76 217.183,336.636 217.361,336.76C219.093,337.964 212.996,342.422 214.897,337.896ZM573.405,338.337L575.454,338.535C576.689,340.366 571.61,340.598 573.405,338.337ZM637.503,306.427C636.091,305.527 635.673,304.686 637.447,304.344C637.611,304.312 640.962,304.404 637.503,306.427ZM645.436,342.409C646.829,342.607 647.79,341.997 647.164,343.415C645.666,346.812 645.444,342.569 645.436,342.409ZM534.493,207.005C534.075,210.865 532.512,208.698 532.513,208.5C532.514,208.302 532.513,208.5 534.493,207.005ZM770.66,478.455C770.771,477.065 770.098,476.502 771.5,476.499C774.427,476.493 770.811,478.376 770.66,478.455ZM710.747,336.363C712.221,337.528 712.224,337.378 712.221,337.528C712.195,339.036 711.9,337.274 710.747,336.363Z"/>
    </g>
</svg>
