<?xml version="1.0" encoding="UTF-8" standalone="no"?>
<!DOCTYPE svg PUBLIC "-//W3C//DTD SVG 1.1//EN" "http://www.w3.org/Graphics/SVG/1.1/DTD/svg11.dtd">
<svg width="100%" height="100%" viewBox="0 0 1717 673" version="1.1" xmlns="http://www.w3.org/2000/svg" xmlns:xlink="http://www.w3.org/1999/xlink" xml:space="preserve" xmlns:serif="http://www.serif.com/" style="fill-rule:evenodd;clip-rule:evenodd;stroke-linejoin:round;stroke-miterlimit:2;">
    <g id="Artboard1" transform="matrix(1,0,0,0.907008,-163,-31.745283)">
        <rect x="163" y="35" width="1717" height="742" style="fill:none;"/>
        <g transform="matrix(1.617188,0,0,1.782991,48,183.84101)">
            <g transform="matrix(1,0,0,1,35.864734,-22.26087)">
                <path d="M201.969,70.499C203.26,66.465 201.998,65.833 207.304,60.308C207.645,59.954 209.132,58.405 209.24,54.471C210.203,19.492 245.256,29.451 251.227,35.749C267.849,53.278 239.759,73.107 240.412,76.51C243.355,91.853 265.81,59.496 271.201,80.578C274.072,91.81 235.36,110.513 216.793,90.248C208.294,80.971 205.942,82.501 201.969,70.499ZM232.614,57.895C244.054,52.516 235.65,45.906 229.502,46.13C219.533,46.493 218.344,61.125 232.614,57.895Z"/>
            </g>
            <g transform="matrix(1,0,0,1.419169,92.135266,25.914861)">
                <path d="M864.828,115.464C859.334,114.443 855.487,100.263 845.734,90.291C827.829,71.983 829.074,69.016 833.809,62.716C838.763,56.124 837.737,55.776 838.246,47.468C839.299,30.314 869.904,23.743 880.168,35.79C896.701,55.195 868.355,72.24 869.253,76.531C872.221,90.698 891.612,63.812 896.416,74.595C898.964,80.311 866.744,106.802 864.828,115.464ZM861.604,57.865C872.739,52.499 864.46,46.532 859.516,46.152C848.502,45.306 846.922,61.389 861.604,57.865Z"/>
            </g>
            <g transform="matrix(0.997045,0.076824,-0.128832,1.672013,78.033449,-53.735256)">
                <path d="M106.963,70.499C107.785,66.316 107.086,66.19 109.75,62.675C114.462,56.459 113.81,56.201 114.111,48.486C115.362,16.531 191.572,27.038 148.419,71.422C140.769,79.289 149.053,84.313 157.058,78.012C175.612,63.408 180.1,84.686 172.377,89.303C143.003,106.866 129.123,97.866 121.7,90.316C107.827,76.207 107.259,72.452 106.963,70.499ZM142.16,53.421C142.702,49.953 143.583,49.261 140.405,47.71C139.767,47.399 134.748,44.95 131.594,46.678C116.631,54.877 138.922,64.802 142.16,53.421Z"/>
            </g>
            <g transform="matrix(1.435057,0,-0.168377,2.429448,71.570874,-84.821587)">
                <path d="M75.027,68.514C75.322,77.26 74.406,77.483 79.008,84.79C91.044,103.899 52.913,104.983 58.856,81.578C61.418,71.49 62.572,59.673 57.639,64.652C40.77,81.679 38.085,55.894 29.782,60.919C28.815,61.504 23.956,74.015 31.253,85.662C40.175,99.901 8.742,102.556 13.678,79.539C16.975,64.165 19.147,64.091 15.288,49.542C14.326,45.915 13.971,33.883 13.93,32.517C13.718,25.32 32.646,26.829 33.772,33.432C38.066,58.604 51.522,49.487 53.404,44.453C56.751,35.502 57.127,34.822 66.459,33.23C78.241,31.219 72.027,48.327 75.027,68.514Z"/>
            </g>
            <g transform="matrix(1.584699,0,0,1.224731,-67.817041,-92.06397)">
                <path d="M393.163,85.151C392.889,83.589 386.296,81.054 388.166,80.409C392.731,78.833 379.129,70.44 371.257,74.082C360.591,79.016 379.282,93.392 367.436,93.016C354.487,92.604 343.067,93.901 338.677,97.341C339.588,99.832 370.125,40.876 369.878,25.445C369.774,18.914 370.234,10.547 370.234,10.547C370.234,10.547 387.553,14.835 389.397,20.534C401.523,57.998 403.559,69.141 402.889,73.459C401.494,82.45 404.686,115.413 406.28,114.633C403.308,116.341 389.838,88.301 393.163,85.151ZM376.981,48.586C373.651,65.249 389.268,57.165 389.039,54.552C388.949,53.529 388.281,45.924 382.492,43.516C379.979,42.471 377.244,48.048 376.981,48.586Z"/>
            </g>
            <g transform="matrix(1.124211,0,0,2.040287,47.401094,-118.542994)">
                <path d="M591.488,39.056C620.097,42.557 598.317,65.183 609.926,64.944C619.749,64.743 637.299,46.67 638.223,44.701C646.303,27.476 644.466,57.631 637.161,79.391C627.066,109.464 562.364,112.938 562.364,112.938C562.364,112.938 585.057,75.993 597.22,90.649C612.375,108.911 630.115,77.675 620.048,75.763C611.172,74.076 595.341,82.384 595.341,82.384C595.341,82.384 580.669,41.173 591.488,39.056Z"/>
            </g>
            <g transform="matrix(1.221073,0.137903,-0.183331,1.623311,-50.505966,-107.836604)">
                <path d="M804.955,49.542C804.797,51.79 803.613,51.617 801.55,77.505C801.395,79.443 787.297,107.651 787.297,107.651C787.297,107.651 775.213,86.436 771.67,88.812C763.311,94.418 762.29,94.3 753.77,89.009C746.884,84.732 736.752,63.819 744.64,62.463C749.349,61.653 734.723,21.146 729.309,21.949C729.309,21.949 765.887,33.474 764.449,42.855C761.249,63.728 762.038,68.389 763.602,67.881C767.518,66.61 769.249,46.231 779.58,52.793C781.822,54.217 781.164,80.341 786.576,71.562C789.443,66.912 779.067,37.186 794.499,38.451C803.618,39.199 804.798,48.333 804.955,49.542Z"/>
            </g>
            <g transform="matrix(0.993652,0.112493,-0.212122,1.873671,157.420274,-173.968416)">
                <path d="M531.034,70.491C531.047,70.725 515.056,102.912 503.744,97.201C502.302,96.473 510.255,90.827 507.869,85.473C502.927,74.38 507.111,56.19 500.77,65.788C499.799,67.257 485.77,94.36 474.594,89.991C470.585,88.424 484.198,44.321 479.497,44.253C479.497,44.253 489.225,42.543 492.472,42.228C518.158,39.732 514.126,56.141 520.56,53.607C521.313,53.311 523.392,48.811 528.557,47.772C534.427,46.591 554.305,49.911 554.305,49.911C554.305,49.911 552.655,60.737 555.79,77.431C556.013,78.617 546.332,82.944 547.355,97.01C548.073,106.879 529.137,108.368 529.491,100.282C531.02,65.406 533.408,64.922 531.993,66.852C531.993,66.852 531.11,70.2 531.034,70.491Z"/>
            </g>
            <g transform="matrix(1.085541,0.061164,-0.137515,2.440641,-13.48334,-95.354249)">
                <path d="M990.478,58.567C992.739,57.847 1067.167,96.914 1064.358,99.974C1044.105,96.692 1023.326,94.461 1001.771,93.785C999.302,95.722 1035.103,141.36 1037.216,139.702C1037.216,139.702 1006.357,126.53 984.568,113.776C981.94,112.238 982.334,147.987 982.334,147.987C979.145,150.829 952.695,103.753 954.689,95.793C957.844,83.201 976.91,69.523 961.66,64.019C956.865,62.289 953.193,72.01 948.69,77.65C946.026,80.989 949.144,106.14 929.829,91.115C919.293,82.92 938.841,79.589 932.057,62.665C931.434,61.11 925.353,45.94 926.449,42.488C927.485,39.224 936.602,22.21 946.864,43.356C950.204,50.237 965.472,43.072 973.243,47.917C982.714,53.822 979.97,52.961 990.478,58.567Z"/>
            </g>
            <g transform="matrix(1,0,0,1.262685,30.917874,-32.271655)">
                <path d="M283.956,71.526C283.618,63.819 285.22,62.27 278.344,58.881C255.301,47.522 279.587,38.95 279.863,33.551C280.991,11.46 300.705,18.699 303.093,30.59C306.498,47.548 328.616,36.33 329.777,46.47C331.482,61.371 290.712,42.751 304.003,71.682C308.341,81.125 296.893,95.304 294.41,96.292C282.328,101.101 284.348,78.582 283.956,71.526Z"/>
            </g>
            <g transform="matrix(1.369848,0.362974,-0.595361,2.246869,-98.122182,-353.865712)">
                <path d="M696.452,31.049C698.182,30.956 714.155,30.102 714.832,42.482C715.625,57.003 679.71,47.294 679.71,47.294C674.847,46.649 686.154,81.646 698.602,79.835C712.296,77.843 692.582,68.694 691.548,67.46C687.032,62.074 693.216,54.243 693.216,54.243C693.216,54.243 717.356,71.411 716.413,78.658C714.514,93.24 687.627,97.444 687.627,97.444C687.627,97.444 655.916,62.716 670.909,42.803C680.567,29.976 692.343,31.768 696.452,31.049Z"/>
            </g>
            <g transform="matrix(1.188506,0,0,1.397242,67.897003,-89.589823)">
                <path d="M452.041,72.574C452.404,74.991 450.242,87.98 439.25,99.37C437.595,101.086 429.994,92.431 434.769,70.535C434.785,70.46 430.954,51.222 441.44,48.215C446.554,46.748 454.731,57.024 452.665,67.541C452.158,70.127 452.358,70.02 452.041,72.574Z"/>
            </g>
            <g transform="matrix(1.325479,0,0,1.30866,8.818459,-82.879957)">
                <path d="M451.377,14.428C453.211,14.986 457.904,15.706 457.904,15.706C457.904,15.706 448.851,23.543 447.392,27.124C443.541,36.576 437.974,45.129 433.959,35.314C428.693,22.438 450,14.662 451.377,14.428Z"/>
            </g>
        </g>
    </g>
</svg>
