<?xml version="1.0" encoding="UTF-8" standalone="no"?>
<!DOCTYPE svg PUBLIC "-//W3C//DTD SVG 1.1//EN" "http://www.w3.org/Graphics/SVG/1.1/DTD/svg11.dtd">
<svg width="100%" height="100%" viewBox="0 0 2000 2000" version="1.1" xmlns="http://www.w3.org/2000/svg" xmlns:xlink="http://www.w3.org/1999/xlink" xml:space="preserve" xmlns:serif="http://www.serif.com/" style="fill-rule:evenodd;clip-rule:evenodd;stroke-linejoin:round;stroke-miterlimit:2;">
    <g transform="matrix(1,0,0,1,383,641)">
        <g transform="matrix(5.080526,0,0,5.080526,-383.581828,-636.08313)">
            <path d="M113.507,375.04C107.952,374.755 87.362,374.477 69.583,367.289C58.768,362.918 52.361,358.029 52.205,357.925C35.257,346.63 25.536,329.96 22.493,323.503C16.135,310.015 13.16,296.207 12.269,275.511C12.231,274.631 11.928,267.587 11.952,264.496C12.028,254.736 12.075,248.703 12.001,142.497C11.979,109.874 10.01,76.103 31.898,47.808C48.343,26.549 68.923,19.444 71.503,18.508C91.426,11.276 108.759,11.069 154.5,11.132C254.518,11.268 254.514,10.756 279.48,11.817C288.223,12.189 290.294,12.706 291.462,12.818C310.694,14.663 328.71,22.481 340.669,32.282C356.424,45.192 363.223,57.785 367.702,68.412C377.152,90.836 375.631,121.33 375.915,126.479C376.096,129.741 376.02,129.724 376.037,220.501C376.047,275.632 376.453,293.036 369.5,313.5C368.454,316.578 362.683,333.566 347.915,347.932C347.508,348.328 344.682,351.078 342.686,352.734C320.525,371.114 298.547,373.387 282.512,374.672C267.454,375.879 130.073,375.328 113.507,375.04Z" style="fill-opacity:0;stroke:rgb(48,167,254);stroke-width:4.92px;"/>
        </g>
        <g transform="matrix(2.313783,0,0,2.313783,-555.828355,-696.184128)">
            <path d="M218.034,357.5C218.034,245.769 217.892,245.596 218.902,243.816C219.979,241.918 339.762,238.293 375.526,241.224C473.242,249.233 527.361,312.566 519.661,400.515C506.131,555.075 313.112,528.769 306.522,529.663C302.282,530.239 306.818,657.099 304.041,661.209C300.872,665.899 220.865,663.639 219.542,662.453C217.844,660.931 218.034,660.442 218.034,357.5ZM328.51,318.969C306.219,319.117 305.218,319.221 305.179,321.462C304.997,332.056 302.924,452.715 306.322,453.903C307.214,454.215 366.311,459.753 399.334,443.174C449.033,418.222 441.728,346.318 398.375,327.785C372.752,316.832 349.306,318.813 328.51,318.969ZM662.502,671.965C654.79,671.838 600.38,670.945 567.768,654.02C563.222,651.66 563.165,647.209 563.156,646.504C562.312,579.992 561.334,579.848 563.789,574.651C566.906,568.054 603.077,601.678 673.48,599.008C712.607,597.524 724.536,570.283 684.289,551.963C654.882,538.576 540.373,509.333 567.984,411.646C597.433,307.456 775.346,341.451 778.569,356.479C778.808,357.593 781.025,426.763 777.321,429.237C770.256,433.956 741.987,408.693 677.534,410.995C642.279,412.255 638.277,439.727 663.768,453.038C716.102,480.364 810.71,494.991 793.739,590.549C790.511,608.725 777.977,630.53 762.136,643.08C724.332,673.03 679.329,671.178 662.502,671.965Z" style="fill:rgb(48,167,254);fill-opacity:0;stroke:rgb(48,167,254);stroke-width:10.8px;"/>
        </g>
    </g>
</svg>
