<?xml version="1.0" encoding="UTF-8" standalone="no"?>
<!DOCTYPE svg PUBLIC "-//W3C//DTD SVG 1.1//EN" "http://www.w3.org/Graphics/SVG/1.1/DTD/svg11.dtd">
<svg width="100%" height="100%" viewBox="0 0 2043 944" version="1.1" xmlns="http://www.w3.org/2000/svg" xmlns:xlink="http://www.w3.org/1999/xlink" xml:space="preserve" xmlns:serif="http://www.serif.com/" style="fill-rule:evenodd;clip-rule:evenodd;stroke-linejoin:round;stroke-miterlimit:2;">
    <g transform="matrix(2.375777,0,0,2.375777,-335.312242,-397.454495)">
        <g transform="matrix(0.803626,0,0,0.803626,148.684162,163.468924)">
            <path d="M796.588,154.636L796.128,155.255C793.574,170.656 774.09,170.312 767.868,155.331C763.337,144.421 761.863,145.455 746.148,134.994C744.75,134.063 729.656,124.016 725.916,140.58C724.514,146.787 733.114,164.774 724.34,169.222C714.251,174.337 711.139,169.091 707.366,166.83C706.047,166.039 701.712,170.686 699.399,171.14C680.587,174.832 677.653,153.876 674.996,136.412C673.722,128.035 672.821,124.149 657.596,127.913C633.384,133.9 660.502,165.141 632.497,166.413C626.614,166.68 624.557,161.026 622.769,166.579C617.478,183.019 593.276,181.782 597.398,155.483C602.414,123.48 588.943,110.548 582.591,118.575C572.469,131.366 574.857,155.738 574.845,156.516C574.671,167.076 563.695,164.436 562.57,164.165C541.26,159.04 561.547,129.587 554.012,116.798C547.254,105.327 527.824,107.377 533.806,148.447C536.153,164.566 526.047,172.355 513.691,166.155C493.91,156.229 528.323,106.011 520.045,91.766C518.834,89.681 517.36,87.748 516.265,85.6C513.603,80.386 514.388,53.156 524.567,51.906C542.54,49.7 541.735,74.075 543.669,83.442C544.065,85.361 544.39,86.935 565.382,94.797C570.758,96.811 576.229,77.399 602.191,100.844C620.274,117.173 616.332,155.159 621.943,143.792C628.517,130.477 630.171,130.154 626.455,120.52C624.004,114.164 634.833,111.606 635.4,111.329C640.229,108.969 653.703,76.672 654.167,74.446C656.837,61.62 675.254,63.402 678.311,70.59C680.243,75.136 687.663,113.083 688.536,119.493C690.043,130.56 702.593,154.156 704.767,146.637C714.297,113.674 704.564,111.368 708.428,98.481C713.404,81.89 709.138,81.721 709.363,64.497C709.666,41.391 703.676,19.78 715.515,18.642C745.61,15.749 721.561,72.665 737.651,81.157C747.097,86.143 747.443,82.553 755.625,75.651C770.374,63.211 792.994,94.572 767.571,102.71C749.995,108.336 754.522,120.403 759.573,123.377C761.765,124.668 781.037,136.015 787.314,138.917C794.174,142.089 789.869,135.602 792.795,128.638C804.111,101.7 801.088,80.744 844.503,75.523C863.717,73.213 861.905,108.458 861.041,110.315C851.436,130.977 845.003,129.574 829.61,133.847C811.817,138.785 815.663,145.777 818.566,146.27C846.292,150.979 852.707,141.824 858.895,133.842C867.338,122.949 885.237,129.152 887.213,145.535C890.641,173.972 837.341,168.391 836.497,168.444C808.362,170.218 803.854,156.207 796.588,154.636ZM657.719,104.561C656.478,114.761 670.716,109.481 669.674,103.472C669.528,102.628 668.054,94.134 664.509,94.101C661.201,94.07 658.256,103.39 657.719,104.561ZM847.95,107.502C845.802,95.257 844.507,91.884 832.452,95.317C822.954,98.021 815.609,109.486 815.094,113.458C813.754,123.805 844.677,121.933 847.95,107.502ZM432.493,98.121C421.974,98.608 421.633,98.691 414.222,106.236C403.864,116.783 392.496,111.278 389.712,100.335C389.321,98.8 371.335,111.813 367.9,141.524C367.874,141.754 373.831,161.707 362.517,164.58C344.541,169.144 343.171,130.998 331.575,122.416C324.517,117.193 322.795,125.04 322.318,137.487C321.938,147.376 329.082,176.345 308.485,178.229C306.953,178.37 295.76,179.393 293.203,166.563C292.168,161.37 291.466,157.921 287.846,161.816C286.57,163.189 276.543,173.976 265.623,169.23C255.874,164.994 262.017,150.107 262.654,148.563C271.695,126.655 264.273,98.403 245.927,121.831C233.87,137.228 255.082,154.705 236.179,171.122C228.143,178.1 194.715,174.446 211.599,148.573C216.009,141.815 212.101,140.47 216.313,133.375C219.436,128.115 215.215,119.728 216.879,113.619C222.781,91.961 218.222,65.922 238.421,73.686C249.484,77.939 244.395,85.316 257.494,89.519C276.151,95.506 278.982,99.489 284.753,117.43C286.742,123.613 279.885,130.347 288.386,134.745C301.992,141.784 293.088,152.29 297.545,150.583C297.684,150.53 303.782,141.511 304.688,138.567C311.657,115.921 304.643,91.424 303.518,87.495C297.906,67.897 324.515,69.36 333.549,95.48C334.409,97.966 347.65,136.249 355.121,120.296C366.653,95.676 353.955,66.826 375.523,65.753C382.426,65.41 395.289,68.946 392.964,83.482C391.598,92.019 404.925,64.485 439.338,77.906C469.028,89.485 458.106,114.142 468.338,132.587C480.775,155.006 424.044,184.025 410.74,175.181C409.059,174.064 395.685,165.173 393.881,156.413C390.245,138.758 414.709,114.595 432.552,112.923C459.964,110.355 437.381,98.934 432.493,98.121ZM431.581,132.69C430.359,133.364 415.052,141.807 426.565,149.392C434.667,154.729 456.393,121.134 431.581,132.69ZM173.495,98.119C161.701,98.632 162.011,99.996 153.175,108.093C140.766,119.465 131.124,101.342 130.235,105.372C129.619,108.167 130.178,108.214 123.618,140.522C121.173,152.561 119.867,190.885 100.799,176.125C100.037,175.535 88.998,146.659 80.925,155.842C79.676,157.263 79.217,166.558 70.524,166.295C65.153,166.133 50.652,148.361 44.438,125.516C42.859,119.715 21.51,78.229 42.5,74.504C61.271,71.172 58.071,109.231 61.976,119.295C62.086,119.58 67.594,138.976 72.256,132.301C78.124,123.899 61.341,82.785 83.482,87.573C105.189,92.269 88.818,133.76 103.528,132.932C113.591,132.366 107.977,90.679 110.883,84.691C114.783,76.654 126.604,77.23 130.452,81.546C131.421,82.633 132.265,83.826 133.206,84.936C135.119,87.191 151.059,64.844 182.376,78.783C201.845,87.448 203.785,107.46 204.082,110.522C205.24,122.472 203.918,122.788 209.689,133.401C220.683,153.618 165.764,184.545 151.701,175.227C150.016,174.111 136.716,165.298 134.825,156.423C131.136,139.106 155.232,114.152 174.528,112.829C178.763,112.539 194.98,112.459 182.575,102.401C178.524,99.117 178.633,99.02 173.495,98.119ZM176.56,130.809C173.596,132.168 158.707,136.175 165.512,147.492C171.801,157.95 196.091,127.511 176.56,130.809ZM967.506,98.12C955.791,98.695 955.657,99.241 947.363,107.354C944.955,109.709 939.15,112.899 935.419,111.887C907.769,104.383 932.97,64.033 967.626,76.15C1009.259,90.706 989.344,108.577 1002.125,131.714C1003.685,134.539 1012.255,150.053 981.411,166.335C951.423,182.166 949.792,177.24 943.301,173.853C906.442,154.623 944.814,114.505 967.538,112.86C993.327,110.993 973.271,99.176 967.506,98.12ZM973.483,130.148C971.698,130.555 947.941,135.965 959.642,148.367C966.345,155.471 985.191,132.029 973.483,130.148Z" style="fill:rgb(32,32,32);"/>
        </g>
        <g transform="matrix(0.847478,0,0,1.416115,140.382196,317.062657)">
            <path d="M556.591,140.5C559.14,135.377 558.869,134.891 558.621,134.444C556.454,130.551 556.24,130.372 558.367,126.437C559.164,124.963 556.792,122.252 556.724,121.461C556.312,116.709 558.463,116.719 556.935,112.343C555.831,109.181 559.04,106.996 558.873,105.455C558.439,101.461 555.9,101.505 558.091,97.267C559.721,94.114 555.462,91.912 557.344,88.416C559.624,84.181 555.554,84.128 556.676,79.531C558.953,70.204 556.699,70.065 557.023,69.314C559.676,63.169 552.708,60.289 558.637,57.811C564.39,55.408 561.909,53.644 562.899,47.545C563.194,45.728 556.541,40.496 560.455,38.442C563.782,36.696 564.062,36.361 563.152,32.567C561.713,26.576 570.803,28.612 570.681,24.499C570.373,14.052 575.8,18.601 580.431,17.208C590.713,14.113 590.725,16.744 601.476,17.657C606.234,18.062 603.417,25.126 605.588,26.273C608.601,27.865 607.53,20.15 607.706,19.646C608.589,17.122 642.556,11.57 638.956,24.599C637.821,28.708 647.212,26.767 647.246,31.501C647.276,35.602 645.826,36.655 649.618,38.276C653.228,39.82 649.216,45.759 650.773,47.246C654.681,50.98 653.502,51.686 651.413,55.459C650.118,57.799 654.779,58.611 654.089,62.438C652.404,71.779 654.158,71.846 653.867,72.606C651.859,77.847 655.882,78.402 653.083,83.239C650.508,87.688 655.817,87.909 653.919,92.641C651.922,97.621 656.428,98.102 653.863,102.671C650.629,108.429 654.792,109.14 652.443,115.485C651.966,116.774 655.413,120.863 653.314,123.365C649.994,127.323 655.966,128.132 653.687,132.571C651.954,135.947 652.023,136.017 653.778,139.389C656.043,143.742 650.838,144.362 653.487,148.509C656.186,152.736 649.669,154.704 650.76,157.408C656.529,171.703 627.274,167.988 630.547,159.515C632.714,153.905 625.566,153.674 628.894,148.761C631.997,144.179 625.956,143.323 628.769,138.674C631.564,134.055 625.635,133.061 628.775,128.678C631.655,124.657 628.24,124.215 629.066,119.364C630.132,113.104 627.478,112.898 630.029,107.28C630.97,105.209 627.914,101.769 628.817,99.604C630.912,94.583 626.792,94.109 629.09,89.323C631.391,84.529 627.512,84.315 629.046,79.372C630.401,75.008 627.178,74.85 628.775,70.574C629.178,69.495 629.809,68.51 630.201,67.427C630.821,65.715 627.328,63.285 628.895,59.71C633.187,49.912 616.272,54.208 617.557,57.483C619.124,61.478 618.982,61.489 617.446,65.484C616.854,67.025 619.5,70.295 618.677,72.555C616.86,77.551 621.167,77.988 618.626,82.56C616.023,87.246 620.893,87.848 618.609,92.558C616.915,96.051 615.663,95.877 617.067,99.63C620.245,108.125 591.546,108.399 594.765,99.575C596.708,94.248 591.121,94.512 593.012,89.285C594.241,85.891 595.467,85.676 593.298,82.631C590.935,79.314 595.327,79.062 593.987,75.378C592.406,71.03 594.12,71.055 594.105,66.501C594.089,61.83 592.19,61.75 594.153,57.376C595.454,54.479 589.307,55.658 589.161,51.578C589.125,50.565 589.233,49.547 589.13,48.54C588.246,39.926 586.494,53.804 584.534,54.575C580.599,56.124 583.72,57.596 583.108,61.485C581.403,72.311 583.37,72.388 583.023,73.264C581.215,77.833 584.74,78.264 582.636,82.566C580.253,87.437 585.165,87.883 582.777,92.62C580.34,97.454 585.144,97.964 582.769,102.622C579.958,108.136 583.389,108.669 581.553,114.516C580.888,116.633 584.439,119.422 582.878,122.676C580.624,127.373 584.588,127.693 582.676,132.588C580.731,137.57 585.043,137.954 582.706,142.606C579.82,148.352 586.234,149.879 582.249,153.239C577.424,157.307 584.657,161.028 579.22,164.03C570.835,168.659 562.891,164.869 561.62,164.262C555.782,161.478 562.652,157.486 557.88,153.12C554.304,149.847 560.564,148.234 556.591,140.5ZM110.495,166.263C102.109,164.351 98.442,164.76 100.895,156.564C101.59,154.243 95.035,153.453 96.188,149.438C97.623,144.444 94.13,144.143 96.257,139.373C97.676,136.191 99.238,135.866 96.745,133.29C94.58,131.053 97.853,126.194 97.596,125.48C96.061,121.228 95.596,120.953 98.312,117.375C100.023,115.12 94.406,112.995 96.191,109.371C98.043,105.611 96.587,105.637 96.087,101.554C95.805,99.26 98.63,96.79 98.115,95.578C96.374,91.481 95.858,91.213 98.277,87.369C100.121,84.44 93.639,82.448 97.641,78.651C100.62,75.823 97.373,75.562 96.207,71.557C94.982,67.352 99.027,67.236 96.797,63.337C94.228,58.844 101.7,57.849 97.8,54.192C93.551,50.207 99.809,48.454 96.722,43.391C94.041,38.994 102.255,38.381 99.572,35.441C96.293,31.848 96.015,31.014 99.431,27.45C100.771,26.052 96.505,20.2 100.616,18.787C104.537,17.44 118.612,12.602 152.437,18.69C156.597,19.438 152.206,26.56 156.464,27.621C161.971,28.992 162.612,30.277 160.369,35.461C158.898,38.86 168.137,37.761 166.104,43.381C164.852,46.843 166.318,46.565 168.026,49.774C170.455,54.34 165.869,54.877 168.259,59.643C170.781,64.671 166.63,64.948 168.267,70.53C169.297,74.044 162.878,75.181 163.891,77.366C166.094,82.117 166.431,83.096 161.833,85.917C160.206,86.915 164.569,93.408 158.584,94.879C154.236,95.948 155.32,97.205 154.799,101.542C154.33,105.448 153.399,105.85 156.302,108.65C158.709,110.97 153.788,116.029 156.6,117.298C161.364,119.448 160.814,120.452 159.781,125.502C159.427,127.233 166.548,128.228 164.301,132.411C162.364,136.018 162.75,136.977 166.62,138.147C172.448,139.909 166.349,143.677 170.242,148.667C172.233,151.218 167.862,154.143 167.436,154.428C164.733,156.236 171.947,161.848 166.434,164.354C158.325,168.039 143.654,167.48 148.217,157.384C149.86,153.749 141.987,154.601 142.781,149.537C143.693,143.717 136.912,144.665 139.392,139.455C141.046,135.98 140.352,135.371 136.616,134.215C131.45,132.616 137.956,128.033 132.616,124.306C128.391,121.357 134.143,116.345 130.705,115.071C123.773,112.502 130.989,107.093 126.591,105.373C119.737,102.692 124.185,108.891 121.091,115.347C120.002,117.621 124.427,118.9 122.364,123.424C119.911,128.803 124.128,129.932 120.444,134.452C120.02,134.972 124.865,150.815 122.208,153.173C120.047,155.091 118.455,155.084 120.412,158.547C124.082,165.042 111.169,166.095 110.495,166.263ZM122.472,50.501C122.053,55.27 119.905,55.506 122.443,59.534C125.301,64.071 120.537,64.826 123.048,69.682C124.261,72.029 120.354,76.355 126.501,76.421C135.13,76.515 139.764,80.124 139.163,71.491C138.845,66.916 144.888,68.893 143.355,64.551C142.101,60.998 142.713,61.109 144.111,57.446C144.912,55.347 140.409,55.948 139.776,51.476C138.23,40.54 124.68,46.869 123.462,47.438C122.49,47.892 122.887,48.008 122.472,50.501ZM709.5,166.303C682.409,166.442 664.379,168.398 668.611,157.542C669.615,154.967 663.232,152.568 665.917,148.777C669.367,143.905 664.098,142.565 667.408,137.451C668.87,135.191 664.157,132.561 665.676,129.567C668.514,123.972 664.329,123.135 667.294,117.425C668.269,115.548 663.305,111.894 666.844,108.841C670.978,105.276 663.042,104.139 665.829,99.642C667.972,96.182 667.569,95.927 665.689,92.437C663.874,89.065 671.351,87.27 668.394,84.614C665.055,81.614 666.73,81.083 667.812,76.602C668.759,72.682 663.799,73.119 665.795,69.614C668.902,64.16 664.498,63.181 667.555,57.531C668.983,54.891 663.694,52.644 666.606,48.576C670.085,43.717 664.877,42.762 667.406,37.457C668.725,34.689 663.459,31.485 666.618,28.609C669.643,25.855 668.412,25.434 667.863,21.464C666.634,12.567 737.292,14.096 738.096,20.579C738.505,23.883 734.251,25 738.213,27.881C743.893,32.01 736.589,33.723 738.543,40.494C741.849,51.952 691.54,43.094 691.464,48.495C691.381,54.506 687.654,54.869 691.048,59.741C691.357,60.184 689.446,75.631 693.451,75.83C707.237,76.517 741.84,72.5 732.939,84.793C731.197,87.2 739.381,90.733 735.291,94.284C730.179,98.722 737.401,102.711 732.502,104.504C718.514,109.622 691.652,104.088 691.429,108.482C691.378,109.487 691.529,110.493 691.543,111.499C691.581,114.144 688.524,115.972 689.404,117.538C691.541,121.343 691.842,121.403 690.187,125.374C689.904,126.055 691.047,125.81 691.549,134.488C691.807,138.964 742.973,132.297 738.282,142.44C736.859,145.517 735.451,146.263 739.197,148.878C744.337,152.465 736.268,153.455 737.589,159.475C739.619,168.734 714.816,166.334 709.5,166.303ZM227.5,166.303C198.718,166.433 180.371,168.713 184.307,157.435C185.125,155.091 179.395,152.796 181.262,149.394C184.345,143.777 179.699,142.601 183.156,137.326C184.371,135.472 179.891,132.589 181.392,129.456C184.06,123.884 179.997,123.16 182.811,117.641C184.2,114.916 178.64,112.421 182.671,108.681C186.796,104.854 178.577,103.407 181.944,98.819C185.331,94.205 178.191,92.212 182.533,88.541C185.307,86.195 184.221,85.587 181.963,83.115C178.29,79.097 185.041,77.761 181.973,73.13C179.084,68.769 184.7,67.917 181.869,63.307C179.092,58.785 184.725,57.97 181.881,53.296C179.164,48.832 184.872,48.343 182.425,43.551C179.956,38.715 184.899,37.819 181.877,33.27C178.882,28.763 186.29,27.458 185.019,24.722C179.501,12.847 202.127,16.053 234.505,16.096C255.782,16.124 253.945,21.92 253.235,23.362C250.539,28.843 258.97,29.177 255.384,33.427C252.544,36.792 254.591,37.197 254.293,41.486C253.583,51.694 207.32,43.158 207.108,48.429C206.872,54.315 203.085,54.527 206.502,59.499C207.273,60.62 204.607,75.804 209.471,75.846C237.118,76.081 253.996,73.019 248.283,85.438C247.645,86.825 254.541,91.071 251.12,94.148C246.422,98.373 253.651,102.778 247.612,104.765C233.827,109.303 207.406,104.354 207.1,108.364C206.646,114.332 203.319,114.594 206.505,119.497C208.384,122.387 201.898,136.433 212.503,136.387C216.346,136.371 257.863,133.901 253.84,142.618C252.125,146.335 253.011,146.444 255.421,149.553C258.964,154.123 252.096,154.036 253.217,159.579C255.119,168.98 227.674,166.304 227.5,166.303ZM884.5,106.418C884.372,106.4 863.749,105.972 865.608,99.527C867.118,94.292 864.694,94.991 861.289,93.947C855.522,92.178 863.087,86.958 857.71,84.106C852.525,81.356 861.122,76.583 855.59,74.259C849.968,71.898 856.167,69.015 853.307,63.61C851.154,59.539 856.287,57.7 854.965,55.295C852.652,51.083 852.793,50.498 856.377,47.39C858.889,45.211 850.527,39.77 859.454,38.218C865.767,37.12 855.448,30.468 861.352,28.165C865.502,26.547 867.237,26.814 865.928,22.425C863.91,15.657 893.231,17.174 894.519,17.399C904.01,19.058 908.949,15.782 908.09,25.504C907.806,28.721 920.752,28.59 915.251,34.273C911.707,37.934 914.948,38.041 917.684,39.075C922.41,40.862 916.961,46.475 918.712,48.304C924.825,54.686 914.916,54.189 915.775,57.498C919.906,73.398 896.557,65.71 898.363,60.462C899.828,56.204 898.666,55.823 894.42,54.658C891.622,53.89 893.947,48.011 891.582,47.328C880.836,44.222 881.929,53.047 881.634,53.586C879.979,56.619 877.982,56.194 879.471,59.513C880.642,62.123 877.963,65.698 879.713,67.243C882.865,70.025 881.964,70.49 882.234,74.584C882.379,76.798 897.365,75.611 910.542,78.315C914.455,79.118 912.44,84.462 912.602,85.475C913.32,89.978 921.643,86.72 918.727,94.576C917.705,97.329 922.788,98.513 923.034,98.901C925.391,102.614 921.548,104.219 921.383,105.484C921.037,108.13 932.261,109.942 922.755,114.881C918.701,116.988 930.185,119.195 926.142,124.227C922.194,129.141 927.603,132.564 921.678,134.958C916.555,137.028 927.321,143.104 921.391,145.24C915.967,147.193 922.073,152.832 916.43,154.166C911.773,155.268 911.088,155.973 912.304,160.535C914.255,167.855 856.741,169.457 859.369,159.469C861.449,151.562 851.061,156.577 851.213,150.531C851.325,146.112 851.198,145.829 847.396,143.634C843.532,141.402 850.141,137.126 847.405,134.611C843.324,130.86 844.421,129.972 847.296,126.362C848.325,125.07 845.568,120.878 847.697,118.693C852.695,113.563 864.906,117.526 866.325,117.986C869.648,119.065 867.325,124.993 867.458,125.513C868.315,128.859 873.609,127.035 871.422,133.476C870.771,135.393 871.819,137.237 896.519,136.689C901.381,136.581 895.556,130.097 899.766,127.982C905.278,125.214 900.103,121.851 904.515,117.513C908.676,113.422 898.56,117.111 897.933,111.437C896.98,102.808 893.27,106.495 884.5,106.418ZM799.5,106.418C790.919,106.322 769.892,107.964 773.155,97.411C774.355,93.53 764.265,95.5 766.392,89.467C768.536,83.387 759.88,83.672 763.461,78.472C766.182,74.52 761.766,75.615 760.304,72.607C758.191,68.263 761.779,67.821 759.892,63.309C758.259,59.406 762.932,57.491 761.774,55.382C759.405,51.067 759.564,50.47 763.205,47.274C764.408,46.217 760.636,41.746 762.58,39.562C764.872,36.986 771.303,38.753 766.812,33.279C762.311,27.794 774.919,28.819 773.502,24.5C769.895,13.506 795.601,17.539 812.471,18.723C817.171,19.052 814.648,25.493 814.895,26.356C815.904,29.894 828.395,26.744 820.538,35.529C817.535,38.887 826.794,37.459 826.564,42.502C826.384,46.43 824.281,46.802 827.119,49.803C831.165,54.082 821.416,55.278 822.714,58.419C827.442,69.866 801.819,69.753 806.058,58.346C807.593,54.215 799.237,56.315 799.427,51.5C799.702,44.572 789.289,43.929 788.984,51.539C788.825,55.509 784.201,54.814 785.227,57.581C788.205,65.609 785.502,65.728 785.821,66.356C787.654,69.961 789.036,69.424 788.901,73.546C788.703,79.602 820.519,72.612 819.693,82.531C819.32,87.021 820.462,86.826 824.607,88.277C830.197,90.234 822.823,95.463 828.31,97.947C833.365,100.235 828.185,105.089 828.137,105.447C827.82,107.826 838.626,110.339 829.683,114.801C825.281,116.997 836.182,119.037 833.359,123.434C830.756,127.489 833.649,128.017 831.999,132.719C830.742,136.303 824.534,135.342 828.661,139.338C832.987,143.526 825.144,146.041 825.4,147.502C826.371,153.037 825.067,153.306 819.647,154.871C816.328,155.829 819.864,160.183 818.703,162.611C816.997,166.178 785.293,166.519 779.54,166.096C769.673,165.37 764.856,167.2 766.681,157.532C767.612,152.597 757.863,155.162 757.937,150.465C758.005,146.2 758.04,145.913 754.32,143.752C750.434,141.494 756.673,136.773 754.302,134.717C753.907,134.375 750.313,131.258 751.849,128.663C753.901,125.195 754.211,125.304 753.457,121.503C752.617,117.27 763.964,115.405 764.499,115.513C775.829,117.808 775.037,121.609 774.832,122.59C773.713,127.958 780.449,126.298 778.917,131.59C776.429,140.188 782.445,136.253 791.501,136.435C799.41,136.593 806.59,139.669 804.674,131.482C803.861,128.005 809.977,127.477 809.571,125.498C808.645,120.993 808.099,120.648 811.377,117.401C814.399,114.407 804.946,115.277 804.67,111.472C804.356,107.14 803.969,106.605 799.5,106.418ZM63.505,105.115C51.682,106.983 47.154,106.129 42.492,106.422C38.97,106.644 40.818,110.279 40.57,111.51C38.404,122.256 40.459,122.339 40.008,123.155C38.517,125.857 37.479,126.124 39.552,128.451C43.444,132.822 35.604,134.038 38.513,137.489C42.422,142.126 35.562,143.969 39.544,148.456C43.423,152.825 35.297,154.559 36.964,157.263C40.59,163.143 35.253,169.766 19.373,163.762C15.325,162.231 20.071,155.866 19.006,154.844C15.568,151.547 15.747,151.134 17.407,146.477C18.024,144.743 14.885,142.334 15.607,139.525C16.576,135.752 17.978,135.615 15.909,132.306C14.017,129.279 19.336,126.221 17.762,124.349C14.829,120.863 15.202,120.456 17.039,116.333C17.714,114.817 14.49,111.433 15.669,109.563C17.937,105.965 18.235,105.641 15.868,102.323C14.277,100.093 18.856,96.494 17.567,94.459C15.068,90.513 15.46,90.163 18.053,86.299C19.034,84.836 14.307,82.548 15.984,78.725C17.713,74.782 14.822,74.708 15.588,70.516C16.353,66.332 17.582,66.253 15.701,62.443C13.97,58.936 21.455,57.537 18.257,54.774C13.407,50.583 19.388,48.479 15.982,43.223C13.84,39.917 18.437,37.151 17.632,35.46C15.393,30.757 15.519,29.933 20.073,27.122C22.495,25.627 16.41,23.497 18.21,19.337C20.054,15.075 58.413,17.07 60.476,17.583C67.911,19.432 71.068,18.009 70.232,25.496C69.803,29.344 79.533,27.61 78.77,32.54C78.181,36.339 76.812,37.263 80.292,38.95C84.971,41.22 78.809,45.785 81.646,48.322C85.096,51.407 84.91,52.503 81.499,55.499C78.196,58.399 88.065,60.736 84.024,65.125C80.657,68.781 86.023,70.178 83.111,74.268C79.429,79.439 85.351,82.828 79.427,85.267C75.3,86.966 77.234,88.173 78.04,90.62C79.997,96.561 69.147,94.587 69.714,97.507C70.908,103.649 69.653,104.43 63.505,105.115ZM47.498,46.623C41.872,46.581 41.175,45.511 40.438,47.472C39.953,48.764 41.279,51.151 39.648,53.62C37.9,56.268 36.628,56.747 39.248,58.823C42.947,61.754 38.055,65.334 38.535,67.489C38.689,68.181 40.384,75.786 40.809,76.047C56.532,85.699 56.829,72.865 56.86,71.532C56.947,67.764 62.742,69.433 61.959,66.445C60.844,62.189 59.371,61.921 62.252,58.334C64.894,55.044 55.857,55.327 56.18,51.519C56.708,45.279 53.656,47.22 47.498,46.623ZM499.491,16.051C502.838,16.757 507.764,17.474 508.486,17.579C514.715,18.486 507.515,23.859 512.417,27.624C517.482,31.515 508.049,33.241 511.506,38.496C515.418,44.441 505.494,44.447 506.93,47.328C509.318,52.123 508.062,52.532 504.447,55.46C503.686,56.076 507.193,62.538 503.334,64.159C497.737,66.509 504.605,71.371 499.299,74.068C493.831,76.848 502.231,82.122 496.411,84.251C490.856,86.284 497.976,90.608 493.232,94.115C489.042,97.213 495.17,99.928 491.19,103.125C488.346,105.409 486.576,105.129 488.219,108.632C490.111,112.663 484.77,114.553 486.222,116.646C488.897,120.505 487.316,120.729 487.082,125.47C486.852,130.122 488.921,130.443 486.317,134.404C484.907,136.549 488.857,137.429 488.917,140.49C489,144.747 487.054,144.872 489.164,148.625C490.805,151.545 485.975,153.984 486.348,155.51C488.123,162.775 485.892,163.075 478.586,164.874C475.872,165.542 465.693,163.546 464.998,161.329C463.59,156.84 466.56,156.153 463.593,152.435C460.211,148.198 465.547,147.027 462.818,142.337C461.024,139.254 465.568,136.545 464.255,134.64C460.549,129.266 465.18,128.3 462.632,122.453C461.186,119.134 465.636,117.473 465.319,115.542C464.667,111.569 461.528,111.538 464.194,107.321C466.225,104.108 459.396,104.506 460.088,100.46C461.246,93.69 455.511,93.753 458.464,87.487C459.747,84.764 451.625,84.242 452.812,80.539C454.012,76.794 453.885,76.343 450.549,74.428C447.176,72.493 452.121,66.611 449.607,65.348C448.699,64.892 447.65,64.686 446.834,64.079C443.143,61.336 449.195,56.129 446.67,55.262C441.813,53.593 442.179,52.422 443.544,47.506C444.407,44.394 436.679,45.951 439.512,39.506C441.783,34.34 434.908,34.455 437.424,29.455C439.136,26.055 440.136,26.136 438.957,22.418C437.766,18.665 447.275,14.831 458.555,18.351C464.038,20.063 457.102,25.148 462.381,27.764C467.996,30.546 460.228,35.793 463.563,37.4C468.227,39.646 468.113,40.549 466.382,45.485C465.602,47.71 473.541,48.06 471.508,52.503C467.026,62.298 479.962,56.539 480.069,56.281C481.656,52.457 476.589,50.138 482.424,47.349C485.779,45.746 480.382,41.402 483.497,38.497C486.324,35.862 487.868,36.03 486.231,32.623C483.718,27.392 492.302,27.997 490.599,24.458C486.777,16.517 492.016,17.629 499.491,16.051ZM377.039,50.488C376.961,43.412 373.483,46.554 366.502,46.394C350.909,46.035 354.004,40.485 354.637,39.592C356.844,36.483 355.722,36.132 352.963,34.009C348.134,30.295 359.849,27.492 357.286,24.683C348.873,15.461 367.893,16.757 381.5,16.746C406.596,16.725 432.688,14.075 420.774,24.689C420.489,24.943 419.534,26.099 424.372,27.81C430.03,29.811 422.276,35.761 423.009,37.655C428.466,51.765 401.638,42.285 402.653,48.484C403.543,53.922 396.766,54.603 401.161,57.949C406.139,61.737 398.399,64.745 400.724,67.289C405.259,72.251 399.168,73.383 400.913,76.347C403.431,80.627 403.577,81.371 399.81,84.716C398.224,86.124 403.651,88.844 402.087,92.299C399.412,98.21 405.065,100.192 399.835,103.967C395.773,106.899 404.723,107.513 402.385,112.45C399.69,118.144 404.123,119.24 400.329,124.397C398.728,126.574 404.3,128.793 402.199,132.324C400.284,135.541 399.808,135.81 402.059,138.782C403.855,141.154 399.466,144.989 400.386,146.55C400.86,147.355 401.65,147.945 402.12,148.753C404.833,153.426 398.576,153.405 400.305,158.557C402.575,165.32 376.024,170.589 380.269,156.442C380.779,154.741 375.685,152.26 377.267,149.406C379.148,146.011 379.618,145.765 377.457,142.523C375.505,139.594 380.342,136.367 379.142,134.685C376.492,130.972 376.457,130.665 378.75,126.622C380.038,124.351 375.275,122.243 377.255,118.365C379.915,113.156 374.141,111.753 377.728,108.703C380.511,106.337 380.749,105.5 377.937,103.074C373.88,99.574 381.34,97.722 377.782,93.285C374.272,88.909 381.689,87.38 377.829,83.228C374.107,79.225 381.478,77.378 377.634,73.392C374.518,70.16 381.417,66.836 379.235,64.754C374.776,60.501 377.418,59.766 380.195,57.253C382.646,55.033 377.871,55.625 377.039,50.488ZM292.219,50.495C292.089,43.644 282.902,46.885 279.536,46.234C274.112,45.185 267.97,44.678 269.3,40.429C270.367,37.02 271.814,36.322 268.61,34.337C262.498,30.55 275.057,27.604 272.343,24.638C263.906,15.415 283.864,16.761 296.5,16.746C322.512,16.716 347.537,14.084 335.885,24.727C335.61,24.978 334.649,26.137 339.394,27.782C345.218,29.801 337.447,35.634 338.143,37.601C341.545,47.219 331.156,46.072 320.479,46.185C316.116,46.232 318.485,50.03 318.102,51.428C317.086,55.145 312.931,55.483 316.68,58.299C320.789,61.386 313.733,65.014 315.771,67.242C318.559,70.291 318.157,70.709 316.273,74.383C314.937,76.988 319.237,78.922 318.179,81.428C316.609,85.148 313.83,85.407 316.715,88.317C319.242,90.866 314.697,94.76 315.656,96.413C318.075,100.581 317.834,101.17 314.433,104.446C311.821,106.961 319.757,107.834 317.491,112.496C314.743,118.149 319.102,119.313 315.398,124.44C313.968,126.419 319.576,129.33 317.286,132.375C315.044,135.356 314.828,135.734 317.139,138.732C319.312,141.551 313.902,144.697 315.867,147.201C320.021,152.493 313.705,152.75 314.631,156.482C315.861,161.443 315.618,162.384 310.576,163.767C290.178,169.364 295.38,155.094 295.096,154.812C291.666,151.385 292.93,150.898 294.4,146.464C295.698,142.549 290.137,141.917 294.003,137.102C295.906,134.733 290.485,132.066 292.545,128.521C294.931,124.415 291.445,124.21 292.066,119.389C293.242,110.251 292.073,110.175 292.388,109.444C293.548,106.747 297.022,106.57 293.545,103.446C289.549,99.855 295.759,96.898 294.18,94.689C291.431,90.841 292.263,90.495 294.64,86.56C295.801,84.637 291.172,83.285 292.45,79.483C293.556,76.189 295.139,75.893 292.733,73.333C289.798,70.211 296.627,66.875 294.312,64.697C289.566,60.231 292.996,59.334 295.225,57.275C297.855,54.846 292.928,55.344 292.219,50.495ZM944.509,105.084C944.007,105 938.362,104.049 940.219,100.384C941.951,96.965 942.086,96.428 938.922,94.093C935.658,91.683 941.451,87.829 940.651,85.451C936.826,74.09 955.529,77.187 968.498,77.19C974.288,77.192 968.966,71.637 973.387,69.317C978.662,66.548 972.638,63.037 977.056,59.068C980.727,55.769 971.316,56.564 971.43,52.504C971.685,43.476 966.045,49.435 947.522,46.382C941.049,45.315 939.087,43.219 943.517,38.512C946.1,35.767 936.883,35.409 939.152,30.354C940.685,26.94 941.349,27.18 940.643,23.469C938.781,13.694 986.167,15.924 986.413,22.503C986.593,27.32 986.869,27.873 991.453,28.707C997.541,29.815 989.891,37.213 993.501,38.498C998.614,40.318 998.486,41.542 996.65,46.527C996.095,48.035 1002.38,51.151 999.327,54.363C996.997,56.813 996.647,57.582 999.447,59.574C1004.168,62.932 996.847,64.478 999.127,69.694C1001.514,75.153 996.31,75.558 995.526,76.517C993.04,79.557 1000.822,82.381 994.291,86.213C992.072,87.515 996.099,93.949 992.336,95.127C987.193,96.736 985.194,96.353 986.431,101.507C987.709,106.836 960.643,108.604 944.509,105.084ZM951.503,135.73C955.458,136.742 966.246,137.256 964.206,142.409C962.903,145.701 961.666,146.145 964.419,148.594C968.384,152.121 961.824,155.103 962.528,157.492C966.401,170.638 938.799,164.948 939.921,160.524C940.901,156.659 941.202,156.538 938.855,153.294C936.005,149.355 944.218,147.957 941.523,144.481C936.187,137.599 945.307,137.471 951.503,135.73Z" style="fill:rgb(34,34,34);"/>
        </g>
    </g>
</svg>
