<?xml version="1.0" encoding="UTF-8" standalone="no"?>
<!DOCTYPE svg PUBLIC "-//W3C//DTD SVG 1.1//EN" "http://www.w3.org/Graphics/SVG/1.1/DTD/svg11.dtd">
<svg width="100%" height="100%" viewBox="0 0 1569 2000" version="1.1" xmlns="http://www.w3.org/2000/svg" xmlns:xlink="http://www.w3.org/1999/xlink" xml:space="preserve" xmlns:serif="http://www.serif.com/" style="fill-rule:evenodd;clip-rule:evenodd;stroke-linejoin:round;stroke-miterlimit:2;">
    <g transform="matrix(1.287672,0,0,1.349397,-356.990589,-1081.518348)">
        <g transform="matrix(0.578333,0,0,0.578333,444.142331,592.676741)">
            <path d="M556.355,369.832C571.896,409.697 602.302,568.483 558.382,801.595C546.895,739.432 509.733,411.724 509.057,406.994C506.354,394.156 516.489,384.697 516.489,384.697L516.489,375.913L427.299,375.913L427.299,384.697C427.299,384.697 440.813,394.156 442.84,406.994C443.515,409.021 462.435,560.375 477.975,681.323C474.597,718.486 468.516,758.351 460.407,801.595C449.596,739.432 412.434,411.724 411.758,406.994C409.055,394.156 418.515,384.697 418.515,384.697L418.515,375.913L330,375.913L330,384.697C330,384.697 342.838,394.156 345.541,406.994C346.216,410.373 397.569,817.812 399.596,827.947L452.299,847.542L464.462,847.542C465.137,844.164 473.921,799.568 485.408,738.756C491.489,788.757 496.219,825.244 496.895,827.947L549.598,847.542L562.436,847.542C563.788,837.407 630.68,501.591 630.68,399.562C608.383,387.4 569.869,367.805 556.355,361.048L556.355,369.832Z" style="fill:none;fill-rule:nonzero;stroke:black;stroke-width:3.28px;"/>
        </g>
        <g transform="matrix(0.578333,0,0,0.578333,444.142331,592.676741)">
            <path d="M736.763,370.507C700.952,370.507 678.654,411.724 678.654,454.292L727.304,544.159L734.736,544.159C725.277,502.942 717.844,491.455 717.844,421.184C717.844,399.562 723.925,386.048 734.06,386.048C748.926,386.048 765.142,427.941 765.142,523.212L765.142,564.429C754.331,556.321 742.844,552.943 730.006,552.943C684.735,552.943 652.302,622.538 652.302,715.107C652.302,788.082 672.573,847.542 717.168,847.542C740.817,847.542 756.358,823.217 765.818,786.73L821.9,849.569L829.332,849.569L829.332,523.212C829.332,430.643 790.142,370.507 736.763,370.507ZM742.169,793.487C732.709,793.487 723.25,779.973 723.25,700.242C723.25,620.511 732.033,569.835 746.899,569.835C752.98,569.835 759.737,573.213 765.142,581.997L765.142,654.971C763.115,706.999 758.385,793.487 742.169,793.487Z" style="fill:none;fill-rule:nonzero;stroke:black;stroke-width:3.28px;"/>
        </g>
        <g transform="matrix(0.578333,0,0,0.578333,444.142331,592.676741)">
            <path d="M1028.66,811.731L1028.66,473.887C1028.66,396.859 1007.038,370.507 977.983,370.507C952.307,370.507 937.442,383.345 925.28,414.427L925.28,375.913L914.469,375.913C902.982,431.995 849.603,454.968 849.603,454.968L849.603,463.752C849.603,463.752 861.09,466.455 861.09,479.293L861.09,811.731C861.09,824.569 849.603,834.028 849.603,834.028L849.603,842.812L936.766,842.812L936.766,834.028C936.766,834.028 925.28,824.569 925.28,811.731L925.28,496.185C925.28,422.535 947.577,400.238 952.983,400.238C962.443,400.238 964.47,412.4 964.47,473.887L964.47,811.731C964.47,824.569 952.983,834.028 952.983,834.028L952.983,842.812L1040.146,842.812L1040.146,834.028C1040.146,834.028 1028.66,824.569 1028.66,811.731Z" style="fill:none;fill-rule:nonzero;stroke:black;stroke-width:3.28px;"/>
        </g>
        <g transform="matrix(0.578333,0,0,0.578333,444.142331,592.676741)">
            <path d="M1248.258,811.731L1248.258,473.887C1248.258,396.859 1226.636,370.507 1197.581,370.507C1171.905,370.507 1157.04,383.345 1144.878,414.427L1144.878,375.913L1134.067,375.913C1122.58,431.995 1069.201,454.968 1069.201,454.968L1069.201,463.752C1069.201,463.752 1080.688,466.455 1080.688,479.293L1080.688,811.731C1080.688,824.569 1069.201,834.028 1069.201,834.028L1069.201,842.812L1156.365,842.812L1156.365,834.028C1156.365,834.028 1144.878,824.569 1144.878,811.731L1144.878,496.185C1144.878,422.535 1167.175,400.238 1172.581,400.238C1182.041,400.238 1184.068,412.4 1184.068,473.887L1184.068,811.731C1184.068,824.569 1172.581,834.028 1172.581,834.028L1172.581,842.812L1259.745,842.812L1259.745,834.028C1259.745,834.028 1248.258,824.569 1248.258,811.731Z" style="fill:none;fill-rule:nonzero;stroke:black;stroke-width:3.28px;"/>
        </g>
        <g transform="matrix(0.578333,0,0,0.578333,444.142331,592.676741)">
            <path d="M1348.259,370.507C1312.448,370.507 1290.15,411.724 1290.15,454.292L1338.8,544.159L1346.232,544.159C1336.773,502.942 1329.34,491.455 1329.34,421.184C1329.34,399.562 1335.421,386.048 1345.557,386.048C1360.422,386.048 1376.638,427.941 1376.638,523.212L1376.638,564.429C1365.827,556.321 1354.341,552.943 1341.503,552.943C1296.232,552.943 1263.799,622.538 1263.799,715.107C1263.799,788.082 1284.069,847.542 1328.665,847.542C1352.314,847.542 1367.854,823.217 1377.314,786.73L1433.396,849.569L1440.828,849.569L1440.828,523.212C1440.828,430.643 1401.639,370.507 1348.259,370.507ZM1353.665,793.487C1344.205,793.487 1334.746,779.973 1334.746,700.242C1334.746,620.511 1343.53,569.835 1358.395,569.835C1364.476,569.835 1371.233,573.213 1376.638,581.997L1376.638,654.971C1374.611,706.999 1369.881,793.487 1353.665,793.487Z" style="fill:none;fill-rule:nonzero;stroke:black;stroke-width:3.28px;"/>
        </g>
        <g transform="matrix(0.632203,0,0,0.390621,344.296349,713.054896)">
            <path d="M612.437,1602.284L612.437,1264.441C612.437,1187.412 590.815,1161.06 561.76,1161.06C533.382,1161.06 517.841,1176.601 505.003,1215.115C497.57,1175.926 480.002,1161.06 458.38,1161.06C432.704,1161.06 417.839,1173.899 405.677,1204.98L405.677,1166.466L394.866,1166.466C383.379,1222.548 330,1245.521 330,1245.521L330,1254.305C330,1254.305 341.487,1257.008 341.487,1269.846L341.487,1602.284C341.487,1615.122 330,1624.581 330,1624.581L330,1633.365L417.164,1633.365L417.164,1624.581C417.164,1624.581 405.677,1615.122 405.677,1602.284L405.677,1286.738C405.677,1213.088 427.975,1190.791 433.38,1190.791C442.84,1190.791 444.867,1202.953 444.867,1264.441L444.867,1602.284C444.867,1615.122 433.38,1624.581 433.38,1624.581L433.38,1633.365L520.544,1633.365L520.544,1624.581C520.544,1624.581 509.057,1615.122 509.057,1602.284L509.057,1286.738C509.057,1213.088 530.679,1190.791 536.76,1190.791C546.22,1190.791 548.247,1202.953 548.247,1264.441L548.247,1602.284C548.247,1615.122 536.76,1624.581 536.76,1624.581L536.76,1633.365L623.924,1633.365L623.924,1624.581C623.924,1624.581 612.437,1615.122 612.437,1602.284Z" style="fill:none;fill-rule:nonzero;stroke:black;stroke-width:3.65px;"/>
        </g>
        <g transform="matrix(0.632203,0,0,0.390621,344.296349,713.054896)">
            <path d="M711.763,1161.06C675.951,1161.06 653.654,1202.277 653.654,1244.846L702.303,1334.712L709.736,1334.712C700.276,1293.495 692.844,1282.008 692.844,1211.737C692.844,1190.115 698.925,1176.601 709.06,1176.601C723.925,1176.601 740.142,1218.494 740.142,1313.766L740.142,1354.982C729.331,1346.874 717.844,1343.496 705.006,1343.496C659.735,1343.496 627.302,1413.092 627.302,1505.661C627.302,1578.635 647.573,1638.095 692.168,1638.095C715.817,1638.095 731.358,1613.77 740.817,1577.283L796.899,1640.122L804.332,1640.122L804.332,1313.766C804.332,1221.197 765.142,1161.06 711.763,1161.06ZM717.168,1584.04C707.709,1584.04 698.249,1570.526 698.249,1490.795C698.249,1411.064 707.033,1360.388 721.898,1360.388C727.979,1360.388 734.736,1363.766 740.142,1372.55L740.142,1445.524C738.115,1497.552 733.385,1584.04 717.168,1584.04Z" style="fill:none;fill-rule:nonzero;stroke:black;stroke-width:3.65px;"/>
        </g>
        <g transform="matrix(0.783917,0,0,0.484361,-214.515451,922.820311)">
            <path d="M711.763,1161.06C675.951,1161.06 653.654,1202.277 653.654,1244.846L702.303,1334.712L709.736,1334.712C700.276,1293.495 692.844,1282.008 692.844,1211.737C692.844,1190.115 698.925,1176.601 709.06,1176.601C723.925,1176.601 740.142,1218.494 740.142,1313.766L740.142,1354.982C729.331,1346.874 717.844,1343.496 705.006,1343.496C659.735,1343.496 627.302,1413.092 627.302,1505.661C627.302,1578.635 647.573,1638.095 692.168,1638.095C715.817,1638.095 731.358,1613.77 740.817,1577.283L796.899,1640.122L804.332,1640.122L804.332,1313.766C804.332,1221.197 765.142,1161.06 711.763,1161.06ZM717.168,1584.04C707.709,1584.04 698.249,1570.526 698.249,1490.795C698.249,1411.064 707.033,1360.388 721.898,1360.388C727.979,1360.388 734.736,1363.766 740.142,1372.55L740.142,1445.524C738.115,1497.552 733.385,1584.04 717.168,1584.04Z" style="fill:none;fill-rule:nonzero;stroke:black;stroke-width:2.94px;"/>
        </g>
        <g transform="matrix(0.632203,0,0,0.390621,344.296349,713.054896)">
            <path d="M956.361,1175.25C956.361,1175.25 970.551,1179.98 970.551,1197.548C970.551,1234.035 950.956,1315.117 900.279,1452.957L900.279,1042.14L889.468,1042.14C877.982,1098.222 824.602,1121.195 824.602,1121.195L824.602,1129.979C824.602,1129.979 836.089,1132.682 836.089,1145.52L836.089,1602.284C836.089,1615.122 824.602,1624.581 824.602,1624.581L824.602,1633.365L911.766,1633.365L911.766,1624.581C911.766,1624.581 900.279,1615.122 900.279,1602.284L900.279,1492.147C902.306,1486.066 905.009,1479.984 907.712,1473.228C919.199,1523.904 936.091,1606.338 942.848,1626.608L1026.633,1650.933L1026.633,1642.149C1009.065,1624.581 946.226,1554.31 915.82,1453.633C952.983,1360.388 1007.038,1229.981 1026.633,1175.25L1026.633,1166.466L956.361,1166.466L956.361,1175.25Z" style="fill:none;fill-rule:nonzero;stroke:black;stroke-width:3.65px;"/>
        </g>
        <g transform="matrix(0.632203,0,0,0.390621,344.296349,713.054896)">
            <path d="M1121.905,1588.77C1100.958,1588.77 1083.39,1521.201 1077.985,1446.876L1169.878,1318.495C1169.878,1275.927 1155.689,1161.06 1107.039,1161.06C1048.93,1161.06 1007.713,1280.657 1007.713,1427.957C1007.713,1553.634 1046.228,1638.095 1097.58,1638.095C1146.229,1638.095 1174.608,1572.554 1174.608,1466.471L1166.5,1454.308C1165.824,1515.796 1145.554,1588.77 1121.905,1588.77ZM1109.742,1176.601C1128.661,1176.601 1128.661,1239.44 1128.661,1260.386C1128.661,1327.279 1103.661,1381.334 1076.634,1427.281L1076.634,1402.956C1076.634,1274.576 1094.877,1176.601 1109.742,1176.601Z" style="fill:none;fill-rule:nonzero;stroke:black;stroke-width:3.65px;"/>
        </g>
        <g transform="matrix(0.676228,0,0,0.676228,259.447264,123.606622)">
            <path d="M405.001,1951.614C367.163,1951.614 330,1957.019 330,1957.019L330,1965.803C330,1965.803 341.487,1975.263 341.487,1988.101L341.487,2392.837C341.487,2405.675 330,2415.135 330,2415.135L330,2423.918L417.164,2423.918L417.164,2415.135C417.164,2415.135 405.677,2405.675 405.677,2392.837L405.677,2284.727C459.732,2257.7 506.354,2181.347 506.354,2099.589C506.354,2019.858 470.543,1951.614 405.001,1951.614ZM405.677,2269.862L405.677,1971.884C405.677,1971.884 406.353,1967.154 411.758,1967.154C434.056,1967.154 435.407,2049.588 435.407,2099.589C435.407,2162.428 431.353,2234.051 405.677,2269.862Z" style="fill:none;fill-rule:nonzero;stroke:black;stroke-width:2.8px;"/>
        </g>
        <g transform="matrix(0.676228,0,0,0.676228,259.447264,123.606622)">
            <path d="M653.654,1951.614C631.356,1951.614 614.464,1974.587 602.977,2023.236L602.977,1957.019L592.166,1957.019C580.68,2013.101 527.3,2036.074 527.3,2036.074L527.3,2044.858C527.3,2044.858 538.787,2047.561 538.787,2060.399L538.787,2392.837C538.787,2405.675 527.3,2415.135 527.3,2415.135L527.3,2423.918L614.464,2423.918L614.464,2415.135C614.464,2415.135 602.977,2405.675 602.977,2392.837L602.977,2104.319C602.977,2041.48 623.248,1988.776 638.789,1988.776C648.924,1988.776 655.005,1998.912 655.005,2012.425C655.005,2054.318 637.437,2110.4 623.924,2164.455L631.356,2164.455L698.925,2035.399C698.925,1992.83 688.789,1951.614 653.654,1951.614Z" style="fill:none;fill-rule:nonzero;stroke:black;stroke-width:2.8px;"/>
        </g>
        <g transform="matrix(0.676228,0,0,0.676228,259.447264,123.606622)">
            <path d="M829.332,2379.323C808.386,2379.323 790.818,2311.754 785.413,2237.429L877.306,2109.049C877.306,2066.48 863.117,1951.614 814.467,1951.614C756.358,1951.614 715.141,2071.21 715.141,2218.51C715.141,2344.187 753.655,2428.648 805.008,2428.648C853.657,2428.648 882.036,2363.107 882.036,2257.024L873.928,2244.862C873.252,2306.349 852.981,2379.323 829.332,2379.323ZM817.17,1967.154C836.089,1967.154 836.089,2029.993 836.089,2050.94C836.089,2117.832 811.089,2171.887 784.061,2217.834L784.061,2193.509C784.061,2065.129 802.305,1967.154 817.17,1967.154Z" style="fill:none;fill-rule:nonzero;stroke:black;stroke-width:2.8px;"/>
        </g>
        <g transform="matrix(0.676228,0,0,0.676228,259.447264,123.606622)">
            <path d="M977.983,1971.884L1005.011,1971.884L1005.011,1957.019L977.983,1957.019L977.983,1877.964L967.172,1877.964C955.686,1934.046 902.306,1957.019 902.306,1957.019L902.306,1965.803C902.306,1965.803 913.793,1968.506 913.793,1981.344L913.793,2242.159C913.793,2377.972 969.875,2404.999 1010.416,2434.054L1010.416,2421.891C993.524,2398.918 977.983,2363.782 977.983,2253.645L977.983,1971.884Z" style="fill:none;fill-rule:nonzero;stroke:black;stroke-width:2.8px;"/>
        </g>
        <g transform="matrix(0.676228,0,0,0.676228,259.447264,123.606622)">
            <path d="M1106.364,1971.884L1133.391,1971.884L1133.391,1957.019L1106.364,1957.019L1106.364,1877.964L1095.553,1877.964C1084.066,1934.046 1030.687,1957.019 1030.687,1957.019L1030.687,1965.803C1030.687,1965.803 1042.174,1968.506 1042.174,1981.344L1042.174,2242.159C1042.174,2377.972 1098.255,2404.999 1138.797,2434.054L1138.797,2421.891C1121.905,2398.918 1106.364,2363.782 1106.364,2253.645L1106.364,1971.884Z" style="fill:none;fill-rule:nonzero;stroke:black;stroke-width:2.8px;"/>
        </g>
        <g transform="matrix(0.676228,0,0,0.676228,259.447264,123.606622)">
            <path d="M1248.258,1957.019L1248.258,1965.803C1248.258,1965.803 1312.448,2007.02 1312.448,2098.238L1312.448,2115.13C1312.448,2177.293 1293.529,2200.266 1270.556,2200.266C1239.474,2200.266 1217.176,2169.86 1217.176,2101.616L1217.176,1957.019L1206.365,1957.019C1194.879,2013.101 1141.499,2036.074 1141.499,2036.074L1141.499,2044.858C1141.499,2044.858 1152.986,2047.561 1152.986,2060.399C1152.986,2060.399 1152.986,2058.372 1152.986,2113.103C1152.986,2180.671 1190.825,2227.294 1236.096,2227.294C1245.555,2227.294 1255.015,2225.267 1263.123,2221.888L1263.123,2282.7C1263.123,2392.837 1245.555,2413.783 1230.014,2413.783C1219.879,2413.783 1216.501,2392.837 1216.501,2377.972C1216.501,2331.349 1239.474,2280.673 1248.258,2239.456L1240.825,2239.456L1172.581,2349.593C1172.581,2392.161 1214.474,2433.378 1249.609,2433.378C1291.502,2433.378 1327.313,2407.026 1327.313,2271.213L1327.313,1957.019L1248.258,1957.019Z" style="fill:none;fill-rule:nonzero;stroke:black;stroke-width:2.8px;"/>
        </g>
        <g transform="matrix(0.745084,0,0,0.745084,-540.870131,352.865997)">
            <path d="M1729.347,2392.837C1728.671,2389.458 1680.021,2005.669 1673.265,1957.019L1609.074,1957.019C1606.372,1970.533 1598.263,2010.398 1589.48,2061.751C1583.398,2016.48 1577.317,1971.884 1575.29,1957.019L1492.856,1957.019L1492.856,1965.803C1492.856,1965.803 1504.343,1977.965 1504.343,1988.101C1504.343,1992.155 1503.667,1999.587 1502.992,2005.669C1490.154,2107.021 1468.532,2322.565 1468.532,2400.269C1490.829,2412.432 1529.343,2432.027 1542.857,2438.108L1542.857,2429.324C1527.316,2390.134 1492.856,2265.808 1516.505,1999.587C1527.992,2063.778 1564.479,2388.107 1565.83,2392.837C1567.858,2405.675 1558.398,2415.135 1558.398,2415.135L1558.398,2423.918L1646.913,2423.918L1646.913,2415.135C1646.913,2415.135 1634.075,2405.675 1632.048,2392.837C1631.372,2390.81 1612.453,2240.807 1596.912,2119.184C1600.29,2081.345 1605.696,2041.48 1613.804,1998.236C1625.291,2060.399 1662.454,2388.107 1663.129,2392.837C1665.832,2405.675 1655.697,2415.135 1655.697,2415.135L1655.697,2423.918L1744.887,2423.918L1744.887,2415.135C1744.887,2415.135 1731.374,2405.675 1729.347,2392.837Z" style="fill:rgb(35,31,32);fill-rule:nonzero;"/>
        </g>
        <g transform="matrix(0.745084,0,0,0.745084,-540.870131,352.865997)">
            <path d="M1842.862,2409.053L1842.862,2136.752L1846.916,2136.752C1872.592,2136.752 1878.673,2209.05 1878.673,2209.05L1887.457,2209.05L1887.457,2090.805L1878.673,2090.805C1878.673,2090.805 1869.214,2121.887 1846.916,2121.887L1842.862,2121.887L1842.862,1975.938C1867.187,1996.209 1898.268,2084.724 1898.268,2084.724L1907.052,2084.724L1895.565,1950.262L1886.782,1950.262C1886.782,1950.262 1875.971,1957.019 1854.349,1957.019L1767.185,1957.019L1767.185,1965.803C1767.185,1965.803 1778.672,1975.263 1778.672,1988.101L1778.672,2392.837C1778.672,2405.675 1767.185,2415.135 1767.185,2415.135L1767.185,2423.918L1863.808,2423.918C1885.43,2423.918 1896.241,2430.675 1896.241,2430.675L1905.025,2430.675L1920.566,2224.591L1911.782,2224.591C1911.782,2224.591 1867.862,2409.053 1842.862,2409.053Z" style="fill:rgb(35,31,32);fill-rule:nonzero;"/>
        </g>
        <g transform="matrix(0.745084,0,0,0.745084,-540.870131,352.865997)">
            <path d="M2034.757,1967.154C2044.892,1967.154 2055.703,1974.587 2055.703,1996.209C2055.703,2026.615 2050.973,2046.21 2042.189,2096.886L2050.298,2096.886L2091.515,2017.155C2091.515,1979.992 2062.46,1951.614 2032.73,1951.614C2001.648,1951.614 1937.458,1982.02 1937.458,2054.318C1937.458,2138.779 2040.838,2199.591 2040.838,2336.079C2040.838,2384.053 2028,2413.783 2012.459,2413.783C1988.81,2413.783 1973.945,2375.269 1973.945,2307.025C1973.945,2265.132 1973.269,2259.727 1973.269,2216.483L1965.837,2216.483L1937.458,2338.106C1937.458,2379.999 1961.783,2428.648 2012.459,2428.648C2069.893,2428.648 2112.461,2342.836 2112.461,2278.646C2112.461,2188.104 2009.081,2111.076 2009.081,2016.48C2009.081,1984.722 2019.892,1967.154 2034.757,1967.154Z" style="fill:rgb(35,31,32);fill-rule:nonzero;"/>
        </g>
        <g transform="matrix(0.745084,0,0,0.745084,-540.870131,352.865997)">
            <path d="M2229.355,1967.154C2239.49,1967.154 2250.301,1974.587 2250.301,1996.209C2250.301,2026.615 2245.571,2046.21 2236.787,2096.886L2244.895,2096.886L2286.112,2017.155C2286.112,1979.992 2257.058,1951.614 2227.328,1951.614C2196.246,1951.614 2132.056,1982.02 2132.056,2054.318C2132.056,2138.779 2235.436,2199.591 2235.436,2336.079C2235.436,2384.053 2222.598,2413.783 2207.057,2413.783C2183.408,2413.783 2168.543,2375.269 2168.543,2307.025C2168.543,2265.132 2167.867,2259.727 2167.867,2216.483L2160.435,2216.483L2132.056,2338.106C2132.056,2379.999 2156.38,2428.648 2207.057,2428.648C2264.49,2428.648 2307.059,2342.836 2307.059,2278.646C2307.059,2188.104 2203.678,2111.076 2203.678,2016.48C2203.678,1984.722 2214.489,1967.154 2229.355,1967.154Z" style="fill:rgb(35,31,32);fill-rule:nonzero;"/>
        </g>
        <g transform="matrix(0.986691,0.148397,-0.148397,0.986691,-797.244048,-470.036814)">
            <path d="M2408.411,2398.918C2408.411,2379.323 2392.871,2363.782 2373.951,2363.782C2354.357,2363.782 2338.816,2379.323 2338.816,2398.918C2338.816,2417.837 2354.357,2433.378 2373.951,2433.378C2392.871,2433.378 2408.411,2417.837 2408.411,2398.918ZM2385.438,2177.969C2375.979,2136.752 2365.843,2055.669 2365.843,2002.29C2365.843,1980.668 2371.249,1967.154 2382.06,1967.154C2396.925,1967.154 2412.466,1998.912 2412.466,2081.345C2412.466,2203.645 2366.519,2283.376 2366.519,2337.431L2380.708,2337.431C2380.708,2252.294 2484.088,2128.643 2484.088,2046.21C2484.088,1984.722 2442.196,1951.614 2384.087,1951.614C2348.951,1951.614 2326.653,1992.83 2326.653,2035.399L2378.006,2177.969L2385.438,2177.969Z" style="fill:rgb(35,31,32);fill-rule:nonzero;"/>
        </g>
    </g>
</svg>
