<?xml version="1.0" encoding="UTF-8" standalone="no"?>
<!DOCTYPE svg PUBLIC "-//W3C//DTD SVG 1.1//EN" "http://www.w3.org/Graphics/SVG/1.1/DTD/svg11.dtd">
<svg width="100%" height="100%" viewBox="0 0 2000 2000" version="1.1" xmlns="http://www.w3.org/2000/svg" xmlns:xlink="http://www.w3.org/1999/xlink" xml:space="preserve" xmlns:serif="http://www.serif.com/" style="fill-rule:evenodd;clip-rule:evenodd;stroke-linejoin:round;stroke-miterlimit:2;">
    <g transform="matrix(-19.137824,-10.319477,12.729964,-23.608153,-5044.755542,31182.566212)">
        <path d="M437.57,1071.524C449.362,1071.277 456.033,1077.826 456.957,1089.525C458.334,1106.966 445.993,1122.783 428.598,1130.425L420.404,1124.029C451.379,1119.034 453.848,1102.59 453.988,1091.239C453.988,1091.239 450.88,1099.404 435.353,1099.521C429.824,1099.563 418.562,1095.256 419.053,1086.535C419.618,1076.49 427.731,1071.73 437.57,1071.524ZM395.173,1068.662C406.965,1068.415 413.636,1074.964 414.56,1086.663C415.937,1104.104 403.596,1119.921 386.201,1127.563L378.007,1121.167C408.982,1116.172 411.451,1099.728 411.591,1088.377C411.591,1088.377 408.484,1096.542 392.956,1096.659C387.427,1096.701 376.165,1092.394 376.656,1083.673C377.221,1073.628 385.334,1068.868 395.173,1068.662Z" style="fill-opacity:0;stroke:white;stroke-width:0.26px;"/>
    </g>
</svg>
