<?xml version="1.0" encoding="UTF-8" standalone="no"?>
<!DOCTYPE svg PUBLIC "-//W3C//DTD SVG 1.1//EN" "http://www.w3.org/Graphics/SVG/1.1/DTD/svg11.dtd">
<svg width="100%" height="100%" viewBox="0 0 1575 574" version="1.1" xmlns="http://www.w3.org/2000/svg" xmlns:xlink="http://www.w3.org/1999/xlink" xml:space="preserve" xmlns:serif="http://www.serif.com/" style="fill-rule:evenodd;clip-rule:evenodd;stroke-linejoin:round;stroke-miterlimit:2;">
    <g id="Artboard1" transform="matrix(0.909879,0,0,0.396135,1681.455806,-20.202899)">
        <rect x="-1848" y="51" width="1731" height="1449" style="fill:none;"/>
        <g transform="matrix(1.802168,-0.189881,0.086701,4.341294,-1923.962504,-250.359876)">
            <path d="M686.175,327.824C685.372,327.791 685.255,328.099 683.249,337.433C682.368,341.534 685.225,344.35 685.236,348.494C685.291,370.325 693.259,377.448 680.236,395.308C671.331,407.521 639.878,402.63 649.677,356.539C651.175,349.49 647.051,336.36 647.816,331.544C649.782,319.166 643.995,319.948 643.495,307.5C642.542,283.727 617.152,257.787 598.881,278.836C581.939,298.356 625.051,361.829 593.266,377.019C579.121,383.779 574.908,376.998 568.709,370.307C562.839,363.971 553.653,314.434 540.172,297.757C517.207,269.348 513.193,271.503 510.562,271.152C473.112,266.16 479.568,289.406 480.076,328.498C480.143,333.612 476.5,342.525 476.366,343.476C471.712,376.561 438.695,373.366 427.818,356.296C420.466,344.758 417.835,312.928 417.975,309.504C418.885,287.266 415.418,287.579 415.397,265.5C415.314,177.44 457.383,190.426 463.463,190.025C474.245,189.314 491.421,178.312 526.936,209.002C536.558,217.317 540.123,213.754 545.733,225.38C554.423,243.39 564.26,221.889 568.861,217.948C575.955,211.872 598.837,208.174 601.541,207.737C651.375,199.684 652.487,224.854 666.067,250.728C676.214,270.062 673.852,281.426 677.834,287.34C678.884,288.899 678.518,286.712 686.925,265.672C699.073,235.268 694.698,234.205 695.765,231.599C700.632,219.714 701.912,220.425 703.553,216.528C705.027,213.028 717.331,183.812 727.563,175.576C744.248,162.144 753.25,152.965 771.466,149.34C773.316,148.972 794.206,144.816 794.577,144.687C799.598,142.95 846.548,126.703 852.306,177.526C854.366,195.701 858.22,195.254 856.77,213.512C856.161,221.185 863.08,224.903 839.898,256.77C811.705,295.525 772.486,280.144 747.82,301.878C721.476,325.091 768.046,322.42 769.358,322.907C777.2,325.812 777.123,325.815 785.553,324.924C806.467,322.714 806.045,321.302 825.418,313.292C846.172,304.711 850.546,278.079 872.455,275.244C897.903,271.952 912.057,293.613 914.108,296.752C919.624,305.192 918.207,311.658 923.823,306.856C957.374,278.172 987.414,322.352 981.947,344.614C969.601,394.882 937.516,397.732 916.759,352.379C912.893,343.931 911.479,352.18 905.243,359.256C902.372,362.514 879.36,375.329 869.512,375.786C858.659,376.29 858.72,380.044 848.429,376.72C838.47,373.504 835.042,379.133 827.597,378.021C804.057,374.504 772.935,379.449 768.531,378.382C693.473,360.196 687.146,329.968 686.175,327.824ZM799.402,187.073C763.25,195.882 764.354,199.748 741.722,227.665C731.858,239.833 741.552,261.885 773.406,253.05C816.937,240.976 818.366,237.386 819.855,233.645C823.477,224.544 824.899,183.294 799.402,187.073ZM228.639,318.621C226.76,324.138 213.515,363.022 191.216,381.124C189.804,382.27 175.844,393.602 173.24,395.057C165.449,399.409 139.831,401.119 139.527,401.107C137.622,401.026 101.761,385.483 95.617,376.417C74.692,345.538 64.163,345.555 56.511,323.497C55.239,319.83 60.159,303.797 60.875,302.753C86.522,265.375 126.478,283.878 134.295,320.552C140.869,351.395 168.755,338.477 178.465,328.468C184.951,321.783 193.15,303.139 193.21,301.473C193.713,287.302 197.44,286.016 197.483,280.499C197.872,230.853 157.412,251.083 139.47,244.589C96.695,229.105 93.818,238.513 67.571,225.356C63.564,223.347 35.895,209.477 38.443,177.496C39.917,159 37.833,158.977 38.374,157.469C44.702,139.816 51.387,132.091 52.115,130.331C64.242,101.013 116.25,76.873 178.548,87.146C189.929,89.022 190.354,84.229 198.348,86.94C219.058,93.964 232.832,95.52 237.599,112.473C250.847,159.597 201.284,172.397 175.775,157.078C161.245,148.353 161.636,147.781 145.406,142.804C112.954,132.854 102.52,154.669 101.657,157.549C90.114,196.044 159.249,207.256 160.518,207.342C165.358,207.67 203.429,210.254 219.117,222.974C243.222,242.52 236.034,274.289 239.349,270.329C252.77,254.296 254.771,256.984 273.612,248.768C316.739,229.964 338.502,258.034 347.614,254.874C367.985,247.809 324.384,206.616 301.585,213.779C298.292,214.814 273.612,222.568 258.801,208.194C241.423,191.33 234.683,164.881 240.928,154.777C264.386,116.824 308.155,134.785 313.698,137.06C318.521,139.039 349.143,151.606 366.123,175.768C368.189,178.709 387.521,206.219 390.493,213.504C402.133,242.036 401.187,243.834 398.906,307.498C398.245,325.954 416.049,349.11 416.588,350.465C421.336,362.383 407.689,376.829 389.39,367.708C367.674,356.883 295.806,406.49 261.751,385.123C235.137,368.425 237.504,345.809 237.478,345.501C236.998,339.785 231.803,341.241 229.501,318.497L228.639,318.621ZM309.438,290.015C267.138,296.805 284.581,344.47 299.522,338.556C307.482,335.405 325.369,318.68 329.662,316.873C331.738,316 352.776,310.386 348.607,302.433C347.077,299.512 335.828,296.352 334.644,296.019C321.977,292.46 322.618,289.806 309.438,290.015Z" style="fill:rgb(253,0,101);"/>
        </g>
    </g>
</svg>
