<?xml version="1.0" encoding="UTF-8" standalone="no"?>
<!DOCTYPE svg PUBLIC "-//W3C//DTD SVG 1.1//EN" "http://www.w3.org/Graphics/SVG/1.1/DTD/svg11.dtd">
<svg width="100%" height="100%" viewBox="0 0 479 319" version="1.1" xmlns="http://www.w3.org/2000/svg" xmlns:xlink="http://www.w3.org/1999/xlink" xml:space="preserve" xmlns:serif="http://www.serif.com/" style="fill-rule:evenodd;clip-rule:evenodd;stroke-linejoin:round;stroke-miterlimit:2;">
    <g transform="matrix(1.416892,0,0,1.416892,-52.856629,-18.28909)">
        <path d="M370.034,123.5C369.489,131.565 347.196,191.547 342.44,198.457C338.638,203.982 339.412,235.512 334.563,233.197C328.747,230.42 324.794,231.439 327.722,225.606C331.536,218.011 324.736,216.493 329.51,209.506C329.779,209.112 329.751,202.941 333.006,197.252C333.755,195.942 332.679,195.687 339.899,179.685C343.716,171.228 342.513,170.949 346.697,162.641C351.757,152.591 354.477,135.652 357.473,130.487C358.199,129.236 366.026,99.018 358.216,107.214C344.755,121.339 339.706,140.846 333.695,149.632C331.166,153.327 331.908,153.544 329.422,157.439C325.413,163.718 308.625,163.065 303.461,151.513C298.796,141.079 296.697,157.362 296.704,157.372C313.934,178.702 262.485,191.164 241.342,201.119C240.443,201.542 234.723,204.235 229.543,204.986C229.171,205.04 198.667,216.578 191.458,217.096C186.867,217.426 128.136,242.524 101.457,229.627C91.013,224.578 92.364,222.358 81.401,218.725C77.15,217.317 75.71,199.659 71.871,211.589C68.001,223.611 51.862,244.709 41.732,221.384C40.222,217.906 37.28,195.902 44.201,181.363C50.855,167.386 49.377,166.31 66.752,149.774C67.972,148.613 75.953,150.312 81.519,147.555C82.722,146.959 92.428,153.197 88.108,162.354C85.368,168.164 88.838,169.058 85.719,174.631C78.878,186.853 78.226,230.243 82.958,202.679C84.05,196.314 91.364,188.418 92.341,187.363C100.067,179.022 98.115,177.944 98.432,166.49C98.467,165.198 99.692,165.509 100.223,150.437C100.259,149.432 103.602,141.483 103.925,140.716C104.312,139.795 105.775,136.317 116.362,141.825C119.956,143.695 105.742,170.957 115.634,160.637C122.653,153.315 252.431,38.821 274.483,29.465C275.835,28.892 275.351,28.061 290.535,20.557C308.075,11.889 326.608,21.976 312.184,53.385C310.694,56.629 313.82,57.716 297.676,95.586C296.612,98.082 282.694,100.18 291.303,83.41C294.763,76.672 317.898,17.606 302.436,26.354C296.699,29.6 288.518,31.022 280.512,37.514C277.752,39.752 276.317,37.718 244.427,63.402C198.779,100.166 191.695,107.263 187.482,111.482C185.521,113.447 184.586,112.353 161.228,134.181C159.756,135.557 153.891,137.211 156.57,138.386C167.953,143.381 162.034,147.97 168.209,158.658C168.803,159.685 166.716,160.263 173.455,172.528C181.282,186.772 177.734,167.749 185.693,153.601C186.079,152.914 185.649,152.764 189.284,144.436C189.523,143.887 196.882,127.921 204.296,130.966C207.514,132.287 211.073,128.964 215.422,137.529C215.805,138.282 215.96,156.194 215.23,157.325C211.912,162.46 216.771,164.014 218.711,160.612C222.637,153.725 238.165,110.222 258.569,120.363C259.598,120.874 265.384,119.857 266.64,129.482C267.264,134.259 269.792,133.34 270.164,139.528C270.383,143.189 286.661,152.667 289.604,146.547C304.99,114.551 298.511,105.855 304.476,107.601C311.194,109.568 313.631,108.525 313.664,113.499C313.69,117.495 308.746,156.254 316.517,155.672C323.616,155.141 346.15,90.384 358.388,97.694C358.802,97.942 365.397,97.972 369.252,101.736C369.26,101.744 374.717,112.223 370.468,119.481C370.304,119.76 370.436,119.778 370.034,123.5ZM76.965,160.499C76.563,158.522 70.704,152.82 57.445,176.46C45.875,197.089 46.782,219.59 47.4,221.534C50.279,230.594 63.507,206.144 64.425,204.447C66.683,200.273 64.737,199.844 66.743,195.58C74.571,178.942 73.465,178.729 76.965,160.499ZM186.034,188.5C184.796,208.968 167.219,178.608 164.927,176.132C158.319,168.995 155.016,144.299 152.421,146.35C151.654,146.957 139.627,162.879 138.357,170.47C138.189,171.477 135.109,174.851 134.933,178.502C134.41,189.403 130.665,188.084 124.271,200.41C122.109,204.578 109.629,216.385 105.787,213.114C103.934,211.535 102.586,208.155 101.554,212.529C100.842,215.544 87.064,215.942 97.519,222.461C100.337,224.218 124.442,226.394 130.347,223.23C135.033,220.72 136.066,224.649 140.46,221.457C142.411,220.04 143.521,221.884 147.506,219.509C147.589,219.46 156.135,218.887 162.549,215.619C164.132,214.812 177.866,212.766 181.47,210.449C183.129,209.383 199.03,206.983 207.659,201.775C208.619,201.195 211.642,202.592 217.568,198.593C217.984,198.312 218.366,199.367 223.465,196.429C223.821,196.224 281.407,179.003 290.512,164.508C290.758,164.117 294.172,152.245 288.376,161.085C287.803,161.96 270.74,157.18 266.572,153.42C261.801,149.116 246.791,152.327 244.17,144.613C243.181,141.706 246.208,141.689 246.507,141.687C255.433,141.636 260.2,145.38 259.569,136.491C259.508,135.63 259.096,129.841 255.508,126.49C248.274,119.734 223.174,176.59 219.597,176.894C193.004,179.148 211.096,129.613 202.964,140.975C196.422,150.117 186.873,179.817 186.034,188.5ZM98.651,198.535C98.175,195.267 96.425,197.118 94.618,200.554C85.234,218.4 98.468,198.846 98.651,198.535ZM116.817,183.833C126.586,173.266 124.726,171.063 128.912,165.652C144.114,146 110.87,180.97 109.453,182.461C107.597,184.413 109.061,200.043 110.693,193.612C112.13,187.947 114.165,189.16 116.817,183.833ZM280.505,152.435C278.002,152.598 277.103,151.64 277.127,153.506C277.154,155.552 287.479,156.643 280.505,152.435ZM111.466,197.916L109.439,197.634C105.167,195.732 106.882,199.679 107.133,201.584C107.604,205.161 117.878,199.34 111.466,197.916ZM125.194,53.843C130.729,62.106 136.004,63.844 122.106,89.182C121.698,89.926 108.144,90.73 114.866,73.651C116.641,69.14 105.837,63.514 118.837,51.874C121.875,49.154 122.046,51.287 125.194,53.843Z" style="fill:white;"/>
    </g>
</svg>
