<?xml version="1.0" encoding="UTF-8" standalone="no"?>
<!DOCTYPE svg PUBLIC "-//W3C//DTD SVG 1.1//EN" "http://www.w3.org/Graphics/SVG/1.1/DTD/svg11.dtd">
<svg width="100%" height="100%" viewBox="0 0 2000 2000" version="1.1" xmlns="http://www.w3.org/2000/svg" xmlns:xlink="http://www.w3.org/1999/xlink" xml:space="preserve" xmlns:serif="http://www.serif.com/" style="fill-rule:evenodd;clip-rule:evenodd;stroke-linejoin:round;stroke-miterlimit:2;">
    <g>
        <g transform="matrix(5.080526,0,0,5.080526,-0.581828,4.91687)">
            <path d="M113.507,375.04C107.952,374.755 87.362,374.477 69.583,367.289C58.768,362.918 52.361,358.029 52.205,357.925C35.257,346.63 25.536,329.96 22.493,323.503C16.135,310.015 13.16,296.207 12.269,275.511C12.231,274.631 11.928,267.587 11.952,264.496C12.028,254.736 12.075,248.703 12.001,142.497C11.979,109.874 10.01,76.103 31.898,47.808C48.343,26.549 68.923,19.444 71.503,18.508C91.426,11.276 108.759,11.069 154.5,11.132C254.518,11.268 254.514,10.756 279.48,11.817C288.223,12.189 290.294,12.706 291.462,12.818C310.694,14.663 328.71,22.481 340.669,32.282C356.424,45.192 363.223,57.785 367.702,68.412C377.152,90.836 375.631,121.33 375.915,126.479C376.096,129.741 376.02,129.724 376.037,220.501C376.047,275.632 376.453,293.036 369.5,313.5C368.454,316.578 362.683,333.566 347.915,347.932C347.508,348.328 344.682,351.078 342.686,352.734C320.525,371.114 298.547,373.387 282.512,374.672C267.454,375.879 130.073,375.328 113.507,375.04Z" style="fill-opacity:0;stroke:rgb(171,53,255);stroke-width:4.92px;"/>
        </g>
        <g transform="matrix(1.171131,0,0,1.171131,-140.095982,-152.392857)">
            <g transform="matrix(1.364467,0,0,1.364467,-465.330457,-572.174619)">
                <circle cx="1054.5" cy="1139.5" r="491.5" style="fill:rgb(48,167,254);fill-opacity:0;stroke:rgb(171,53,255);stroke-width:15.64px;stroke-linecap:round;stroke-miterlimit:1.5;"/>
            </g>
            <g transform="matrix(1.364467,0,0,1.364467,-451.685787,-610.379695)">
                <path d="M976,678C758.053,889.256 762.168,1284.894 554,1145L570.094,1048.399C729.244,1060.879 751.945,852.709 874.177,706.455" style="fill:none;stroke:rgb(171,53,255);stroke-width:15.64px;stroke-linecap:round;stroke-miterlimit:1.5;"/>
            </g>
            <g transform="matrix(1.364467,0,0,1.364467,-451.685787,-610.379695)">
                <path d="M566,1292C616.83,1373.757 692.585,1394.697 766.612,1348.427C932.982,1244.438 882.552,882.82 1103,680" style="fill:none;stroke:rgb(171,53,255);stroke-width:15.64px;stroke-linecap:round;stroke-miterlimit:1.5;"/>
            </g>
            <g transform="matrix(1.364467,0,0,1.364467,-451.685787,-610.379695)">
                <path d="M1027,1661C1325.365,1628.903 1085.217,1056.326 1361,798" style="fill:none;stroke:rgb(171,53,255);stroke-width:15.64px;stroke-linecap:round;stroke-miterlimit:1.5;"/>
            </g>
        </g>
    </g>
</svg>
