<?xml version="1.0" encoding="UTF-8" standalone="no"?>
<!DOCTYPE svg PUBLIC "-//W3C//DTD SVG 1.1//EN" "http://www.w3.org/Graphics/SVG/1.1/DTD/svg11.dtd">
<svg width="100%" height="100%" viewBox="0 0 2000 2000" version="1.1" xmlns="http://www.w3.org/2000/svg" xmlns:xlink="http://www.w3.org/1999/xlink" xml:space="preserve" xmlns:serif="http://www.serif.com/" style="fill-rule:evenodd;clip-rule:evenodd;stroke-linejoin:round;stroke-miterlimit:2;">
    <g transform="matrix(2.511522,0,0,2.511522,-8.414091,-44.432678)">
        <g id="Threads">
            <path d="M407.5,756.034C298.841,755.201 232.384,721.129 178.904,656.176C87.308,544.931 64.453,233.483 240.761,119.948C351.952,48.345 624.258,37.759 694.011,288.605C695.235,293.004 691.964,292.074 639.503,305.515C633.111,307.153 625.831,219.2 539.283,167.868C473.365,128.772 265.909,91.395 192.836,269.644C154.693,362.688 127.773,664.358 365.556,694.05C594.528,722.641 670.053,528.208 555.294,453.895C550.533,450.812 554.404,470.494 538.211,510.385C534.146,520.399 508.436,583.732 431.464,593.195C299.428,609.428 251.211,501.838 287.75,432.625C336.243,340.77 485.356,368.698 493.509,369.598C494.158,369.67 495.487,369.479 493.706,361.45C488.477,337.874 474.199,298.917 419.475,294.972C347.316,289.77 336.622,334.693 329.738,330.143C326.098,327.738 287.388,302.158 284.823,299.208C282.055,296.025 322.625,237.332 399.502,234.959C560.07,230.003 552.365,385.818 557.585,388.309C712.988,462.454 667.68,607.558 630.14,657.231C553.704,758.372 437.755,756.031 407.5,756.034ZM446.471,424.956C422.818,424.905 347.846,420.485 335.379,473.472C328.232,503.846 356.139,533.857 400.5,535.349C481.744,538.082 491.958,475.304 496.57,433.505C497.204,427.765 458.783,425.824 446.471,424.956Z"/>
        </g>
    </g>
</svg>
