<?xml version="1.0" encoding="UTF-8" standalone="no"?>
<!DOCTYPE svg PUBLIC "-//W3C//DTD SVG 1.1//EN" "http://www.w3.org/Graphics/SVG/1.1/DTD/svg11.dtd">
<svg width="100%" height="100%" viewBox="0 0 3562 750" version="1.1" xmlns="http://www.w3.org/2000/svg" xmlns:xlink="http://www.w3.org/1999/xlink" xml:space="preserve" xmlns:serif="http://www.serif.com/" style="fill-rule:evenodd;clip-rule:evenodd;stroke-linejoin:round;stroke-miterlimit:2;">
    <g transform="matrix(1,0,0,1,-163,-552)">
        <g>
            <g transform="matrix(1,0,0,1,1698,-34)">
                <g transform="matrix(1,0,0,1,969,746)">
                    <path d="M560.115,212.274C560.474,213.136 561.041,212.654 561.393,213.5C561.426,213.578 561.461,213.662 561.041,214.5C560.863,214.855 560.532,215.128 560.392,215.5C560.273,215.814 560.352,216.172 560.285,216.5C560.051,217.647 559.841,217.533 559.137,218.5C558.242,219.731 556.907,223.088 556.743,223.5C555.728,226.052 555.608,225.985 554.477,228.5C553.627,230.391 553.484,230.297 553.412,230.46C553.284,230.751 553.323,231.094 553.218,231.394C552.391,233.777 551.143,234.063 549.632,239.519C549.401,240.353 549.412,246.182 549.495,246.505C549.564,246.773 549.744,247.004 549.812,247.272C548.709,247.569 547.24,247.432 546.673,249.576C546.435,250.475 545.628,253.527 542.034,260.235C541.109,261.961 539.067,266.132 538.815,266.647C538.468,267.355 537.933,269.08 537.196,270.341C536.726,271.144 536.819,271.181 531.891,280.689C531.802,280.862 531.575,281.591 530.152,284.312C529.798,284.99 529.747,285.541 527.65,289.585C526.923,290.985 526.848,290.933 526.204,292.375C526.058,292.701 525.975,292.657 524.236,296.378C523.476,298.005 523.354,297.922 522.679,299.58C522.543,299.912 521.764,301.828 520.763,303.643C519.623,305.712 518.611,308.188 516.726,311.622C516.092,312.778 514.718,316.129 513.012,319.237C512.353,320.436 512.518,320.501 511.828,321.664C510.682,323.599 510.956,323.724 509.799,325.665C509.143,326.767 507.287,330.97 506.053,333.29C504.531,336.152 503.093,339.149 502.846,339.664C502.662,340.046 502.469,340.878 501.538,342.523C499.863,345.483 499.606,346.857 497.983,349.766C497.391,350.828 497.463,350.854 491.249,363.383C490.773,364.344 486.1,373.765 485.366,375.437C484.463,377.493 484.266,377.379 483.435,379.471C482.334,382.242 480.813,383.931 478.125,390.323C477.985,390.654 477.772,390.533 476.156,394.357C475.947,394.85 475.755,394.744 473.13,400.326C472.636,401.377 472.478,401.28 471.515,403.508C471.373,403.836 471.222,403.743 469.542,407.519C469.426,407.78 469.397,407.759 467.986,410.738C467.12,412.566 467.064,412.524 466.216,414.37C465.725,415.441 465.526,415.324 464.602,417.547C464.025,418.933 451.448,443.744 449.105,449.314C448.855,449.906 448.549,449.735 445.49,456.496C442.999,462.002 442.028,462.281 441.477,462.44C440.686,462.668 440.66,462.565 238.5,462.631C224.817,462.636 67.717,462.687 67.468,462.653C64.792,462.292 65.718,461.1 66.829,458.649C67.181,457.873 67.374,457.95 68.472,455.486C69.476,453.231 70.868,450.703 71.093,450.295C71.42,449.7 71.257,449.643 74.894,442.698C76.385,439.85 90.316,411.172 91.803,408.653C92.259,407.881 95.329,401.555 95.368,401.446C96.591,398.055 97.252,397.745 98.706,394.601C98.931,394.116 100.673,390.35 101.744,388.64C102.087,388.093 101.974,388.042 105.295,381.399C106.703,378.584 106.677,378.593 107.996,375.747C108.312,375.066 108.464,375.15 112.211,367.357C112.853,366.022 116.414,358.927 116.62,358.563C118.831,354.666 118.502,354.512 120.626,350.57C120.771,350.3 122.481,346.711 123.223,345.363C123.969,344.01 128.485,334.319 130.997,329.765C131.274,329.263 131.147,329.209 134.195,323.353C134.361,323.035 134.271,322.997 136.163,319.328C136.765,318.16 136.624,318.101 137.939,315.728C140.183,311.678 140.057,310.547 142.901,305.752C143.009,305.57 147.709,296.079 149.845,292.703C150.423,291.789 156.936,279.628 167.33,265.378C175.762,253.816 178.889,251.117 184.174,245.203C186.044,243.11 200.063,229.048 214.335,221.201C219.113,218.574 218.948,218.288 224.644,215.822C226.294,215.108 229.977,213.102 237.643,210.925C239.489,210.401 239.784,209.932 241.526,209.618C244.526,209.077 244.51,209.084 247.435,208.195C249.813,207.472 250.587,207.948 255.552,206.829C260.915,205.621 273.076,206.037 274.418,205.287C276.563,204.086 277.53,200.637 279.31,197.393C279.592,196.88 282.373,190.942 284.618,186.561C285.412,185.012 286.786,182.117 286.97,181.729C287.228,181.185 288.091,179.922 288.632,178.555C289.226,177.055 300.016,155.648 300.504,154.502C302.213,150.485 309.911,135.936 311.041,133.287C311.982,131.08 313.524,128.162 313.814,127.661C314.137,127.104 313.911,127 317.347,120.419C317.546,120.038 317.509,120.031 319.725,115.607C320.431,114.197 320.617,114.304 321.394,112.45C322.719,109.289 330.132,94.782 334.866,84.671C335.431,83.465 336.804,81.179 340.123,74.308C341.224,72.029 342.639,69.639 343.455,67.479C343.505,67.346 346.747,60.833 347.034,60.255C348.392,57.526 350.434,53.807 352.054,50.273C353.857,46.34 354.781,46.936 360.5,46.937C377.94,46.94 573.867,46.972 578.499,46.934C578.755,46.932 581.131,46.913 581.695,47.14C583.604,47.909 582.08,50.471 581.933,50.718C581.431,51.562 580.505,53.657 578.048,58.281C577.198,59.88 577.393,59.949 576.531,61.517C575.665,63.095 573.286,68.911 569.708,75.604C568.809,77.286 568.741,78.181 566.375,82.43C565.804,83.455 562.389,91.118 561.093,93.282C560.947,93.526 557.507,100.711 557.197,101.358C553.388,109.314 553.443,109.339 552.694,110.613C550.917,113.634 551.116,114.48 549.016,118.241C547.358,121.211 545.59,125.644 544.051,128.283C543.507,129.216 540.148,136.737 539.408,137.414C538.21,138.508 537.993,138.363 519.5,138.372C363.421,138.45 363.367,137.94 357.561,138.929C354.216,139.499 351.628,139.122 348.435,140.266C345.001,141.498 344.903,141.148 341.472,142.413C340.865,142.637 339.741,142.803 337.687,143.889C336.657,144.434 335.521,144.663 333.671,145.803C330.715,147.625 327.641,148.476 319.242,156.233C316.892,158.403 317.109,158.579 314.141,162.229C309.965,167.364 302.23,182.47 299.248,187.354C297.461,190.279 293.712,197.544 290.952,201.766C289.742,203.615 290.053,205.68 292.486,205.706C300.967,205.795 300.956,205.493 398.5,205.493C456.703,205.493 502.788,205.45 503.477,205.583C503.663,205.619 505.216,205.918 504.815,207.542C504.627,208.3 494.852,227.404 493.467,230.484C491.902,233.964 491.667,233.836 490.169,237.338C489.526,238.841 489.219,238.681 486.617,244.552C486.13,245.652 484.211,248.791 483.553,250.524C482.758,252.619 482.53,252.492 481.561,254.529C481.408,254.852 481.353,254.797 479.52,258.51C478.329,260.921 478.548,261.017 477.162,263.307C476.359,264.635 473.843,270.237 466.636,284.563C466.045,285.738 459.469,298.809 459.116,299.177C458.065,300.271 457.808,300.122 433.5,300.122C237.046,300.122 237.063,300.112 236.452,300.208C234.062,300.582 234.275,301.225 226.595,314.557C212.011,339.875 212.332,340.052 211.06,342.25C206.56,350.026 203.059,357.139 200.884,360.769C200.662,361.141 197.955,366.38 197.284,367.375C196.494,368.546 196.93,368.83 195.837,369.754C195.553,369.994 195.082,370.136 195.007,370.5C194.961,370.727 195.432,371.427 195.481,371.5C195.922,372.154 196.045,372.041 196.488,372.7C200.991,372.309 238.439,372.549 240.498,372.617C256.346,373.144 323.226,372.603 329.481,372.891C341.089,373.425 341.07,373.15 363.499,373.125C423.894,373.056 423.903,373.284 427.528,372.798C436.71,371.568 436.713,371.665 437.509,371.548C437.544,371.543 446.093,369.648 446.496,369.487C449.435,368.314 449.553,368.663 452.434,367.337C455.05,366.133 455.388,366.839 462.535,362.551C479.769,352.211 487.097,336.199 489.024,333.19C489.676,332.173 496.603,320.213 496.892,319.723C498.827,316.454 498.86,316.482 499.026,316.197C499.385,315.582 503.18,309.081 503.508,308.504C508.811,299.165 508.973,299.273 509.414,298.451C510.369,296.67 517.907,283.861 518.651,282.596C523.694,274.027 523.739,274.06 524.137,273.293C525.374,270.91 525.382,270.936 526.766,268.65C530.863,261.88 548.606,231.238 549.247,230.333C549.452,230.043 549.742,229.634 551.48,226.489C553.834,222.23 559.298,213.51 560.115,212.274ZM192.443,372.137C192.467,372.053 192.624,372.059 192.648,371.975C192.682,371.86 192.815,371.404 192.92,370.5C192.949,370.254 192.869,370.003 192.907,369.759C193.029,368.976 193.515,369.101 194.546,366.519C194.933,365.548 197.668,360.704 197.721,360.595C198.303,359.404 198.409,359.478 199.023,358.292C200.912,354.647 200.945,354.685 201.102,354.366C202.004,352.524 201.967,352.529 202.931,350.722C203.502,349.651 209.452,338.495 210.016,337.3C213.237,330.475 213.561,330.657 215.161,327.347C219.644,318.068 219.863,318.183 220.236,317.368C223.149,310.998 223.324,311.088 223.555,310.525C224.46,308.316 224.93,308.017 225.226,307.372C225.476,306.826 225.665,306.253 225.919,305.71C226.01,305.515 226.203,305.631 227.301,303.407C228.921,300.123 225.82,300.125 225.522,300.125C220.453,300.129 216.205,301.328 214.497,301.472C210.97,301.771 210.972,301.768 207.572,302.81C205.589,303.418 203.935,303.166 201.395,304.192C199.029,305.148 198.923,304.772 196.564,305.694C191.948,307.497 191.908,307.365 191.519,307.548C190.072,308.229 190.07,308.175 188.553,308.635C187.503,308.953 186.014,309.897 185.358,310.166C179.184,312.696 173.747,316.312 172.298,317.176C171.209,317.825 165.388,321.294 159.359,326.327C151.16,333.171 149.967,334.547 142.128,343.175C136.637,349.219 131.552,357.03 129.746,359.667C128.179,361.954 122.973,370.531 122.961,370.601C122.803,371.578 123.567,372.161 123.681,372.248C124.876,373.16 125.01,372.64 126.499,372.472C127.733,372.333 127.72,372.406 137.5,372.423C188.066,372.508 188.075,372.628 192.443,372.137Z"/>
                </g>
                <g transform="matrix(1,0,0,1,1463,742)">
                    <path d="M147.193,56.544C145.428,112.481 148.779,467.94 145.398,469.16C144.665,469.424 54.868,469.474 53.611,469.126C52.007,468.682 52.202,467.806 52.202,283.5C52.202,249.021 50.054,248.337 59.92,228.677C67.947,212.68 141.071,66.056 145.731,54.845C151.329,49.616 191.631,93.791 203.171,111.703C257.025,195.291 192.657,300.465 256.576,361.417C279.033,382.833 306.049,379.274 324.489,379.238C327.429,379.233 327.03,377.308 327.03,246.5C327.03,82.882 327.736,81.914 322.214,74.721C309.352,57.966 249.449,52.699 231.465,51.565C236.235,51.752 244.576,52.017 257.456,52.281C393.545,55.067 421.742,49.612 421.904,55.429C421.939,56.663 422.105,465.881 421.791,467.615C421.558,468.903 421.017,469.384 315.5,469.28C163.476,469.131 201.292,314.949 204.439,286.495C218.47,159.661 222.72,131.938 150.782,58.259C149.071,56.507 149.081,56.697 147.193,56.544ZM231.465,51.565C224.047,51.275 225.264,51.174 231.465,51.565Z"/>
                </g>
                <g transform="matrix(1,0,0,1,29,685)">
                    <path d="M516.331,285.406C517.549,287.053 518.449,286.936 517.5,288.781C511.994,299.49 511.287,299.378 511.689,311.409C511.152,311.77 510.368,310.489 509.831,310.85C509.152,311.306 509.355,312.417 509.057,313.179C506.21,320.443 480.753,371.347 478.237,376.378C475.788,381.274 458.843,415.157 447.821,437.67C445.729,441.942 476.073,605.02 477.092,609.561C492.425,677.884 466.821,584.393 452.717,538.432C439.124,494.135 432.632,471.631 432.491,471.512C429.96,469.386 407.138,522.905 404.341,524.237C402.817,524.963 29.824,524.613 29.541,524.427C27.205,522.902 65.324,450.401 133.778,310.628C203.847,167.56 231.085,108.982 324.5,108.919C480.859,108.813 490.154,112.156 496.162,88.426C506.345,48.208 546.604,19.999 523.969,44.882C487.601,84.86 518.178,146.173 483.338,182.333C459.8,206.765 454.514,198.264 274.488,201.245C183.297,202.756 147.268,317.38 85.95,432.668C83.222,437.796 88.836,435.754 158.494,435.457C160.071,430.6 160.814,431.268 164.388,427.413C194.458,394.971 181.049,349.671 191.072,315.371C204.64,268.943 243.46,267.685 249.5,267.489C308.662,265.572 351.964,269.001 393.12,305.918C449.092,356.125 434.618,419.538 444.688,405.647C451.26,396.581 451.225,396.631 516.331,285.406ZM159.503,435.574C160.675,435.574 160.486,435.68 161.471,435.68C165.496,435.678 165.362,435.591 169.499,435.57C349.128,434.662 403.772,438.856 416.431,427.407C419.771,424.386 395.375,377.123 353.61,365.104C335.682,359.945 220.629,360.452 206.625,365.796C186.297,373.555 196.142,406.41 159.503,435.574Z"/>
                </g>
                <g transform="matrix(1,0,0,1,415,746)">
                    <path d="M79.436,461.531C79.511,460.858 79.58,460.874 86.608,442.531C130.359,328.33 126.37,309.37 125.677,279.495C124.243,217.638 75.854,82.764 191.53,51.643C219.513,44.115 333.737,47.968 334.063,48.612C335.351,51.16 248.024,223.33 240.363,238.434C236.481,246.087 217.91,282.7 207.236,340.455C200.172,378.679 220.922,373.711 302.501,373.674C338.371,373.658 341.262,375.76 343.972,367.681C372.359,283.054 343.055,218.243 344.374,156.498C345.89,85.615 391.929,58.695 422.508,51.539C455.58,43.8 564.643,48.406 564.654,48.444C565.311,50.727 492.476,195.564 486.074,208.295C481.307,217.774 455.119,269.851 442.07,333.405C432.42,380.405 455.811,373.692 495.5,373.692C539.617,373.692 584.342,381.905 609.101,331.304C646.774,254.313 586.943,236.621 666.408,83.45C683.186,51.109 681.593,47.567 690.5,47.563C782.476,47.522 782.732,47.715 782.905,48.324C783.371,49.974 751.826,111.806 749.033,117.281C738.881,137.181 738.905,138.803 732.503,138.846C660.306,139.326 653.239,136.277 650.804,143.598C624.046,224.043 648.107,288.604 650.092,335.522C655.891,472.651 543.756,463.318 514.5,463.315C358.366,463.3 358.354,463.479 357.544,463.331C350.092,461.969 361.209,459.592 397.757,377.604C416.425,335.728 440.531,303.404 463.696,231.559C490.679,147.871 481.417,140.91 464.503,137.478C419.559,128.358 394.356,165.282 390.707,170.628C375.568,192.807 370.145,232.285 371.986,252.474C373.021,263.83 378.633,325.382 345.62,392.554C312.213,460.528 312.966,463.292 306.5,463.291C123.571,463.279 122.076,463.528 122.194,461.464C122.252,460.436 163.353,377.976 166.963,370.732C188.24,328.045 187.968,328.081 209.277,285.39C253.96,195.87 251.491,153.579 248.111,146.676C240.916,131.987 186.941,126.767 158.827,172.687C125.592,226.973 158.034,268.371 128.551,358.515C117.413,392.57 80.838,461.457 80.477,461.673L79.436,461.531Z"/>
                </g>
            </g>
            <g transform="matrix(1,0,0,1,154,42)">
                <g transform="matrix(1,0,0,1,-10,651)">
                    <path d="M151.79,277.975C151.785,277.546 149.508,277.022 151.754,274.837C154.557,272.11 154.469,272.192 157.031,269.193C186.468,234.745 178.539,117.464 200.954,88.817C222.661,61.074 239.33,64.965 368.5,64.965C420.933,64.965 424.219,63.683 424.219,69.5C424.231,445.93 425.113,445.76 424.167,478.463C424.092,481.057 422.42,480.611 345.5,480.611C266.337,480.611 266.197,483.123 259.595,481.213C237.977,474.958 324.098,483.987 329.074,447.46C329.292,445.861 329.314,320.295 329.081,319.609C328.051,316.591 236.074,318.424 234.534,318.715C167.572,331.387 208.016,389.213 151.883,435.993C151.818,434.502 150.6,434.25 152.389,432.429C177.774,406.586 176.479,361.359 190.381,272.484C202.514,194.911 328.851,234.315 329.196,220.482C330.727,159.1 330.663,156.255 325.509,156.15C242.776,154.458 236.032,156.575 228.635,158.897C169.405,177.489 207.583,230.857 151.79,277.975ZM65.036,229.235C111.834,149.115 145.432,65.706 148.554,67.292C149.788,67.919 148.656,239.708 149.106,279.447C148.839,358.528 148.729,358.39 149.078,437.448C148.923,478.062 149.897,480.576 145.502,480.612C58.838,481.331 54.338,483.805 54.308,476.502C54.238,459.461 53.627,310.752 54.509,263.495L54.398,262.557L54.436,261.522C54.072,249.15 67.072,232.871 66.736,230.5C66.637,229.8 65.135,229.934 65.036,229.235Z"/>
                </g>
                <g transform="matrix(1,0,0,1,399,587)">
                    <path d="M133.403,180.488C126.509,221.04 130.898,374.312 129.816,541.497C129.791,545.411 127.348,544.615 48.5,544.631C47.384,544.631 34.919,544.634 34.72,542.479C34.64,541.608 34.707,358.43 34.683,332.5C34.664,312.242 39.27,313.476 49.319,291.422C67.383,251.782 119.548,153.947 175.861,32.679C200.198,-19.73 173.932,44.551 173.5,45.5C149.839,97.447 135.59,169.437 133.403,180.488Z"/>
                </g>
                <g transform="matrix(1.242188,0,0,1.242188,516,664)">
                    <path d="M66.311,297.41C62.093,306.027 68.996,303.283 78.5,303.263C148.433,303.12 153.996,301.239 151.305,306.411C116.492,373.331 117.6,375.835 112.499,375.875C105.067,375.934 28.213,376.545 19.603,376.005C15.915,375.774 18.999,373.397 52.051,306.278C153.547,100.174 167.812,64.796 217.533,46.592C226.479,43.317 236.006,39.829 336.479,40.977C339.215,41.008 338.899,43.003 338.918,188.5C338.921,213.381 342.46,214.309 331.558,236.527C295.03,310.968 244.052,411.739 223.79,456.731C202.351,504.34 230.616,434.348 231.378,432.462C270.855,334.707 262.321,262.824 262.322,256.5C262.34,116.876 262.542,115.753 260.538,115.339C260.234,115.276 214.748,115.044 210.505,115.553C146.089,123.27 122.888,183.974 66.311,297.41ZM341.592,170.538C346.094,162.6 356.958,160.839 360.627,128.515C366.143,79.905 360.208,41.089 421.5,41.065C518.819,41.028 520.512,40.784 520.57,43.494C520.573,43.647 520.653,219.28 520.529,220.503C520.155,224.21 457.254,349.478 448.947,366.708C445.404,374.056 404.898,458.065 404.495,458.491C388.769,475.09 444.314,390.179 444.315,291.5C444.317,115.927 444.531,114.916 442.548,114.338C441.784,114.116 404.716,114.1 397.497,114.441C365.621,115.949 371.145,126.571 365.035,140.331C354.827,163.319 340.663,175.253 340.707,171.5C340.712,171.064 341.587,170.974 341.592,170.538Z"/>
                </g>
                <g transform="matrix(1,0,0,1,1020,628)">
                    <path d="M707.514,36.526C709.274,35.961 710.236,35.907 709.481,37.5C697.097,63.661 694.907,62.319 548.702,361.608C475.691,511.064 446.428,505.295 352.5,505.295C72.314,505.295 70.004,505.526 70.713,503.538C72.877,497.472 201.766,241.478 221.993,194.799C223.785,190.664 225.07,195.33 223.203,199.421C215.645,215.982 155.764,366.233 154.65,383.521C152.297,420.068 170.051,415.629 269.5,415.629C452.602,415.629 454.052,417.535 483.695,402.92C489.796,399.912 528.98,380.593 545.477,344.496C546.533,342.187 543.801,342.72 387.5,342.69C386.102,342.69 371.241,342.687 370.141,340.703C369.467,339.488 263.423,124.405 249.727,96.363C246.403,89.557 248.959,89.549 249.504,89.547C265.412,89.498 447.083,88.94 448.353,89.783C449.543,90.574 449.005,91.257 419.18,153.348C406.008,180.77 405.078,180.782 402.507,180.815C386.519,181.02 313.454,170.8 337.353,244.544C338.77,248.916 340.647,248.14 434.5,248.154C562.808,248.174 581.99,253.979 612.906,200.729C700.527,49.808 699.335,49.291 707.514,36.526Z"/>
                </g>
            </g>
        </g>
        <g transform="matrix(0.188668,0,0,0.188668,3610.287671,1015.109325)">
            <g transform="matrix(657.101865,0,0,657.101865,424.014347,851)">
            </g>
            <text x="-32.014px" y="851px" style="font-family:'UniteaSans-Medium', 'Unitea Sans';font-weight:500;font-size:657.102px;">©</text>
        </g>
        <g transform="matrix(1.577279,0.833148,-0.833148,1.577279,668.782232,-604.462701)">
            <path d="M342,562L346.7,631.817C347.023,636.613 349.074,641.129 352.472,644.528C355.871,647.926 360.387,649.977 365.183,650.3L435,655L365.183,659.7C360.387,660.023 355.871,662.074 352.472,665.472C349.074,668.871 347.023,673.387 346.7,678.183L342,748L337.3,678.183C336.977,673.387 334.926,668.871 331.528,665.472C328.129,662.074 323.613,660.023 318.817,659.7L249,655L318.817,650.3C323.613,649.977 328.129,647.926 331.528,644.528C334.926,641.129 336.977,636.613 337.3,631.817L342,562Z"/>
        </g>
    </g>
</svg>
