<?xml version="1.0" encoding="UTF-8" standalone="no"?>
<!DOCTYPE svg PUBLIC "-//W3C//DTD SVG 1.1//EN" "http://www.w3.org/Graphics/SVG/1.1/DTD/svg11.dtd">
<svg width="100%" height="100%" viewBox="0 0 2000 2000" version="1.1" xmlns="http://www.w3.org/2000/svg" xmlns:xlink="http://www.w3.org/1999/xlink" xml:space="preserve" xmlns:serif="http://www.serif.com/" style="fill-rule:evenodd;clip-rule:evenodd;stroke-linejoin:round;stroke-miterlimit:2;">
    <g id="YouTube" transform="matrix(1.430275,0,0,1.430275,267.447781,486.598476)">
        <path d="M6.416,502.502C6.218,494.362 1.708,424.169 1.407,398.501C-0.111,269.132 5.21,264.83 6.41,215.498C6.538,213.385 6.393,213.541 7.188,211.444C7.735,207.784 9.635,184.253 10.474,178.497C11.164,173.76 17.274,131.835 20.419,119.492C20.557,117.311 20.029,117.231 21.493,115.496C23.932,105.096 25.713,105.833 28.307,95.426L29.504,92.502C30.224,91.387 31.263,88.782 31.396,88.449L32.498,86.498C45.353,67.821 44.547,67.296 45.887,65.855C83.138,25.808 94.937,30.334 117.683,20.894L120.495,20.428C164.712,11.834 245.043,8.169 258.616,6.884L264.499,6.405C269.303,6.343 301.746,5.93 324.536,4.953C392.05,2.06 391.823,1.954 459.5,1.46C620.577,0.284 730.819,6.03 760.501,6.398C762.859,6.485 762.83,5.75 766.553,7.17C774.625,8.049 777.554,8.117 778.513,8.139C813.767,8.951 813.523,10.141 856.54,14.101C900.084,18.11 899.728,20.098 903.505,20.428L906.317,20.896C906.674,21.08 906.765,21.664 908.613,22.081C912.52,22.963 938.838,28.905 954.148,42.888C975.582,62.462 975.153,62.728 991.501,86.499L992.604,88.449C994.393,91.035 1001.579,109.873 1004.359,122.547C1011.573,155.434 1016.553,208.664 1017.114,211.628L1017.582,216.498C1029.248,418.287 1019.479,426.886 1017.586,502.502C1017.48,505.127 1017.826,505.004 1016.765,507.549C1015.988,512.175 1015.959,512.141 1015.926,512.545C1015.36,519.549 1011.553,566.653 1003.577,599.507L1003.117,602.319C998.632,610.461 1000.211,610.871 996.863,619.631C989.306,639.405 987.023,638.147 982.542,646.519L980.664,648.663C976.904,654.501 976.953,654.333 971.912,658.906C950.398,678.42 950.555,678.699 924.538,691.607L921.524,692.632C894.854,700.768 894.513,699.098 892.319,700.1L889.504,700.566C818.225,709.991 770.504,710.142 731.379,713.118C726.082,714.201 726.232,713.638 719.501,713.59C668.995,713.966 629.306,715.988 621.471,716.387L618.5,716.605C517.276,716.448 422.54,716.581 405.5,716.605L402.53,716.387C398.734,715.397 334.313,713.914 304.499,713.59C295.471,713.477 295.394,714.073 292.462,712.776C281.225,711.925 207.628,710.212 134.495,700.568L131.681,700.102C131.428,699.98 131.104,699.297 129.391,698.994C115.681,696.573 115.853,696.702 102.478,692.625L99.461,691.608L97.438,690.594C92.355,688.557 63.265,676.902 43.338,648.661L41.457,646.519C35.967,636.238 35.21,636.908 29.863,626.323C24.008,614.733 26.06,614.106 20.883,602.319L20.423,599.507C13.547,571.173 7.311,509.481 6.886,507.371L6.416,502.502ZM658.648,368.745C659.486,368.265 676.457,359.859 673.201,357.949C668.446,355.158 668.454,355.247 613.468,323.557C412.934,207.981 409.77,204.811 409.782,208.52C410.666,486.317 409.559,486.297 409.77,510.45C409.79,512.743 412.023,510.965 658.648,368.745Z" style="fill-opacity:1;"/>
    </g>
</svg>
